<svg xmlns="http://www.w3.org/2000/svg" width="469" height="468.958">
  <defs>
    <clipPath id="g">
      <path d="M227.52 453.133h119.992V573.12H227.52V453.133z"/>
    </clipPath>
    <clipPath id="e">
      <path d="M277.952 514.628c-.113 0-.208-.097-.208-.211v-.24c.005-.215.261-.257.261-.293v-.972c0-.218.162-.393.364-.418v-.211c0-.113.101-.204.211-.204h18.058c.119 0 .21.091.21.204v.174c0 .037.005.087.005.087.129.073.194.21.194.368v.972c0 .036.03.057.03.057.11 0 .198.123.198.236v.24c0 .114-.092.211-.205.211h-19.118z"/>
    </clipPath>
    <clipPath id="f">
      <path d="M0 0h612v792H0V0z"/>
    </clipPath>
    <clipPath id="d">
      <path d="M227.52 453.133h119.992V573.12H227.52V453.133z"/>
    </clipPath>
    <clipPath id="b">
      <path d="M285.783 557.375c-.472-.617-2.137-1.826-2.611-5.323-2.815-3.863.366-7.987 1.62-9.339v-.89h5.186c-.268.574-.376 1.868 1.232 3.865 1.773 2.188.366 5.582-.682 6.675-1.043 1.1-1.144 2.815-1.197 3.759-.052.941-.052 2.3-.416 2.563-.369.258-.52.519-1.517.773-.07.019-.137.028-.2.028-.814 0-.981-1.53-1.415-2.111"/>
    </clipPath>
    <clipPath id="c">
      <path d="M0 0h612v792H0V0z"/>
    </clipPath>
    <clipPath id="a">
      <path d="M227.52 453.133h119.992V573.12H227.52V453.133z"/>
    </clipPath>
  </defs>
  <g clip-path="url(#a)" transform="matrix(3.93691 0 0 -3.93691 -897.63498 2254.8124)">
    <path d="M228.2354 513.1337c0-32.747 26.541-59.285 59.274-59.285 32.748 0 59.287 26.538 59.287 59.285 0 32.732-26.539 59.271-59.287 59.271-32.733 0-59.274-26.539-59.274-59.271m107.015.106c0-26.343-21.355-47.699-47.699-47.699-26.344 0-47.699 21.356-47.699 47.699 0 26.344 21.355 47.699 47.699 47.699 26.344 0 47.699-21.355 47.699-47.699" fill="#fff"/>
    <path d="M228.2354 513.1337c0-32.747 26.541-59.285 59.274-59.285 32.748 0 59.287 26.538 59.287 59.285 0 32.732-26.539 59.271-59.287 59.271-32.733 0-59.274-26.539-59.274-59.271zm107.015.106c0-26.343-21.355-47.699-47.699-47.699-26.344 0-47.699 21.356-47.699 47.699 0 26.344 21.355 47.699 47.699 47.699 26.344 0 47.699-21.355 47.699-47.699z" fill="none" stroke="#bc9b6a" stroke-width=".461" stroke-linejoin="round" stroke-miterlimit="3.86400008"/>
    <path d="M345.0818 512.5995c0-31.556-25.58-57.135-57.135-57.135s-57.136 25.579-57.136 57.135c0 31.555 25.581 57.135 57.136 57.135 31.555 0 57.135-25.58 57.135-57.135" fill="#fff"/>
    <path d="M345.0818 512.5995c0-31.556-25.58-57.135-57.135-57.135s-57.136 25.579-57.136 57.135c0 31.555 25.581 57.135 57.136 57.135 31.555 0 57.135-25.58 57.135-57.135z" fill="none" stroke="#fff" stroke-width=".48500001" stroke-miterlimit="3.86400008"/>
    <path d="M317.6978 497.2679c-.281 1.204-4.936 3.162-4.936 3.162l1.234 2.776s4.088-1.388 5.861-1.311c1.774.077 2.168 5.323 2.237 5.707.385 2.159.464 5.533.422 7.006-.091 3.184-.665 5.559-1.087 6.446-.832 1.772-1.983 1.15-3.341.728-1.351-.412-2.717-.833-2.717-.833l-1.98 3.338s3.236 1.564 4.91 2.607c1.67 1.048.206 2.724-.837 3.757-1.046 1.047-8.146 9.398-11.508 12.11-3.37 2.719-3.737 1.046-4.988-2.088-1.25-3.131-1.875-5.011-3.961-10.437l-3.138.626s3.969 10.749 4.6 12.848c.624 2.083-.94 2.607-1.988 2.815-.696.136-1.771.649-4.226.973l-10.108-.026c-1.358-.287-3.096-.846-3.62-.947-1.036-.208-2.611-.732-1.984-2.815.629-2.099 4.597-12.848 4.597-12.848l-3.135-.626c-2.089 5.426-2.714 7.306-3.967 10.437-1.249 3.134-1.619 4.807-4.986 2.088-3.363-2.712-10.463-11.063-11.509-12.11-1.037-1.033-2.502-2.709-.834-3.757 1.674-1.043 4.909-2.607 4.909-2.607l-1.982-3.338s-1.357.421-2.717.833c-1.353.422-2.506 1.044-3.339-.728-.418-.887-.992-3.262-1.083-6.446-.045-1.592.13-4.648.406-6.56l.769-4.237 5.879-.605 1.62.309 1.593-3.029c-1.773-.519-3.34-1.459-4.485-1.983-1.151-.515-1.398-2.231-.105-4.382l4.283-5.971c1.791-2.105 3.665-3.753 6.296-5.505 3.103-2.067 9.987-.593 9.987-.593l9.012-9.751 8.421 9.951s8.515-.64 10.578.585c2.713 1.62 4.619 3.467 6.267 5.556 0 0 5.22 6.561 4.68 8.875m-56.858 6.02l-.858-.103m54.19-.219l.841-.23m4.301-.988l-1.701.377m17.739 10.887c0-26.274-21.298-47.573-47.572-47.573-26.273 0-47.572 21.299-47.572 47.573 0 26.273 21.299 47.572 47.572 47.572 26.274 0 47.572-21.299 47.572-47.572" fill="#bc9b6a"/>
    <path d="M317.6978 497.2679c-.281 1.204-4.936 3.162-4.936 3.162l1.234 2.776s4.088-1.388 5.861-1.311c1.774.077 2.168 5.323 2.237 5.707.385 2.159.464 5.533.422 7.006-.091 3.184-.665 5.559-1.087 6.446-.832 1.772-1.983 1.15-3.341.728-1.351-.412-2.717-.833-2.717-.833l-1.98 3.338s3.236 1.564 4.91 2.607c1.67 1.048.206 2.724-.837 3.757-1.046 1.047-8.146 9.398-11.508 12.11-3.37 2.719-3.737 1.046-4.988-2.088-1.25-3.131-1.875-5.011-3.961-10.437l-3.138.626s3.969 10.749 4.6 12.848c.624 2.083-.94 2.607-1.988 2.815-.696.136-1.771.649-4.226.973l-10.108-.026c-1.358-.287-3.096-.846-3.62-.947-1.036-.208-2.611-.732-1.984-2.815.629-2.099 4.597-12.848 4.597-12.848l-3.135-.626c-2.089 5.426-2.714 7.306-3.967 10.437-1.249 3.134-1.619 4.807-4.986 2.088-3.363-2.712-10.463-11.063-11.509-12.11-1.037-1.033-2.502-2.709-.834-3.757 1.674-1.043 4.909-2.607 4.909-2.607l-1.982-3.338s-1.357.421-2.717.833c-1.353.422-2.506 1.044-3.339-.728-.418-.887-.992-3.262-1.083-6.446-.045-1.592.13-4.648.406-6.56l.769-4.237 5.879-.605 1.62.309 1.593-3.029c-1.773-.519-3.34-1.459-4.485-1.983-1.151-.515-1.398-2.231-.105-4.382l4.283-5.971c1.791-2.105 3.665-3.753 6.296-5.505 3.103-2.067 9.987-.593 9.987-.593l9.012-9.751 8.421 9.951s8.515-.64 10.578.585c2.713 1.62 4.619 3.467 6.267 5.556 0 0 5.22 6.561 4.68 8.875zm-56.858 6.02l-.858-.103m54.19-.219l.841-.23m4.301-.988l-1.701.377m17.739 10.887c0-26.274-21.298-47.573-47.572-47.573-26.273 0-47.572 21.299-47.572 47.573 0 26.273 21.299 47.572 47.572 47.572 26.274 0 47.572-21.299 47.572-47.572z" fill="none" stroke="#002b54" stroke-width=".48500001" stroke-miterlimit="3.86400008"/>
    <path d="M269.9345 474.9352s-.68-1.289-.895-2.184c-.215-.896-.251-1.612-.251-1.612s.036-.286.752-.573.859-.107.859-.107.645.573 1.111 1.718c.465 1.146.644 1.863.644 1.863s.501-.252 1.289-.538c.788-.286 1.289-.394 1.289-.394s-.322-.931-.537-1.969c-.228-1.101-.179-1.969-.179-1.969s.322-.322.895-.466c.573-.143.859 0 .859 0s.502.537.86 1.791.43 1.933.43 1.933.533-.194 1.361-.393c.895-.216 1.289-.216 1.289-.216s-.225-1.151-.323-1.969c-.138-1.16.104-1.979.104-1.979s.27-.321.728-.394c.757-.121 1 .061 1 .061s.576.637.758 2.88c.182 2.243-.152 2.849-.424 3.243-.273.394-4.041 3.9-7.488 7.639-3.94 4.274-5.547 7.608-5.547 7.608l9.337.94s-.021-1.086-.546-2.486c-1.091-2.91-1.991-3.368-2.061-3.91-.092-.697.212-1.061.848-1.243.637-.182 1.763.255 2.759.516 2.667.697 4.91.939 4.91.939l3.729-3.061 4.062 3.213s1.94-.455 3.546-.516c1.607-.06 2.978-.095 3.213.819.243.939-.504 2.186-1.091 3.486-.587 1.299-1.121 2.485-1.121 2.485s1.697-.424 5.365-.848c3.668-.425 5.395-.485 5.395-.485s-2.394-4.335-5.88-7.487c-1.084-.981-2.639-2.731-4.123-4.184-1.483-1.453-2.849-2.758-3.395-3.364-.657-.731-.515-2.637-.454-3.304.125-1.381.394-2.486.788-2.91 0 0 .061-.182.849-.031.788.152.878.303.878.303s.213 1.031.061 2.243c-.151 1.213-.303 1.789-.303 1.789s.303.03 1.364.273c1.061.242 1.334.363 1.334.363s.121-1.06.424-1.97c.304-.909.849-1.788.849-1.788s.091-.243.91.03c.818.273.788.455.788.455s.151.788-.152 2.061-.515 1.879-.515 1.879.333.061 1.334.425c1 .363 1.242.485 1.242.485s.393-1.153.667-1.849c.394-1.001 1.061-1.728 1.061-1.728s.091-.212.91.152c.818.363.727.545.727.545s.03.879-.424 2.031c-.455 1.152-.728 1.789-.728 1.789s.243.09 1.213.575c.97.485 1.273.698 1.273.698s.464-1.008.849-1.728c.485-.91 1.273-1.607 1.273-1.607s.182-.151.848.243c.667.394.697.606.697.606s-.06.94-.697 2.091c-.636 1.152-.909 1.577-.909 1.577s.303.212 1.152.758c.849.545 1.121.818 1.121.818s.613-.973 1.091-1.667c.607-.879 1.425-1.425 1.425-1.425s.243-.121.879.394c.637.515.576.697.576.697s-.121.667-.818 1.728-1.243 1.607-1.243 1.607.151.121 1.061.909c.909.788 1.03.97 1.03.97s.518-.756 1.304-1.516c.94-.909 1.576-1.212 1.576-1.212s.212-.061.819.546c.606.606.485.727.485.727s-.212.606-1.061 1.637c-.849 1.031-1.394 1.455-1.394 1.455s.272.212 1.06 1.091.819.97.819.97.501-.593 1.424-1.303c1.183-.909 1.758-1.031 1.758-1.031s.152-.121.698.546c.546.667.394.758.394.758s-.152.636-1.273 1.606c-.99.856-1.546 1.243-1.546 1.243s.333.394.939 1.273c.607.879.698 1.031.698 1.031s.775-.588 1.667-1.182c1.091-.728 1.788-.728 1.788-.728s.212-.03.607.637c.393.666.363.818.363.818s-.606.758-1.455 1.364c-.848.606-1.758 1.091-1.758 1.091s.394.637.788 1.395.546 1.121.546 1.121.637-.483 1.879-1c1.455-.606 1.849-.515 1.849-.515s.117-.059.546.727c.364.667.182.819.182.819s-.485.636-1.637 1.243c-1.152.606-1.819.848-1.819.848s.243.576.576 1.455c.333.879.425 1.152.425 1.152s.793-.407 1.97-.758c1.425-.424 1.879-.272 1.879-.272s.213 0 .455.697c.243.697.121.879.121.879s-.273.485-1.607 1.03c-1.333.546-2.121.667-2.121.667s.242.697.424 1.425c.182.727.273 1.273.273 1.273s.796-.258 1.909-.485c1.486-.303 2.032-.061 2.032-.061s.212.031.363.788c.152.758.03.849.03.849s-.303.425-1.788.819c-1.485.394-2.152.394-2.152.394s.121.697.242 1.576c.122.879.152 1.273.152 1.273s.576-.242 2.152-.303 1.849.182 1.849.182.243.152.273.909c.031.758-.121.819-.121.819s-.576.364-2.031.576c-1.455.212-1.94.121-1.94.121s.03.758 0 2.092c-.031 1.333-.091 1.818-.091 1.818s.182-.151 1.94.061 2 .515 2 .515.213.212.122.97-.243.758-.243.758-.636.273-2.03.243c-1.395-.031-2.001-.213-2.001-.213s-.031.576-.182 1.486c-.152.909-.242 1.273-.242 1.273s.909.03 2.243.394c1.333.363 1.606.667 1.606.667s.168.231 0 .97c-.151.666-.394.666-.394.666s-.485.304-1.91.092c-1.424-.213-2.03-.485-2.03-.485s-.152.818-.395 1.606c-.242.788-.333 1.091-.333 1.091s.504-.004 2.031.606c1.667.667 1.637 1.001 1.637 1.001s.06.303-.152.849c-.212.545-.455.697-.455.697s-.878.03-1.94-.243c-1.06-.272-1.94-.667-1.94-.667s-.242.637-.575 1.455c-.334.819-.455 1.152-.455 1.152s.909.243 2 .849c1.092.606 1.425 1.031 1.425 1.031s.03.454-.303 1.03c-.334.576-.485.546-.485.546s-.758 0-1.819-.425c-1.061-.424-1.879-.909-1.879-.909s-.273.546-.727 1.304c-.455.757-.667 1.091-.667 1.091s.909.394 2 1.212c1.092.819 1.213 1.152 1.213 1.152s.03.243-.395.849c-.424.606-.606.546-.606.546s-.697-.031-1.727-.607c-1.031-.576-1.789-1.182-1.789-1.182s-.303.546-.849 1.273c-.545.728-.788 1.001-.788 1.001s1.031.636 1.789 1.364c.757.727 1.091 1.303 1.091 1.303s-.031.364-.455.818c-.424.455-.667.485-.667.485s-.667-.151-1.727-.878c-1.062-.728-1.607-1.304-1.607-1.304s-.303.364-1 1.091c-.698.728-.88.91-.88.91s1.274 1.151 1.759 1.788c.485.637.727 1.213.727 1.213s.121.272-.515.788c-.619.5-.758.454-.758.454s-.636-.242-1.546-1.06c-.909-.819-1.455-1.547-1.455-1.547s-.212.243-1.091.94-1.061.819-1.061.819.576.576 1.425 1.849c.849 1.273.727 1.546.727 1.546s-.03.212-.545.576c-.516.363-.849.363-.849.363s-.546-.151-1.394-1.151c-.849-1.001-1.334-1.789-1.334-1.789s-.364.364-1.183.849c-.818.485-1.091.636-1.091.636s.606.819 1.183 2.031c.575 1.213.515 1.546.515 1.546s0 .182-.637.546c-.637.364-.879.242-.879.242s-.546-.273-1.243-1.333c-.697-1.061-1.091-1.88-1.091-1.88s-.394.212-1.334.637c-.94.424-1.151.485-1.151.485s.606 1.182 1 2.273c.394 1.092.303 1.516.303 1.516s-.122.273-.758.515c-.637.243-.879.121-.879.121s-.515-.424-1.061-1.485c-.545-1.061-.849-2.031-.849-2.031s-.333.152-1.364.485c-1.031.334-1.212.364-1.212.364s.455 1.243.697 2.395c.243 1.152.091 1.515.091 1.515s-.061.182-.667.364c-.606.182-.97.061-.97.061s-.491-.291-.91-1.546c-.424-1.274-.606-2.152-.606-2.152l-1.364.272c-1.061.213-1.364.243-1.364.243s.334.879.455 2.273c.121 1.395-.061 1.728-.061 1.728s-.273.212-.879.303-.849-.091-.849-.091-.454-.545-.697-1.697c-.242-1.152-.333-2.243-.333-2.243l-2.365.272s-.03 1.819-.212 2.698c-.181.879-.758 1.364-1.243 1.485-.485.122-.909.182-1.182-.03-.273-.212-.576-1.485-.818-1.788-.243-.303-1.364-1.122-1.94-2.486l-.728-.121s-.121 1.273-.424 2.395c-.303 1.121-.728 1.606-.728 1.606s-.212.121-.878 0c-.667-.121-.759-.333-.759-.333s-.211-.667-.06-1.728c.152-1.061.455-2.243.455-2.243s-.606-.061-1.395-.212c-.788-.152-1.364-.334-1.364-.334s-.182 1.152-.606 2.183c-.425 1.03-.879 1.576-.879 1.576s-.303.091-.909-.091c-.607-.182-.758-.334-.758-.334s-.122-.788.181-1.848c.304-1.062.667-2.092.667-2.092s-.515-.121-1.363-.394c-.849-.273-1.244-.485-1.244-.485s-.363.97-.878 2.031c-.516 1.061-1.092 1.546-1.092 1.546s-.242.121-.879-.152c-.636-.273-.697-.515-.697-.515s.03-.97.364-1.758c.333-.788.97-2.001.97-2.001s-.516-.212-1.334-.576c-.819-.364-1.182-.606-1.182-.606s-.364.909-1.031 1.849c-.667.94-1.334 1.425-1.334 1.425s-.454 0-.909-.273c-.454-.273-.576-.576-.576-.576s.03-.697.637-1.788c.606-1.092 1.091-1.728 1.091-1.728s-.455-.273-1.213-.758c-.757-.485-1.091-.758-1.091-.758s-.576.879-1.273 1.697c-.697.819-1.455 1.243-1.455 1.243s-.364.031-.879-.394c-.515-.424-.515-.636-.515-.636s.091-.667.818-1.668c.728-1 1.334-1.636 1.334-1.636s-.394-.273-1.061-.819c-.667-.545-1.091-.94-1.091-.94s-.667.789-1.607 1.607-1.455.94-1.455.94-.303.03-.788-.455c-.485-.485-.424-.727-.424-.727s.06-.485 1.06-1.577c1.001-1.091 1.455-1.424 1.455-1.424s-.454-.425-1.06-1.061c-.606-.637-.819-.94-.819-.94s-.636.606-1.667 1.334c-1.03.727-1.697.879-1.697.879s-.273-.031-.698-.546c-.424-.515-.394-.788-.394-.788s.122-.485 1.152-1.394c1.031-.91 1.728-1.304 1.728-1.304s-.303-.303-.879-1.091c-.576-.788-.758-1.121-.758-1.121s-.667.515-1.819 1.121-1.758.637-1.758.637-.272-.061-.606-.607c-.333-.545-.333-.848-.333-.848s.393-.667 1.545-1.365c1.152-.697 1.607-.939 1.607-.939s-.212-.334-.697-1.182c-.485-.849-.667-1.213-.667-1.213s-.636.455-1.88.879c-1.242.425-1.818.425-1.818.425s-.273-.061-.546-.576c-.311-.588-.272-.94-.272-.94s.393-.606 1.788-1.243c1.394-.636 1.667-.697 1.667-.697s-.121-.212-.515-1.152-.546-1.425-.546-1.425-.546.334-2.061.698c-1.516.363-1.819.182-1.819.182s-.212-.031-.424-.637-.152-.97-.152-.97.243-.485 1.758-.97c1.516-.485 1.91-.546 1.91-.546s-.121-.303-.364-1.212c-.242-.91-.364-1.455-.364-1.455s-.697.242-2.03.424c-1.334.182-1.971-.061-1.971-.061s-.271-.212-.394-.909c-.091-.515.091-.727.091-.727s.212-.425 1.849-.758c1.637-.334 1.97-.334 1.97-.334s-.151-.575-.272-1.455c-.121-.879-.152-1.242-.152-1.242s-.576.151-2.031.151-1.97-.212-1.97-.212-.243.03-.273-.97c0 0-.03-.637.091-.758s.334-.394 2-.515c1.668-.121 2.001-.061 2.001-.061s-.091-.758-.091-1.94v-1.97s-1 .06-2.213-.152c-1.212-.212-1.788-.545-1.788-.545s-.182-.243-.121-.819.272-.909.272-.909.455-.303 2.032-.182c1.576.121 1.97.273 1.97.273s.03-.334.152-1.364c.121-1.031.181-1.425.181-1.425s-.848-.06-2-.394c-1.152-.333-1.85-.818-1.85-.818s-.151-.364 0-.94c.152-.576.364-.758.364-.758s.455-.212 1.94.091c1.486.303 1.971.515 1.971.515s.121-.454.333-1.303c.212-.849.364-1.395.364-1.395s-.788-.212-1.97-.697c-1.183-.485-1.728-1.03-1.728-1.03s-.03-.303.151-.849c.182-.546.425-.727.425-.727s.515-.182 2.03.333c1.516.515 1.819.667 1.819.667s.152-.485.455-1.243c.303-.758.515-1.304.515-1.304s-.879-.333-1.909-.909c-1.031-.576-1.546-1.212-1.546-1.212s-.03-.334.212-.849c.243-.515.546-.697.546-.697s.393-.213 1.909.545 1.819 1.001 1.819 1.001.091-.304.576-1.213.728-1.273.728-1.273-.97-.576-1.729-1.091c-.757-.515-1.424-1.455-1.424-1.455s-.061-.243.303-.788c.364-.546.667-.667.667-.667s.636.06 1.849.848c1.212.789 1.637 1.092 1.637 1.092s.303-.515.758-1.182c.454-.667.788-1.092.788-1.092s-.546-.273-1.486-1.182c-.939-.909-1.333-1.637-1.333-1.637s-.061-.242.333-.727.758-.667.758-.667.667.121 1.849 1.122c1.182 1 1.364 1.212 1.364 1.212s.182-.152.819-.879c.636-.728 1.06-1.152 1.06-1.152s-1.06-1.031-1.606-1.728c-.546-.697-.819-1.394-.819-1.394s.031-.364.455-.758c.425-.394.788-.485.788-.485s.728.273 1.667 1.273c.94 1.001 1.213 1.455 1.213 1.455s.242-.242 1.03-.909c.789-.667 1.092-.91 1.092-.91s-.697-.757-1.213-1.606c-.515-.849-.849-1.849-.849-1.849s0-.243.546-.637.788-.394.788-.394.593.192 1.546 1.486c.849 1.151 1.092 1.485 1.092 1.485s.272-.182 1.06-.697c.788-.516 1.213-.788 1.213-.788s-.462-.709-.91-1.577c-.515-1-.696-2.091-.696-2.091s0-.182.575-.516c.576-.333.91-.333.91-.333s.606.364 1.364 1.758c.757 1.394.849 1.576.849 1.576s.242-.212 1.152-.636c.909-.425 1.294-.636 1.294-.636m65.902 38.122c0-26.66-21.612-48.272-48.271-48.272-26.66 0-48.271 21.612-48.271 48.272 0 26.659 21.611 48.271 48.271 48.271 26.659 0 48.271-21.612 48.271-48.271" fill="#002b54"/>
    <path d="M268.0968 533.3169s4.656-2.488 9.758-1.637c4.365.727 5.584 3.52 5.584 3.52s-1.223.436-.916 1.512c.243.848 1.337.67 1.337.67s.058 1.269-1.034 2.058c-1.091.788-2.121.666-1.818 1.758.362 1.305 3.334.606 6.305.606 2.97 0 6.376.632 6.79-.606.363-1.092-1.174-1.183-1.94-1.758-.728-.546-1.031-2.001-1.031-2.001s1.213-.121 1.334-.606c.314-1.258-.91-1.576-.91-1.576s1.194-2.827 4.972-3.517c6.305-1.152 10.367 1.637 10.367 1.637s-3.82.364-4.608 3.516c-.788 3.153 1.999 6.667 4.789 6.609 2.91-.061 6.79-1.94 8.791-6.972.892-2.246 1.86-5.344 2.243-9.458.383-4.115.182-9.245-.909-14.611-2.294-11.278-7.275-18.308-7.275-18.308s-2.486.182-4.608.485c-2.122.303-4.365.667-4.365.667s6.184 8.123 8.063 18.793c1.29 7.322.182 11.398.182 11.398s-8.002-2.756-21.764-2.756c-13.762 0-21.583 2.756-21.583 2.756s-1.132-5.526.061-11.276c2.364-11.398 8.124-18.915 8.124-18.915s-2.789-.243-4.668-.425c-1.88-.182-4.487-.545-4.487-.545s-5.801 9.189-7.153 18.49c-.97 6.669-1.092 10.064-.788 14.187.303 4.122 1.091 7.274 2.546 10.366 1.455 3.092 4.789 6.002 8.245 6.124 3.455.121 6.038-4.239 4.971-6.79-1.394-3.335-4.729-3.335-4.729-3.335" fill="#002b54"/>
    <path d="M280.4039 456.9154l.923-.093.702 6.635-.581.071c-.298-.258-.472-.36-.881-.548l-.072-.663.471-.051-.562-5.351z" fill="#bc9b6a"/>
    <path d="M284.2941 459.015c.029.45.127.584.396.571.26-.023.349-.177.33-.608l-.056-1.123c-.029-.429-.135-.588-.393-.575-.277.014-.356.16-.331.613l.054 1.122zm.19 2.96c.02.388.117.539.36.519.228-.004.305-.168.293-.555l-.048-.885c-.021-.388-.12-.528-.351-.519-.237.015-.322.164-.301.557l.047.883zm.941-1.935c.45.299.507.453.562 1.572.035.621-.02.929-.204 1.215-.186.284-.513.454-.899.472-.388.018-.726-.112-.943-.365-.226-.28-.312-.571-.347-1.206-.056-1.113-.014-1.262.411-1.619-.534-.176-.577-.322-.663-1.912-.034-.64.029-.991.23-1.29.2-.29.548-.463.95-.487.865-.046 1.302.51 1.366 1.674.079 1.534.039 1.707-.463 1.946M288.4722 458.9274c-.014.453.074.594.344.603.262.009.363-.146.384-.571l.037-1.128c.014-.424-.079-.584-.339-.593-.269-.019-.366.127-.381.575l-.045 1.114zm-.069 2.974c-.016.388.069.537.31.551.234.009.328-.14.342-.534l.028-.883c.014-.387-.071-.542-.295-.552-.242-.009-.345.145-.353.529l-.032.889zm1.105-1.847c.423.34.464.495.426 1.604-.017.631-.098.935-.309 1.201-.211.267-.547.407-.935.393-.395-.014-.719-.173-.91-.454-.205-.284-.257-.594-.238-1.22.039-1.118.094-1.259.546-1.581-.516-.229-.551-.365-.495-1.964.027-.636.118-.981.347-1.263.223-.271.586-.416.984-.402.865.033 1.255.618 1.211 1.787-.051 1.538-.108 1.706-.627 1.899" fill="#bc9b6a" fill-rule="evenodd"/>
    <path d="M292.0292 458.5617c0-.173.01-.257.028-.426.131-1.005.643-1.5 1.426-1.407.407.051.767.267.952.571.194.308.217.585.138 1.262l-.185 1.538c-.119.969-.519 1.493-1.092 1.418-.268-.029-.456-.187-.685-.562l-.121 1.614 1.372.159-.08.879-2.158-.267.316-3.418.785.094c.05.364.174.57.365.594.189.023.309-.122.346-.44l.249-1.997c.042-.342-.052-.548-.267-.57-.281-.028-.421.21-.496.813l-.028.253-.865-.108zM276.3238 565.6191c0 .364.297.663.658.663.366 0 .663-.299.663-.663 0-.374-.297-.658-.663-.658-.361 0-.658.284-.658.658M299.6306 460.9754c.026.373.348.645.713.613.365-.034.629-.356.604-.726-.038-.364-.356-.626-.72-.593-.365.032-.632.346-.597.706M274.2751 460.8484c0 .365.298.655.662.655.363 0 .661-.29.661-.655 0-.365-.298-.659-.661-.659-.364 0-.662.294-.662.659M270.284 463.9024c.068.13.089.192.138.308.208.515.244.787.16 1.127-.107.408-.359.669-.803.846-.761.314-1.371.039-1.688-.747-.202-.492-.233-1.175-.077-1.889l.171-.767c.214-1.034.22-1.127.071-1.492-.138-.356-.342-.496-.561-.402-.185.069-.266.252-.199.505.035.131.069.238.189.538l-.832.247c-.193-.486-.204-.509-.255-.753-.102-.579.18-1.066.734-1.29.729-.29 1.406.009 1.715.78.213.519.216.992.013 1.955l-.164.767c-.185.697-.187.968-.034 1.356.152.374.357.534.601.435.328-.131.344-.369.094-.986l-.097-.239.824-.299zM262.2455 462.4616l2.88 5.645-1.978.996-.372-.73 1.184-.608-.946-1.851-.775.406-.377-.748.776-.393-.806-1.58-1.114.565-.378-.734 1.906-.968z" fill="#bc9b6a"/>
    <path d="M257.2755 470.1586l.497-.346-1.933-2.23 1.436 2.576zm1.052.277l-.655.459.683 1.261-.706.492-2.954-5.664.929-.655 4.345 4.696-.701.491-.941-1.08z" fill="#bc9b6a" fill-rule="evenodd"/>
    <path d="M254.68 475.065l-1.613 1.398-.54-.622.942-.824-3.615-4.161.668-.579 4.158 4.788z" fill="#bc9b6a"/>
    <path d="M242.7098 487.6864c.311.178.501.154.629-.066.133-.234.054-.402-.259-.584l-3.331-1.922c-.313-.178-.505-.154-.632.066-.132.228-.055.402.258.584l3.335 1.922zm-3.461-.977c-.65-.38-.777-.487-.927-.768-.17-.336-.143-.78.081-1.178.226-.379.594-.626.972-.65.322-.014.476.052 1.128.421l2.695 1.557c.654.374.778.477.928.772.181.337.152.781-.071 1.164-.224.393-.596.637-.983.65-.32.019-.468-.037-1.124-.42l-2.699-1.548z" fill="#bc9b6a" fill-rule="evenodd"/>
    <path d="M235.8275 490.0242l5.788 2.577-.357.804-2.656-1.183-.355.805-.755-.342.354-.795-1.623-.725-.509 1.146-.756-.332.869-1.955zM237.485 508.1222l-.059.877-5.501-.381-.055.86-.827-.054.179-2.562.826.053-.06.823 5.497.384zM234.43 515.2826l2.903-.145.046.88-6.326.332-.045-.888 2.598-.131-.038-.724-2.599.143-.051-.892 6.331-.328.046.882-2.903.151.038.72zM231.489 520.9342l6.259-.99.344 2.183-.818.13-.205-1.311-2.055.329.133.859-.814.123-.137-.854-1.755.273.2 1.232-.818.14-.334-2.114zM240.4324 538.5382l-.556-1.138.67-.331.17.349.825-.403c.313-.154.366-.183.466-.255.144-.117.19-.298.115-.462-.069-.135-.227-.203-.399-.164-.124.029-.134.036-.507.219l-3.014 1.465c-.498.239-.591.371-.466.626.137.287.346.28.987-.037.118-.055.204-.095.376-.2l.387.797c-.215.119-.324.177-.444.24-.992.476-1.672.334-2.051-.427-.361-.749-.08-1.347.82-1.792l3.019-1.468c.508-.248.756-.328 1.06-.314.376.015.738.229.894.557.138.276.101.589-.12.975l.456-.074.204.427-2.892 1.41zM240.3438 544.5015l5.059-3.815 1.331 1.772-.658.503-.803-1.071-1.657 1.248.523.701-.66.495-.527-.694-1.422 1.073.76.996-.659.494-1.287-1.702z" fill="#bc9b6a"/>
    <path d="M249.1456 547.4617c.272-.24.307-.425.134-.617-.181-.201-.36-.179-.625.066l-2.862 2.577c-.266.24-.302.426-.132.618.179.197.358.175.63-.07l2.855-2.574zm-1.995 2.986c-.56.506-.697.592-1.018.652-.375.054-.786-.11-1.086-.442-.3-.337-.42-.767-.326-1.133.09-.305.195-.436.75-.94l2.315-2.082c.561-.502.696-.586 1.018-.65.375-.056.791.104 1.093.435.298.335.416.759.315 1.131-.089.312-.185.436-.746.946l-2.315 2.083zM251.7179 553.2994l-1.293 1.432.095.084c.35.317.569.287.973-.16.393-.441.467-.536.535-.681.08-.192.022-.375-.219-.589l-.091-.086zm-2.502 1.457l4.243-4.709.655.593-1.8 1.997c.092.091.113.112.213.24l2.2-1.684.707.633-2.486 1.836c-.037.6-.164.858-.696 1.447-.358.4-.65.604-.983.72-.473.157-.824.033-1.411-.502l-.642-.571z" fill="#bc9b6a" fill-rule="evenodd"/>
    <path d="M259.0151 558.3469l-1.088-.659.385-.636.335.196.47-.782c.18-.298.211-.349.246-.466.065-.177.004-.364-.151-.45-.124-.078-.301-.054-.421.076-.089.098-.095.102-.309.458l-1.73 2.876c-.282.473-.292.637-.044.783.266.156.435.042.805-.571.072-.118.121-.197.206-.378l.753.461c-.111.222-.174.32-.241.44-.569.939-1.219 1.192-1.949.753-.708-.422-.805-1.08-.283-1.945l1.725-2.871c.291-.487.46-.689.718-.842.322-.197.743-.207 1.056-.022.265.161.405.444.43.876l.343-.301.409.243-1.665 2.761zM262.0596 563.67l-.789-.389 2.775-5.688.793.386-2.779 5.691z" fill="#bc9b6a"/>
    <path d="M269.1416 562.2966l-.572-.209-.718 2.862 1.29-2.653zm-.375-1.016l.742.272.643-1.287.815.298-2.944 5.674-1.073-.393 1.35-6.248.807.291-.34 1.393z" fill="#bc9b6a" fill-rule="evenodd"/>
    <path d="M284.5622 569.6699l-.881-.065.443-6.321.886.059-.448 6.327zM292.1301 569.5216l-.891.043-.19-3.728-.968 3.794-.762.039-.336-6.331.886-.039.175 3.315.867-3.377.888-.044.331 6.328zM295.859 564.5195c-.028-.148-.043-.206-.058-.338-.088-.541-.064-.814.103-1.13.184-.367.495-.567.97-.648.809-.124 1.347.277 1.475 1.103.087.534-.045 1.211-.348 1.866l-.344.712c-.442.963-.466 1.047-.407 1.436.063.376.225.561.461.525.201-.03.313-.194.306-.455-.002-.135-.012-.245-.063-.572l.869-.04c.08.51.085.542.077.783-.034.592-.413.995-1.005 1.09-.778.124-1.363-.32-1.496-1.146-.091-.553.012-1.01.428-1.904l.327-.71c.339-.639.407-.895.339-1.313-.058-.4-.226-.601-.486-.556-.348.054-.418.279-.313.942l.035.255-.87.1zM302.6258 561.0956l.832-.298 1.883 5.181.813-.301.287.778-2.419.88-.287-.779.781-.275-1.89-5.186zM311.235 564.4921l-.802.389-2.778-5.693.798-.384 2.782 5.688zM312.404 556.7936l.753-.456 2.838 4.724.744-.45.421.712-2.207 1.323-.424-.704.714-.425-2.839-4.724zM321.4286 558.3926l-.703.536-2.845-3.779c-.452-.596-.534-.742-.559-1.07-.022-.374.18-.774.534-1.039.361-.277.795-.357 1.151-.229.3.116.421.229.875.83l2.852 3.778-.71.53-3.064-4.068c-.219-.288-.392-.35-.602-.183-.211.157-.211.342.009.632l3.062 4.062zM322.2455 549.4445l.657-.593 3.687 4.098.643-.582.555.619-1.913 1.72-.557-.612.615-.559-3.687-4.091zM331.1423 549.2515l-5.062-3.816 1.333-1.767.661.499-.8 1.061 1.66 1.255.531-.702.66.503-.531.691 1.421 1.069.754-1.005.656.503-1.283 1.709z" fill="#bc9b6a"/>
    <path d="M335.8142 530.938c-.341-.115-.52-.065-.608.178-.089.255.019.404.355.521l3.617 1.319c.339.123.522.068.611-.171.083-.251-.019-.403-.354-.531l-3.621-1.316zm3.577.372c.711.25.852.338 1.052.588.22.306.272.742.122 1.168-.155.417-.48.723-.844.818-.318.065-.477.036-1.186-.218l-2.925-1.069c-.704-.259-.848-.343-1.05-.594-.233-.311-.281-.752-.131-1.17.153-.426.482-.731.854-.811.315-.066.467-.044 1.185.214l2.923 1.074z" fill="#bc9b6a" fill-rule="evenodd"/>
    <path d="M342.3418 527.338l-6.177-1.426.198-.861 2.829.661.2-.857.803.192-.191.847 1.73.397.278-1.222.806.189-.476 2.08zM337.6443 510.0466l-.049-.884 5.509-.279-.047-.864.826-.047.131 2.572-.826.046-.042-.822-5.502.278zM343.2985 503.7169l-6.257.998-.353-2.191.822-.131.211 1.314 2.053-.323-.143-.864.823-.127.133.861 1.757-.276-.199-1.239.818-.131.335 2.109zM337.2981 496.4168c-.296.094-.442.146-.638.211-.618.224-.76.383-.661.664.098.266.259.294.773.107l3.279-1.188c.516-.201.628-.317.523-.585-.1-.293-.309-.312-.971-.074-.14.057-.212.089-.401.178l-.302-.833c.223-.107.319-.14.463-.192 1.038-.373 1.7-.167 1.997.636.276.782-.06 1.348-1.005 1.693l-3.281 1.193c-.942.346-1.567.126-1.849-.655-.295-.809.08-1.388 1.138-1.781.163-.051.311-.099.634-.206l.301.832zM335.3434 489.9868l-2.607 1.272-.388-.79 5.693-2.778.386.786-2.342 1.145.321.65 2.34-1.136.387.79-5.695 2.774-.384-.791 2.609-1.272-.32-.65zM334.4345 481.3733l.454.748-3.204 1.927 3.804-.917.393.645-5.432 3.269-.455-.753 2.854-1.716-3.39.814-.451-.749 5.427-3.268z" fill="#bc9b6a"/>
    <path d="M326.3534 479.3206c-.266.243-.301.425-.124.617.176.196.353.173.624-.07l2.863-2.572c.261-.243.302-.426.125-.623-.177-.195-.353-.172-.628.076l-2.86 2.572zm2.002-2.993c.555-.505.701-.589 1.02-.641.369-.055.785.108 1.088.44.298.327.412.757.319 1.122-.094.309-.188.444-.748.945l-2.316 2.086c-.553.499-.694.588-1.014.645-.383.061-.798-.103-1.094-.425-.3-.342-.417-.767-.318-1.137.094-.323.182-.439.757-.955l2.306-2.08z" fill="#bc9b6a" fill-rule="evenodd"/>
    <path d="M322.0964 476.6777l-1.584-1.425.545-.609.935.837 3.687-4.101.661.589-4.244 4.709z" fill="#bc9b6a"/>
    <path d="M317.0356 470.9217c-.217.286-.217.476-.011.631.21.159.387.103.601-.187l2.321-3.073c.215-.29.215-.481.01-.636-.21-.163-.386-.093-.604.188l-2.317 3.077zm1.391-3.321c.454-.593.576-.715.88-.827.355-.126.79-.038 1.15.219.356.281.552.674.529 1.043-.024.333-.105.473-.552 1.067l-1.875 2.501c-.455.599-.576.698-.875.823-.362.131-.799.051-1.155-.224-.355-.262-.556-.664-.528-1.048.027-.317.096-.453.554-1.065l1.872-2.489z" fill="#bc9b6a" fill-rule="evenodd"/>
    <path d="M311.2654 465.212l1.143.561-.327.678-.348-.173-.403.818c-.149.319-.176.374-.203.492-.042.177.027.35.187.429.145.07.308.019.419-.107.077-.098.082-.112.269-.486l1.465-3.012c.246-.5.239-.66-.02-.786-.276-.136-.44 0-.751.641-.058.117-.105.206-.171.393l-.795-.393c.093-.235.145-.346.204-.462.481-.983 1.11-1.296 1.877-.918.739.366.894 1.001.449 1.913l-1.469 3.012c-.245.514-.392.72-.638.903-.31.218-.727.271-1.047.111-.285-.131-.449-.411-.51-.841l-.315.341-.421-.21 1.405-2.904zM306.4836 463.7717l-.895 2.469-.831-.3.899-2.473.336-3.816.875.322-.342 2.353 1.253-2.025.903.327-2.198 3.143zM245.3345 479.3954c0 .369.295.659.66.659.367 0 .66-.29.66-.659 0-.37-.293-.66-.66-.66-.365 0-.66.29-.66.66M340.1532 517.5883c.024.368.342.632.704.612.364-.021.638-.343.612-.706-.025-.359-.338-.641-.702-.608-.363.022-.638.343-.614.702M333.1534 539.9354c.039.363.36.626.724.588.364-.037.626-.364.585-.731-.035-.358-.357-.622-.723-.585-.362.037-.629.367-.586.728M236.0065 529.7639c0 .364.293.657.659.657.365 0 .658-.293.658-.657 0-.364-.293-.665-.658-.665-.366 0-.659.301-.659.665M234.9297 500.1671c0 .365.296.66.664.66.362 0 .661-.295.661-.66 0-.359-.299-.655-.661-.655-.368 0-.664.296-.664.655M284.7912 541.8224v.89c-1.253 1.353-4.435 5.477-1.618 9.339.473 3.498 2.138 4.706 2.61 5.323.467.626.625 2.353 1.615 2.084.997-.254 1.148-.515 1.517-.773.364-.263.364-1.623.416-2.564.053-.942.154-2.658 1.197-3.758 1.047-1.094 2.455-4.488.682-6.675-1.608-1.997-1.5-3.292-1.232-3.866h-5.187z" fill="#bc9b6a"/>
  </g>
  <g clip-path="url(#b)" transform="matrix(3.93691 0 0 -3.93691 -897.63498 2254.8124)">
    <g clip-path="url(#c)">
      <path d="M290.8503 545.2114c-1.365-1.501-2.353-2.29-2.353-3.021v-1.569m.154 18.219c-.256-.367-.766-4.466.053-9.132.365-2.09-.624-2.509-1.564-4.388-.942-1.877-1.357-2.876-1.151-4.019m-2.768 11.332c-.102-1.727-.517-5.956 3.239-8.771m.837 15.654c.314-.472-.106-7.41-.157-8.507-.054-1.092-2.038-2.871-2.296-5.689" fill="#bc9b6a" stroke="#002b54" stroke-width=".461" stroke-miterlimit="3.86400008"/>
    </g>
  </g>
  <g clip-path="url(#d)" transform="matrix(3.93691 0 0 -3.93691 -897.63498 2254.8124)">
    <path d="M284.7912 541.8224v.89c-1.253 1.353-4.435 5.477-1.618 9.339.473 3.498 2.138 4.706 2.61 5.323.467.626.625 2.353 1.615 2.084.997-.254 1.148-.515 1.517-.773.364-.263.364-1.623.416-2.564.053-.942.154-2.658 1.197-3.758 1.047-1.094 2.455-4.488.682-6.675-1.608-1.997-1.5-3.292-1.232-3.866h-5.187z" fill="none" stroke="#002b54" stroke-width=".461" stroke-miterlimit="3.86400008"/>
    <path d="M322.2489 507.2299c.677-1.258 1.51-3.76-2.298-4.489m-65.813 3.914c-.838-1.193-1.361-1.881-1.361-3.185" fill="none" stroke="#002b54" stroke-width=".461" stroke-linejoin="round" stroke-miterlimit="3.86400008"/>
    <path d="M249.4086 502.2671c-2.09.78-1.569 2.091-1.361 2.815.209.728 1.149 2.612 1.878 3.657 1.777.725 3.028-.528 4.178-2.095 1.775.94 5.948.636 6.156-5.425-2.189-2.716-5.634-3.811-4.906-6.682 5.952-1.983 24.427 2.717 26.202.112-.105-2.721.309-4.395.209-5.752 2.085 0 7.404.479 10.117.162-.103 2.814-.198 5.59-.198 5.59 2.814 4.064 20.135-4.54 29.639 2.353-1.464 1.675-1.238 1.084-2.505 1.192-1.246.103-6.264 2.922-2.607 8.342 2.235 3.321 5.429 1.885 6.061.636 1.875 2.086 3.02 2.395 4.377 1.354.416-1.46.313-2.087.523-3.341.207-1.253-.311-2.502-3.133-3.858.838 1.455.94 2.132 1.046 3.334-2.61-2.188-5.638-3.965-6.267-2.296-.624 1.674 3.034 1.993 1.256 3.765-1.773 1.767-4.903-3.971-.209-7.52 1.803-1.361 1.672-1.776 1.564-3.662-.102-1.87 0-2.815 0-4.063 0-1.254-1.411-1.576-3.857-1.988-6.266-1.043-15.662.108-21.194 1.053.941-2.615 2.297-4.387 2.091-5.644-.21-1.249-.94-1.465-6.477-.622-5.531.832-11.058-.422-13.884-1.259-2.816-.828-3.547.632-2.607 1.67.937 1.047 2.089 3.549 2.193 5.643-5.324.212-17.655-3.521-24.74-.214-.782.369-.523 1.669-.627 2.927-.105 1.258-.414 3.76.737 4.588 1.146.841 2.815 1.884 4.689 2.193.421 1.567.109 1.884-.103 2.619-1.456-.94-4.907-.735-4.907 1.557-1.04 1.146-1.563 1.356-2.921 1.459-.358-.799-.522-1.459-.413-2.6" fill="#fff"/>
    <path d="M249.4086 502.2671c-2.09.78-1.569 2.091-1.361 2.815.209.728 1.149 2.612 1.878 3.657 1.777.725 3.028-.528 4.178-2.095 1.775.94 5.948.636 6.156-5.425-2.189-2.716-5.634-3.811-4.906-6.682 5.952-1.983 24.427 2.717 26.202.112-.105-2.721.309-4.395.209-5.752 2.085 0 7.404.479 10.117.162-.103 2.814-.198 5.59-.198 5.59 2.814 4.064 20.135-4.54 29.639 2.353-1.464 1.675-1.238 1.084-2.505 1.192-1.246.103-6.264 2.922-2.607 8.342 2.235 3.321 5.429 1.885 6.061.636 1.875 2.086 3.02 2.395 4.377 1.354.416-1.46.313-2.087.523-3.341.207-1.253-.311-2.502-3.133-3.858.838 1.455.94 2.132 1.046 3.334-2.61-2.188-5.638-3.965-6.267-2.296-.624 1.674 3.034 1.993 1.256 3.765-1.773 1.767-4.903-3.971-.209-7.52 1.803-1.361 1.672-1.776 1.564-3.662-.102-1.87 0-2.815 0-4.063 0-1.254-1.411-1.576-3.857-1.988-6.266-1.043-15.662.108-21.194 1.053.941-2.615 2.297-4.387 2.091-5.644-.21-1.249-.94-1.465-6.477-.622-5.531.832-11.058-.422-13.884-1.259-2.816-.828-3.547.632-2.607 1.67.937 1.047 2.089 3.549 2.193 5.643-5.324.212-17.655-3.521-24.74-.214-.782.369-.523 1.669-.627 2.927-.105 1.258-.414 3.76.737 4.588 1.146.841 2.815 1.884 4.689 2.193.421 1.567.109 1.884-.103 2.619-1.456-.94-4.907-.735-4.907 1.557-1.04 1.146-1.563 1.356-2.921 1.459-.358-.799-.522-1.459-.413-2.6z" fill="none" stroke="#002b54" stroke-width=".461" stroke-linejoin="round" stroke-miterlimit="3.86400008"/>
    <path d="M247.7682 503.7321c.107 1.229 1.714 1.517 2.339 1.266.246-.098-1.012-.906-.61-2.834 0 0-1.768 1.125-1.729 1.568M253.9811 501.8006c-.312.131-1.535 1.078-.31 2.01 1.853 1.41 3.711-.867 4.126-1.751 0 0 .457-.538-1.954-.699-1.451-.096-1.862.44-1.862.44M324.8122 504.7116c.873.779 1.439 1.034 2.371.826.402-.089-.161-2.008-.804-2.731-.906-1.019-2.249-1.365-2.088-1.044 1.35 2.701.521 2.949.521 2.949M255.2476 495.8068c-.369-1.023.803-1.607.803-1.607s-1.044.081-2.652.531c-.925.259-1.152.664-.883 1.398.697 1.901 5.624 3.133 5.624 3.133s-2.169-1.447-2.892-3.455" fill="#002b54"/>
    <path d="M296.4274 489.9499c-1.775.576-3.412.682-4.225-.109-1.88-1.827 5.635-2.3 6.21-5.484m-20.719 5.433c1.254.104 3.878.408 4.018-.523.207-1.361-4.489-3.704-5.954-4.751" fill="#fff" stroke="#002b54" stroke-width=".461" stroke-linejoin="round" stroke-miterlimit="3.86400008"/>
    <path d="M256.4452 492.1754c.263-.037.538-.07.492-.439-.023-.15-.104-.262-.241-.3-.086-.022-.186-.009-.344.01l-.268.042.106.724.255-.037zm-.065-1.314c.389-.047.628-.056.879.102.081.062.303.216.364.674.015.099.071.51-.247.796-.217.195-.489.238-.744.266l-1.04.15-.369-2.624.673-.098.109.786.375-.052zM259.3588 491.8951c.169-.01.361-.019.467-.093.039-.034.119-.122.114-.272-.006-.103-.055-.234-.195-.281-.093-.047-.205-.037-.456-.028l-.23.02.037.668.263-.014zm-.907.594l-.143-2.642.676-.038.048.893.344-.018.436-.917.736-.037-.491 1.033c.367.089.558.398.581.73.012.294-.095.528-.248.674-.254.243-.61.261-.899.276l-1.04.046zM262.5529 491.9789c.429.042.636-.308.668-.743.011-.225-.012-.459-.151-.631-.06-.075-.194-.192-.4-.206-.414-.024-.639.308-.674.766-.026.435.153.782.557.814m-.035.58c-.24-.014-.56-.088-.846-.36-.387-.374-.401-.841-.387-1.09.024-.369.169-.715.436-.963.363-.332.77-.336.983-.322.245.018.564.084.845.365.391.378.4.85.382 1.089-.051.743-.579 1.337-1.413 1.281" fill="#002b54" fill-rule="evenodd"/>
    <path d="M266.0988 491.6l.051-.528.488.06c-.008-.27-.285-.396-.505-.425-.525-.047-.668.436-.696.73-.022.229.002.458.155.631.097.117.265.202.433.224.392.033.595-.252.655-.336l.438.406c-.147.156-.498.566-1.218.487-.853-.089-1.241-.772-1.167-1.52.084-.799.65-1.299 1.431-1.211.433.042.577.257.63.346l.025-.238.513.065-.146 1.426-1.087-.117z" fill="#002b54"/>
    <path d="M269.1535 492.6287c.166.024.359.043.476-.018.042-.019.137-.079.154-.239.013-.112-.012-.243-.141-.318-.085-.051-.197-.065-.442-.098l-.228-.023-.083.664.264.032zm-1.002.431l.322-2.633.672.079-.106.894.34.042.584-.837.731.098-.656.93c.343.155.481.491.441.828-.034.281-.182.496-.355.618-.294.191-.647.153-.939.112l-1.034-.131z" fill="#002b54" fill-rule="evenodd"/>
    <path d="M272.3159 491.465l-.076.613 1.046.135-.064.505-1.045-.127-.053.426 1.319.159-.061.534-1.986-.244.323-2.633 2.096.258-.065.551-1.434-.177zM275.6129 492.3441c.294-.015.379-.019.457-.098.018-.029.034-.071.04-.108.007-.07-.024-.135-.08-.187-.094-.08-.263-.112-.343-.117-.431-.046-.638.169-.758.295l-.459-.449c.331-.384.88-.439 1.248-.393.558.051 1.127.35 1.053 1.01-.059.562-.471.641-.594.669-.113.018-.147.032-.554.046-.272.015-.396.019-.463.071-.039.027-.07.084-.081.126-.016.164.157.248.349.276.36.032.576-.173.689-.276l.424.411c-.311.341-.769.426-1.17.385-.551-.061-1.014-.352-.955-.946.022-.21.125-.407.302-.528.211-.145.477-.164.713-.182l.182-.005zM278.7983 492.5913c.292-.037.383-.046.449-.14.02-.023.032-.065.032-.102 0-.075-.033-.136-.098-.178-.101-.075-.267-.094-.35-.094-.432-.004-.621.22-.725.365l-.501-.412c.299-.411.834-.509 1.209-.5.561.01 1.152.257 1.137.916-.009.566-.413.683-.536.721-.109.033-.148.033-.543.094-.272.032-.393.051-.457.111-.042.033-.068.076-.068.131 0 .154.178.23.37.239.359.005.562-.225.662-.328l.452.37c-.277.37-.721.491-1.123.486-.557-.014-1.046-.261-1.039-.856.006-.214.094-.416.256-.556.198-.159.466-.206.7-.248l.173-.019z" fill="#002b54"/>
    <path d="M283.6364 486.7604l.447-.884-.635-.098.188.982zm-.447.814l-.576-2.759.661.088.074.374.975.131.172-.322.711.093-1.361 2.484-.656-.089z" fill="#002b54" fill-rule="evenodd"/>
    <path d="M287.6159 487.8545l.027-1.58-.994 1.562-.652-.015.051-2.651.63.014-.024 1.589.983-1.566.661.005-.044 2.656-.638-.014z" fill="#002b54"/>
    <path d="M290.6566 487.1673c.208-.029.542-.061.638-.477.028-.122.028-.248.019-.37-.01-.097-.024-.172-.049-.257-.14-.397-.447-.388-.741-.369l-.276.028.131 1.469.278-.024zm-.889.674l-.229-2.652.706-.056c.457-.042.732-.066.978.009.467.126.629.5.692.664.058.159.091.323.109.486.043.468-.1.828-.275 1.025-.309.365-.776.406-1.431.467l-.55.057z" fill="#002b54" fill-rule="evenodd"/>
    <path d="M298.8377 492.1428c.285-.079.365-.103.416-.206.015-.028.019-.061.015-.112-.008-.066-.057-.117-.125-.159-.11-.06-.277-.046-.357-.028-.428.061-.576.313-.66.468l-.556-.318c.229-.459.744-.646 1.113-.697.554-.07 1.174.074 1.269.734.08.561-.296.739-.414.786-.103.061-.142.07-.528.182-.259.075-.374.122-.431.177-.032.043-.053.095-.051.151.029.149.218.205.407.177.356-.047.515-.299.603-.435l.508.304c-.218.398-.638.59-1.043.655-.544.069-1.069-.098-1.15-.683-.026-.21.023-.44.164-.593.166-.193.423-.276.643-.351l.177-.052zM301.6013 491.2869l.084.603 1.043-.14.075.51-1.041.154.054.417 1.321-.179.071.525-1.972.271-.374-2.633 2.096-.286.074.557-1.431.201z" fill="#002b54"/>
    <path d="M305.146 492.4653c.169-.014.361-.037.464-.116.041-.034.121-.117.102-.272-.007-.103-.061-.229-.201-.275-.098-.034-.211-.034-.458-.015l-.224.038.053.659.264-.019zm-.885.627l-.23-2.642.671-.056.075.892.341-.027.407-.935.734-.075-.451 1.052c.37.084.573.378.601.72.028.285-.073.524-.22.678-.248.253-.601.271-.898.299l-1.03.094z" fill="#002b54" fill-rule="evenodd"/>
    <path d="M308.6348 492.732l-.51-1.758-.508 1.758h-.663l.802-2.652h.743l.805 2.652h-.669zM310.8448 492.7183h-.69l-.014-2.651h.687l.017 2.651zM314.218 492.2598c-.075.089-.198.258-.472.393-.154.065-.344.107-.57.107-.22 0-.623-.042-.948-.392-.32-.347-.347-.748-.347-.94 0-.725.458-1.418 1.332-1.418.358 0 .706.136.954.389.019.028.045.051.07.084l-.472.421c-.075-.103-.225-.309-.529-.309-.336 0-.645.258-.645.824 0 .476.274.757.589.757.295 0 .456-.201.547-.318l.491.402zM315.7431 490.8521l-.114.599 1.03.201-.097.519-1.036-.206-.083.421 1.305.253-.1.527-1.962-.383.501-2.605 2.081.399-.113.547-1.412-.272z" fill="#002b54"/>
    <path d="M291.773 492.246h-10.234M276.3366 495.5804c0 .229-.119.694.42.944h21.605c.469-.068.415-.82.415-1.049" fill="none" stroke="#002b54" stroke-width=".461" stroke-miterlimit="3.86400008"/>
    <path d="M278.8781 496.719v1.761c0 .228.188.415.418.415h2.071c.229 0 .416-.187.416-.415v-1.761M279.1725 499.8909h2.341" fill="none" stroke="#002b54" stroke-width=".31299999" stroke-miterlimit="3.86400008"/>
    <path d="M286.4821 499.8753h2.342M286.1377 496.5225v1.953c0 .229.188.416.418.416h2.071c.229 0 .416-.187.416-.416v-1.953" fill="#fff" stroke="#002b54" stroke-width=".31299999" stroke-miterlimit="3.86400008"/>
    <path d="M293.2772 496.6314v1.848c0 .229.188.416.419.416h2.07c.229 0 .416-.187.416-.416v-1.848M293.5979 499.8791h2.342" fill="none" stroke="#002b54" stroke-width=".31299999" stroke-miterlimit="3.86400008"/>
    <path d="M279.9367 502.0886c.275.013.724.113 1.074.237.228.081.425.288.425.288l-.019-2.769s-.038-.621.374-1.034v-2.269h-2.922v2.269c.41.413.371 1.034.371 1.034l.013 2.144s.122.074.684.1z" fill="none" stroke="#002b54" stroke-width=".461" stroke-linejoin="round" stroke-miterlimit="3.86400008"/>
    <path d="M280.4612 503.9125c-.924-.345-1.207-.325-1.207-.325v2.324s.445.486 1.02.823c.632.371 1.136.638 1.136.638v-2.587s-.112-.561-.949-.873z" fill="none" stroke="#002b54" stroke-width=".461" stroke-miterlimit="3.86400008"/>
    <path d="M280.3769 508.2979c.396.223.895.523 1.02.798 0 0 .02.425.02.889 0 .36.011.676.142 1.06.172.089.258.313.293.57.091.133.21.279.346.439h-3.443c.082-.09-.139-.186-.075-.261.029-.365.118-.706.386-.777.001-.205.059-.36.136-.471.028-.185.028-.371.038-.56.009-.153.015-2.294.015-2.294s.73.386 1.122.607zM288.6882 508.1213l.017-8.232s-.038-.622.373-1.033v-2.315h-2.922v2.315c.411.411.372 1.033.372 1.033l.012 8.257s.203-.037 1.015-.037c1.037 0 1.137.025 1.137.025M288.6295 509.8074c.021.348 0 .854.133 1.238.171.088.255.313.294.57.091.133.206.279.349.439h-3.747c.084-.091.159-.187.222-.261.029-.365.122-.707.384-.777.005-.206.062-.36.144-.472.02-.185.019-.535.035-.724 0 0 .297-.091 1.137-.075.838.016 1.049.062 1.049.062zM293.6685 508.9331s-.005.875-.017 1.069c-.025.348-.011.676-.142 1.06-.171.088-.258.312-.294.57-.09.133-.209.279-.345.438h3.653c-.083-.09-.071-.186-.136-.26-.027-.365-.117-.707-.385-.777-.001-.206-.059-.36-.136-.472-.028-.185-.028-.37-.038-.559-.009-.154-.014-2.318-.014-2.318s-.191.238-.603.375-.774.225-1.187.512c-.188.131-.361.45-.361.45" fill="none" stroke="#002b54" stroke-width=".461" stroke-linejoin="round" stroke-miterlimit="3.86400008"/>
    <path d="M294.7919 506.8912c-.91.38-1.145.546-1.145.546v-2.324s-.273-.641.67-1.172c.639-.359 1.486-.478 1.486-.478v2.427s-.139.637-1.011 1.001zM293.6623 502.5916c-.005-2.458-.016-2.747-.016-2.747s.043-.621-.368-1.034v-2.27h2.918v2.27c-.416.413-.365 1.034-.365 1.034s-.013-.444-.019 2.014c0 0-.202-.007-1.164.327-.885.306-.986.406-.986.406z" fill="none" stroke="#002b54" stroke-width=".461" stroke-miterlimit="3.86400008"/>
    <path d="M278.6711 512.0467c0-.481.079-1.044.496-1.044.233 0 .358.03.485.248 0 0 .219-.51.626-.51.406 0 .623.51.623.51.129-.218.248-.248.481-.248.421 0 .498.563.498 1.044m-2.815-1.001c0-1.02 1.224-.829 1.224-.291m-1.618 1.292c0-.481.079-1.044.496-1.044.233 0 .358.03.485.248" fill="none" stroke="#002b54" stroke-width=".31299999" stroke-linecap="round" stroke-linejoin="round" stroke-miterlimit="3.86400008"/>
    <path d="M279.2023 512.0642c0-.407.037-.814.461-.814.455 0 .406.498.406.797-.223 0-.601.017-.867.017zM281.4897 511.045c0-1.02-1.226-.828-1.226-.29M281.3472 512.0642c0-.407-.031-.814-.456-.814-.459 0-.408.498-.408.797.224 0 .602.017.864.017z" fill="none" stroke="#002b54" stroke-width=".31299999" stroke-miterlimit="3.86400008"/>
    <path d="M285.8985 511.9894c0-.481.08-1.044.498-1.044.236 0 .351.03.479.248 0 0 .225-.51.623-.51.406 0 .633.51.633.51.133-.218.248-.248.479-.248.417 0 .494.563.494 1.044M286.2911 510.9877c0-1.02 1.223-.828 1.223-.291" fill="none" stroke="#002b54" stroke-width=".31299999" stroke-linejoin="round" stroke-miterlimit="3.86400008"/>
    <path d="M286.4314 512.007c0-.407.029-.814.458-.814.459 0 .407.498.407.797-.224 0-.606.017-.865.017zM288.7185 510.9877c0-1.02-1.23-.828-1.23-.291M288.5731 512.007c0-.407-.025-.814-.458-.814-.456 0-.402.498-.402.797.219 0 .599.017.86.017z" fill="none" stroke="#002b54" stroke-width=".31299999" stroke-miterlimit="3.86400008"/>
    <path d="M294.745 510.7679c0-.538 1.224-.729 1.224.291M293.1546 512.06c0-.481.077-1.044.497-1.044.233 0 .353.03.482.248 0 0 .217-.51.622-.51.407 0 .627.51.627.51.127-.218.251-.248.485-.248.417 0 .495.563.495 1.044" fill="none" stroke="#002b54" stroke-width=".31299999" stroke-linecap="round" stroke-linejoin="round" stroke-miterlimit="3.86400008"/>
    <path d="M295.832 512.0775c0-.407-.037-.814-.461-.814-.455 0-.406.498-.406.797.223 0 .601.017.867.017zM293.5449 511.0583c0-1.02 1.226-.828 1.226-.291M293.687 512.0775c0-.407.031-.814.456-.814.46 0 .408.498.408.797-.224 0-.602.017-.864.017z" fill="none" stroke="#002b54" stroke-width=".31299999" stroke-miterlimit="3.86400008"/>
    <path d="M281.9726 512.0217c1.302-2.535 2.009-3.919 5.662-3.919 4.123 0 4.722 2.114 5.484 3.791-2.268-1.644-3.68-2.14-5.591-2.14-1.899 0-3.233.338-5.555 2.268" fill="#fff"/>
    <path d="M281.9726 512.0217c1.302-2.535 2.009-3.919 5.662-3.919 4.123 0 4.722 2.114 5.484 3.791-2.268-1.644-3.68-2.14-5.591-2.14-1.899 0-3.233.338-5.555 2.268z" fill="none" stroke="#002b54" stroke-width=".461" stroke-miterlimit="3.86400008"/>
    <path d="M293.6377 509.7724c-.701-.804-1.103-1.739.042-2.352.921-.495 1.983-.706 2.1-1.543.528.526.697 1.534-.381 2.095-.463.246-2.205.505-1.761 1.8" fill="#fff"/>
    <path d="M293.6377 509.7724c-.701-.804-1.103-1.739.042-2.352.921-.495 1.983-.706 2.1-1.543.528.526.697 1.534-.381 2.095-.463.246-2.205.505-1.761 1.8z" fill="none" stroke="#002b54" stroke-width=".461" stroke-miterlimit="3.86400008"/>
    <path d="M293.6173 505.1255c-.528-.463-.58-1.254-.508-1.717.071-.454 1.473-2.348 7.665-1.263-.88.141-.912.182-1.16.426.462.485.982.556 1.125 1.015-1.999-.599-7.738-.389-7.069 1.552l-.053-.013z" fill="#fff"/>
    <path d="M293.6173 505.1255c-.528-.463-.58-1.254-.508-1.717.071-.454 1.473-2.348 7.665-1.263-.88.141-.912.182-1.16.426.462.485.982.556 1.125 1.015-1.999-.599-7.738-.389-7.069 1.552l-.053-.013z" fill="none" stroke="#002b54" stroke-width=".461" stroke-linecap="round" stroke-linejoin="round" stroke-miterlimit="3.86400008"/>
    <path d="M281.4507 510.119c.314-.968-.079-1.441-1.643-2.086-1.566-.654-1.044-1.964-.703-2.381.31.866 2.15 1.387 2.734 2.142.526.683.293 1.773-.388 2.325" fill="#fff"/>
    <path d="M281.4507 510.119c.314-.968-.079-1.441-1.643-2.086-1.566-.654-1.044-1.964-.703-2.381.31.866 2.15 1.387 2.734 2.142.526.683.293 1.773-.388 2.325z" fill="none" stroke="#002b54" stroke-width=".461" stroke-linejoin="round" stroke-miterlimit="3.86400008"/>
    <path d="M281.4507 505.396c.548-.735.728-2.6-.446-3.049-2.087-.795-3.224.565-6.282-1.819 1.13 2.16 2.897 2.717 3.737 2.89.989.206 3.279.388 2.991 1.978" fill="#fff"/>
    <path d="M281.4507 505.396c.548-.735.728-2.6-.446-3.049-2.087-.795-3.224.565-6.282-1.819 1.13 2.16 2.897 2.717 3.737 2.89.989.206 3.279.388 2.991 1.978z" fill="none" stroke="#002b54" stroke-width=".461" stroke-linejoin="round" stroke-miterlimit="3.86400008"/>
  </g>
  <g clip-path="url(#e)" transform="matrix(3.93691 0 0 -3.93691 -897.63498 2254.8124)">
    <g clip-path="url(#f)">
      <path d="M278.5797 512.6733h18.058c.12 0 .21-.096.21-.216v-.175c0-.112-.09-.204-.21-.204h-18.058c-.11 0-.21.092-.21.204v.175c0 .12.1.216.21.216zM277.9041 514.6281h19.154c.122 0 .211-.097.211-.211v-.163c0-.113-.089-.207-.211-.207h-19.154c-.115 0-.209.094-.209.207v.163c0 .114.094.211.209.211z" fill="none" stroke="#002b54" stroke-width=".31299999" stroke-miterlimit="3.86400008"/>
    </g>
  </g>
  <g clip-path="url(#g)" transform="matrix(3.93691 0 0 -3.93691 -897.63498 2254.8124)">
    <path d="M296.848 512.4569v-.174c0-.113-.091-.204-.211-.204H278.58c-.11 0-.211.091-.211.204v.211c-.202.026-.365.201-.365.418v.971c0 .037-.255.079-.259.295v.239c0 .114.093.211.207.211h19.119c.111 0 .205-.097.205-.211v-.239c0-.114-.089-.236-.198-.236 0 0-.031-.022-.031-.059v-.971c0-.157-.065-.294-.194-.368 0 0-.005-.05-.005-.087z" fill="none" stroke="#002b54" stroke-width=".461" stroke-miterlimit="3.86400008"/>
    <path d="M281.6592 514.7135c0 3.242 2.628 5.661 5.868 5.661 3.244 0 5.879-2.419 5.879-5.661 0-.082 2.556-.026 2.556-.026-.024 4.648-3.795 8.007-8.452 8.007-4.658 0-8.43-3.359-8.43-8.007l2.579.026z" fill="#fff"/>
    <path d="M281.6592 514.7135c0 3.242 2.628 5.661 5.868 5.661 3.244 0 5.879-2.419 5.879-5.661 0-.082 2.556-.026 2.556-.026-.024 4.648-3.795 8.007-8.452 8.007-4.658 0-8.43-3.359-8.43-8.007l2.579.026z" fill="none" stroke="#002b54" stroke-width=".461" stroke-miterlimit="3.86400008"/>
    <path d="M320.2914 457.7234h.191c.091 0 .153.013.186.041.033.026.05.062.05.107 0 .029-.008.055-.024.078s-.038.04-.067.05c-.028.012-.08.017-.158.017h-.178v-.293zm-.157-.549v.974h.334c.115 0 .197-.008.248-.026.051-.019.092-.05.123-.095s.046-.092.046-.143c0-.07-.026-.132-.077-.185-.05-.053-.118-.082-.202-.089.035-.015.062-.032.083-.051.039-.039.087-.104.144-.193l.118-.192h-.191l-.086.154c-.069.121-.124.196-.165.226-.028.023-.071.034-.126.034h-.092v-.414h-.157zm.397 1.257c-.127 0-.251-.033-.371-.098-.121-.065-.215-.158-.283-.28-.068-.12-.102-.247-.102-.378 0-.13.033-.256.1-.375.067-.12.16-.213.28-.28.12-.066.246-.1.376-.1s.255.034.375.1c.12.067.213.16.28.28.066.119.099.245.099.375 0 .131-.034.258-.101.378-.068.122-.163.215-.283.28-.12.065-.244.098-.37.098m0 .149c.152 0 .3-.038.445-.116.144-.078.257-.19.338-.336.08-.145.121-.296.121-.453 0-.156-.04-.306-.12-.45-.079-.144-.19-.256-.334-.336-.143-.079-.294-.119-.45-.119-.157 0-.307.04-.451.119-.143.08-.255.192-.335.336-.08.144-.12.294-.12.45 0 .157.04.308.121.453.082.146.195.258.339.336.146.078.294.116.446.116" fill="#002b54"/>
    <path d="M254.1376 506.6549c-.838-1.193-1.361-1.88-1.361-3.185M322.2489 507.2299c.677-1.258 1.51-3.76-2.298-4.489" fill="none" stroke="#002b54" stroke-width=".461" stroke-linejoin="round" stroke-miterlimit="3.86400008"/>
  </g>
</svg>
