<?xml version="1.0" encoding="UTF-8" standalone="no"?>
<!-- Generator: Adobe Illustrator 15.0.2, SVG Export Plug-In . SVG Version: 6.00 Build 0)  -->

<svg
   xmlns:i="&amp;ns_ai;"
   xmlns:dc="http://purl.org/dc/elements/1.1/"
   xmlns:cc="http://creativecommons.org/ns#"
   xmlns:rdf="http://www.w3.org/1999/02/22-rdf-syntax-ns#"
   xmlns:svg="http://www.w3.org/2000/svg"
   xmlns="http://www.w3.org/2000/svg"
   xmlns:sodipodi="http://sodipodi.sourceforge.net/DTD/sodipodi-0.dtd"
   xmlns:inkscape="http://www.inkscape.org/namespaces/inkscape"
   version="1.1"
   x="0px"
   y="0px"
   width="469px"
   height="468.958px"
   viewBox="0 0 469 468.958"
   enable-background="new 0 0 469 468.958"
   xml:space="preserve"
   id="svg6292"
   inkscape:version="0.48.4 r9939"
   sodipodi:docname="GeorgiaTechSeal.svg"><title
   id="title7468">Seal of the Georgia Institute of Technology</title><metadata
   id="metadata6595"><rdf:RDF><cc:Work
       rdf:about=""><dc:format>image/svg+xml</dc:format><dc:type
         rdf:resource="http://purl.org/dc/dcmitype/StillImage" /><dc:title>Seal of the Georgia Institute of Technology</dc:title></cc:Work></rdf:RDF></metadata><defs
   id="defs6593"><clipPath
     clipPathUnits="userSpaceOnUse"
     id="clipPath4214"><path
       inkscape:connector-curvature="0"
       d="m 227.52,453.133 119.992,0 0,119.987 -119.992,0 0,-119.987 z"
       id="path4216" /></clipPath><clipPath
     clipPathUnits="userSpaceOnUse"
     id="clipPath4192"><path
       inkscape:connector-curvature="0"
       d="m 277.952,514.628 c -0.113,0 -0.208,-0.097 -0.208,-0.211 l 0,0 0,-0.24 c 0.005,-0.215 0.261,-0.257 0.261,-0.293 l 0,0 0,-0.972 c 0,-0.218 0.162,-0.393 0.364,-0.418 l 0,0 0,-0.037 0,-0.174 c 0,-0.113 0.101,-0.204 0.211,-0.204 l 0,0 18.058,0 c 0.119,0 0.21,0.091 0.21,0.204 l 0,0 0,0.174 c 0,0.037 0.005,0.087 0.005,0.087 l 0,0 c 0.129,0.073 0.194,0.21 0.194,0.368 l 0,0 0,0.972 c 0,0.036 0.03,0.057 0.03,0.057 l 0,0 c 0.11,0 0.198,0.123 0.198,0.236 l 0,0 0,0.24 c 0,0.114 -0.092,0.211 -0.205,0.211 l 0,0 -19.118,0 z"
       id="path4194" /></clipPath><clipPath
     clipPathUnits="userSpaceOnUse"
     id="clipPath4198"><path
       inkscape:connector-curvature="0"
       d="M 0,0 612,0 612,792 0,792 0,0 z"
       id="path4200" /></clipPath><clipPath
     clipPathUnits="userSpaceOnUse"
     id="clipPath3972"><path
       inkscape:connector-curvature="0"
       d="m 227.52,453.133 119.992,0 0,119.987 -119.992,0 0,-119.987 z"
       id="path3974" /></clipPath><clipPath
     clipPathUnits="userSpaceOnUse"
     id="clipPath3954"><path
       inkscape:connector-curvature="0"
       d="m 285.783,557.375 c -0.472,-0.617 -2.137,-1.826 -2.611,-5.323 l 0,0 c -2.815,-3.863 0.366,-7.987 1.62,-9.339 l 0,0 0,-0.89 5.186,0 c -0.268,0.574 -0.376,1.868 1.232,3.865 l 0,0 c 1.773,2.188 0.366,5.582 -0.682,6.675 l 0,0 c -1.043,1.1 -1.144,2.815 -1.197,3.759 l 0,0 c -0.052,0.941 -0.052,2.3 -0.416,2.563 l 0,0 c -0.369,0.258 -0.52,0.519 -1.517,0.773 l 0,0 c -0.07,0.019 -0.137,0.028 -0.2,0.028 l 0,0 c -0.814,0 -0.981,-1.53 -1.415,-2.111"
       id="path3956" /></clipPath><clipPath
     clipPathUnits="userSpaceOnUse"
     id="clipPath3960"><path
       inkscape:connector-curvature="0"
       d="M 0,0 612,0 612,792 0,792 0,0 z"
       id="path3962" /></clipPath><clipPath
     clipPathUnits="userSpaceOnUse"
     id="clipPath3824"><path
       inkscape:connector-curvature="0"
       d="m 227.52,453.133 119.992,0 0,119.987 -119.992,0 0,-119.987 z"
       id="path3826" /></clipPath></defs><sodipodi:namedview
   pagecolor="#ffffff"
   bordercolor="#666666"
   borderopacity="1"
   objecttolerance="10"
   gridtolerance="10"
   guidetolerance="10"
   inkscape:pageopacity="0"
   inkscape:pageshadow="2"
   inkscape:window-width="1280"
   inkscape:window-height="1002"
   id="namedview6591"
   showgrid="false"
   inkscape:zoom="1.0064867"
   inkscape:cx="9.0854857"
   inkscape:cy="356.13358"
   inkscape:window-x="-8"
   inkscape:window-y="-8"
   inkscape:window-maximized="1"
   inkscape:current-layer="svg6292" />

<g
   transform="matrix(3.936911,0,0,-3.936911,-897.63498,2254.8124)"
   id="g3820"><g
     id="g3822"
     clip-path="url(#clipPath3824)"><path
       inkscape:connector-curvature="0"
       d="m 228.2354,513.1337 c 0,-32.747 26.541,-59.285 59.274,-59.285 32.748,0 59.287,26.538 59.287,59.285 0,32.732 -26.539,59.271 -59.287,59.271 -32.733,0 -59.274,-26.539 -59.274,-59.271 m 107.015,0.106 c 0,-26.343 -21.355,-47.699 -47.699,-47.699 -26.344,0 -47.699,21.356 -47.699,47.699 0,26.344 21.355,47.699 47.699,47.699 26.344,0 47.699,-21.355 47.699,-47.699"
       style="fill:#ffffff;fill-opacity:1;fill-rule:nonzero;stroke:none"
       id="path3828" /><g
       id="g3830"
       transform="translate(228.2354,513.1337)"><path
         inkscape:connector-curvature="0"
         d="m 0,0 c 0,-32.747 26.541,-59.285 59.274,-59.285 32.748,0 59.287,26.538 59.287,59.285 0,32.732 -26.539,59.271 -59.287,59.271 C 26.541,59.271 0,32.732 0,0 z m 107.015,0.106 c 0,-26.343 -21.355,-47.699 -47.699,-47.699 -26.344,0 -47.699,21.356 -47.699,47.699 0,26.344 21.355,47.699 47.699,47.699 26.344,0 47.699,-21.355 47.699,-47.699 z"
         style="fill:none;stroke:#bc9b6a;stroke-width:0.461;stroke-linecap:butt;stroke-linejoin:round;stroke-miterlimit:3.86400008;stroke-opacity:1;stroke-dasharray:none"
         id="path3832" /></g><path
       inkscape:connector-curvature="0"
       d="m 345.0818,512.5995 c 0,-31.556 -25.58,-57.135 -57.135,-57.135 -31.555,0 -57.136,25.579 -57.136,57.135 0,31.555 25.581,57.135 57.136,57.135 31.555,0 57.135,-25.58 57.135,-57.135"
       style="fill:#ffffff;fill-opacity:1;fill-rule:nonzero;stroke:none"
       id="path3834" /><g
       id="g3836"
       transform="translate(345.0818,512.5995)"><path
         inkscape:connector-curvature="0"
         d="m 0,0 c 0,-31.556 -25.58,-57.135 -57.135,-57.135 -31.555,0 -57.136,25.579 -57.136,57.135 0,31.555 25.581,57.135 57.136,57.135 C -25.58,57.135 0,31.555 0,0 z"
         style="fill:none;stroke:#ffffff;stroke-width:0.48500001;stroke-linecap:butt;stroke-linejoin:miter;stroke-miterlimit:3.86400008;stroke-opacity:1;stroke-dasharray:none"
         id="path3838" /></g><path
       inkscape:connector-curvature="0"
       d="m 317.6978,497.2679 c -0.281,1.204 -4.936,3.162 -4.936,3.162 l 1.234,2.776 c 0,0 4.088,-1.388 5.861,-1.311 1.774,0.077 2.168,5.323 2.237,5.707 0.385,2.159 0.464,5.533 0.422,7.006 -0.091,3.184 -0.665,5.559 -1.087,6.446 -0.832,1.772 -1.983,1.15 -3.341,0.728 -1.351,-0.412 -2.717,-0.833 -2.717,-0.833 l -1.98,3.338 c 0,0 3.236,1.564 4.91,2.607 1.67,1.048 0.206,2.724 -0.837,3.757 -1.046,1.047 -8.146,9.398 -11.508,12.11 -3.37,2.719 -3.737,1.046 -4.988,-2.088 -1.25,-3.131 -1.875,-5.011 -3.961,-10.437 l -3.138,0.626 c 0,0 3.969,10.749 4.6,12.848 0.624,2.083 -0.94,2.607 -1.988,2.815 -0.696,0.136 -1.771,0.649 -4.226,0.973 l -10.108,-0.026 c -1.358,-0.287 -3.096,-0.846 -3.62,-0.947 -1.036,-0.208 -2.611,-0.732 -1.984,-2.815 0.629,-2.099 4.597,-12.848 4.597,-12.848 l -3.135,-0.626 c -2.089,5.426 -2.714,7.306 -3.967,10.437 -1.249,3.134 -1.619,4.807 -4.986,2.088 -3.363,-2.712 -10.463,-11.063 -11.509,-12.11 -1.037,-1.033 -2.502,-2.709 -0.834,-3.757 1.674,-1.043 4.909,-2.607 4.909,-2.607 l -1.982,-3.338 c 0,0 -1.357,0.421 -2.717,0.833 -1.353,0.422 -2.506,1.044 -3.339,-0.728 -0.418,-0.887 -0.992,-3.262 -1.083,-6.446 -0.045,-1.592 0.13,-4.648 0.406,-6.56 l 0.769,-4.237 5.879,-0.605 1.62,0.309 1.593,-3.029 c -1.773,-0.519 -3.34,-1.459 -4.485,-1.983 -1.151,-0.515 -1.398,-2.231 -0.105,-4.382 l 4.283,-5.971 c 1.791,-2.105 3.665,-3.753 6.296,-5.505 3.103,-2.067 9.987,-0.593 9.987,-0.593 l 9.012,-9.751 8.421,9.951 c 0,0 8.515,-0.64 10.578,0.585 2.713,1.62 4.619,3.467 6.267,5.556 0,0 5.22,6.561 4.68,8.875 m -56.858,6.02 -0.858,-0.103 m 54.19,-0.219 0.841,-0.23 m 4.301,-0.988 -1.701,0.377 m 17.739,10.887 c 0,-26.274 -21.298,-47.573 -47.572,-47.573 -26.273,0 -47.572,21.299 -47.572,47.573 0,26.273 21.299,47.572 47.572,47.572 26.274,0 47.572,-21.299 47.572,-47.572"
       style="fill:#bc9b6a;fill-opacity:1;fill-rule:nonzero;stroke:none"
       id="path3840" /><g
       id="g3842"
       transform="translate(317.6978,497.2679)"><path
         inkscape:connector-curvature="0"
         d="m 0,0 c -0.281,1.204 -4.936,3.162 -4.936,3.162 l 1.234,2.776 c 0,0 4.088,-1.388 5.861,-1.311 1.774,0.077 2.168,5.323 2.237,5.707 0.385,2.159 0.464,5.533 0.422,7.006 -0.091,3.184 -0.665,5.559 -1.087,6.446 -0.832,1.772 -1.983,1.15 -3.341,0.728 -1.351,-0.412 -2.717,-0.833 -2.717,-0.833 l -1.98,3.338 c 0,0 3.236,1.564 4.91,2.607 1.67,1.048 0.206,2.724 -0.837,3.757 -1.046,1.047 -8.146,9.398 -11.508,12.11 -3.37,2.719 -3.737,1.046 -4.988,-2.088 -1.25,-3.131 -1.875,-5.011 -3.961,-10.437 l -3.138,0.626 c 0,0 3.969,10.749 4.6,12.848 0.624,2.083 -0.94,2.607 -1.988,2.815 -0.696,0.136 -1.771,0.649 -4.226,0.973 l -10.108,-0.026 c -1.358,-0.287 -3.096,-0.846 -3.62,-0.947 -1.036,-0.208 -2.611,-0.732 -1.984,-2.815 0.629,-2.099 4.597,-12.848 4.597,-12.848 l -3.135,-0.626 c -2.089,5.426 -2.714,7.306 -3.967,10.437 -1.249,3.134 -1.619,4.807 -4.986,2.088 -3.363,-2.712 -10.463,-11.063 -11.509,-12.11 -1.037,-1.033 -2.502,-2.709 -0.834,-3.757 1.674,-1.043 4.909,-2.607 4.909,-2.607 l -1.982,-3.338 c 0,0 -1.357,0.421 -2.717,0.833 -1.353,0.422 -2.506,1.044 -3.339,-0.728 -0.418,-0.887 -0.992,-3.262 -1.083,-6.446 -0.045,-1.592 0.13,-4.648 0.406,-6.56 l 0.769,-4.237 5.879,-0.605 1.62,0.309 1.593,-3.029 c -1.773,-0.519 -3.34,-1.459 -4.485,-1.983 -1.151,-0.515 -1.398,-2.231 -0.105,-4.382 l 4.283,-5.971 c 1.791,-2.105 3.665,-3.753 6.296,-5.505 3.103,-2.067 9.987,-0.593 9.987,-0.593 l 9.012,-9.751 8.421,9.951 c 0,0 8.515,-0.64 10.578,0.585 2.713,1.62 4.619,3.467 6.267,5.556 0,0 5.22,6.561 4.68,8.875 z m -56.858,6.02 -0.858,-0.103 m 54.19,-0.219 0.841,-0.23 M 1.616,4.48 -0.085,4.857 m 17.739,10.887 c 0,-26.274 -21.298,-47.573 -47.572,-47.573 -26.273,0 -47.572,21.299 -47.572,47.573 0,26.273 21.299,47.572 47.572,47.572 26.274,0 47.572,-21.299 47.572,-47.572 z"
         style="fill:none;stroke:#002b54;stroke-width:0.48500001;stroke-linecap:butt;stroke-linejoin:miter;stroke-miterlimit:3.86400008;stroke-opacity:1;stroke-dasharray:none"
         id="path3844" /></g><path
       inkscape:connector-curvature="0"
       d="m 269.9345,474.9352 c 0,0 -0.68,-1.289 -0.895,-2.184 -0.215,-0.896 -0.251,-1.612 -0.251,-1.612 0,0 0.036,-0.286 0.752,-0.573 0.716,-0.287 0.859,-0.107 0.859,-0.107 0,0 0.645,0.573 1.111,1.718 0.465,1.146 0.644,1.863 0.644,1.863 0,0 0.501,-0.252 1.289,-0.538 0.788,-0.286 1.289,-0.394 1.289,-0.394 0,0 -0.322,-0.931 -0.537,-1.969 -0.228,-1.101 -0.179,-1.969 -0.179,-1.969 0,0 0.322,-0.322 0.895,-0.466 0.573,-0.143 0.859,0 0.859,0 0,0 0.502,0.537 0.86,1.791 0.358,1.254 0.43,1.933 0.43,1.933 0,0 0.533,-0.194 1.361,-0.393 0.895,-0.216 1.289,-0.216 1.289,-0.216 0,0 -0.225,-1.151 -0.323,-1.969 -0.138,-1.16 0.104,-1.979 0.104,-1.979 0,0 0.27,-0.321 0.728,-0.394 0.757,-0.121 1,0.061 1,0.061 0,0 0.576,0.637 0.758,2.88 0.182,2.243 -0.152,2.849 -0.424,3.243 -0.273,0.394 -4.041,3.9 -7.488,7.639 -3.94,4.274 -5.547,7.608 -5.547,7.608 l 9.337,0.94 c 0,0 -0.021,-1.086 -0.546,-2.486 -1.091,-2.91 -1.991,-3.368 -2.061,-3.91 -0.092,-0.697 0.212,-1.061 0.848,-1.243 0.637,-0.182 1.763,0.255 2.759,0.516 2.667,0.697 4.91,0.939 4.91,0.939 l 3.729,-3.061 4.062,3.213 c 0,0 1.94,-0.455 3.546,-0.516 1.607,-0.06 2.978,-0.095 3.213,0.819 0.243,0.939 -0.504,2.186 -1.091,3.486 -0.587,1.299 -1.121,2.485 -1.121,2.485 0,0 1.697,-0.424 5.365,-0.848 3.668,-0.425 5.395,-0.485 5.395,-0.485 0,0 -2.394,-4.335 -5.88,-7.487 -1.084,-0.981 -2.639,-2.731 -4.123,-4.184 -1.483,-1.453 -2.849,-2.758 -3.395,-3.364 -0.657,-0.731 -0.515,-2.637 -0.454,-3.304 0.125,-1.381 0.394,-2.486 0.788,-2.91 0,0 0.061,-0.182 0.849,-0.031 0.788,0.152 0.878,0.303 0.878,0.303 0,0 0.213,1.031 0.061,2.243 -0.151,1.213 -0.303,1.789 -0.303,1.789 0,0 0.303,0.03 1.364,0.273 1.061,0.242 1.334,0.363 1.334,0.363 0,0 0.121,-1.06 0.424,-1.97 0.304,-0.909 0.849,-1.788 0.849,-1.788 0,0 0.091,-0.243 0.91,0.03 0.818,0.273 0.788,0.455 0.788,0.455 0,0 0.151,0.788 -0.152,2.061 -0.303,1.273 -0.515,1.879 -0.515,1.879 0,0 0.333,0.061 1.334,0.425 1,0.363 1.242,0.485 1.242,0.485 0,0 0.393,-1.153 0.667,-1.849 0.394,-1.001 1.061,-1.728 1.061,-1.728 0,0 0.091,-0.212 0.91,0.152 0.818,0.363 0.727,0.545 0.727,0.545 0,0 0.03,0.879 -0.424,2.031 -0.455,1.152 -0.728,1.789 -0.728,1.789 0,0 0.243,0.09 1.213,0.575 0.97,0.485 1.273,0.698 1.273,0.698 0,0 0.464,-1.008 0.849,-1.728 0.485,-0.91 1.273,-1.607 1.273,-1.607 0,0 0.182,-0.151 0.848,0.243 0.667,0.394 0.697,0.606 0.697,0.606 0,0 -0.06,0.94 -0.697,2.091 -0.636,1.152 -0.909,1.577 -0.909,1.577 0,0 0.303,0.212 1.152,0.758 0.849,0.545 1.121,0.818 1.121,0.818 0,0 0.613,-0.973 1.091,-1.667 0.607,-0.879 1.425,-1.425 1.425,-1.425 0,0 0.243,-0.121 0.879,0.394 0.637,0.515 0.576,0.697 0.576,0.697 0,0 -0.121,0.667 -0.818,1.728 -0.697,1.061 -1.243,1.607 -1.243,1.607 0,0 0.151,0.121 1.061,0.909 0.909,0.788 1.03,0.97 1.03,0.97 0,0 0.518,-0.756 1.304,-1.516 0.94,-0.909 1.576,-1.212 1.576,-1.212 0,0 0.212,-0.061 0.819,0.546 0.606,0.606 0.485,0.727 0.485,0.727 0,0 -0.212,0.606 -1.061,1.637 -0.849,1.031 -1.394,1.455 -1.394,1.455 0,0 0.272,0.212 1.06,1.091 0.788,0.879 0.819,0.97 0.819,0.97 0,0 0.501,-0.593 1.424,-1.303 1.183,-0.909 1.758,-1.031 1.758,-1.031 0,0 0.152,-0.121 0.698,0.546 0.546,0.667 0.394,0.758 0.394,0.758 0,0 -0.152,0.636 -1.273,1.606 -0.99,0.856 -1.546,1.243 -1.546,1.243 0,0 0.333,0.394 0.939,1.273 0.607,0.879 0.698,1.031 0.698,1.031 0,0 0.775,-0.588 1.667,-1.182 1.091,-0.728 1.788,-0.728 1.788,-0.728 0,0 0.212,-0.03 0.607,0.637 0.393,0.666 0.363,0.818 0.363,0.818 0,0 -0.606,0.758 -1.455,1.364 -0.848,0.606 -1.758,1.091 -1.758,1.091 0,0 0.394,0.637 0.788,1.395 0.394,0.758 0.546,1.121 0.546,1.121 0,0 0.637,-0.483 1.879,-1 1.455,-0.606 1.849,-0.515 1.849,-0.515 0,0 0.117,-0.059 0.546,0.727 0.364,0.667 0.182,0.819 0.182,0.819 0,0 -0.485,0.636 -1.637,1.243 -1.152,0.606 -1.819,0.848 -1.819,0.848 0,0 0.243,0.576 0.576,1.455 0.333,0.879 0.425,1.152 0.425,1.152 0,0 0.793,-0.407 1.97,-0.758 1.425,-0.424 1.879,-0.272 1.879,-0.272 0,0 0.213,0 0.455,0.697 0.243,0.697 0.121,0.879 0.121,0.879 0,0 -0.273,0.485 -1.607,1.03 -1.333,0.546 -2.121,0.667 -2.121,0.667 0,0 0.242,0.697 0.424,1.425 0.182,0.727 0.273,1.273 0.273,1.273 0,0 0.796,-0.258 1.909,-0.485 1.486,-0.303 2.032,-0.061 2.032,-0.061 0,0 0.212,0.031 0.363,0.788 0.152,0.758 0.03,0.849 0.03,0.849 0,0 -0.303,0.425 -1.788,0.819 -1.485,0.394 -2.152,0.394 -2.152,0.394 0,0 0.121,0.697 0.242,1.576 0.122,0.879 0.152,1.273 0.152,1.273 0,0 0.576,-0.242 2.152,-0.303 1.576,-0.061 1.849,0.182 1.849,0.182 0,0 0.243,0.152 0.273,0.909 0.031,0.758 -0.121,0.819 -0.121,0.819 0,0 -0.576,0.364 -2.031,0.576 -1.455,0.212 -1.94,0.121 -1.94,0.121 0,0 0.03,0.758 0,2.092 -0.031,1.333 -0.091,1.818 -0.091,1.818 0,0 0.182,-0.151 1.94,0.061 1.758,0.212 2,0.515 2,0.515 0,0 0.213,0.212 0.122,0.97 -0.091,0.758 -0.243,0.758 -0.243,0.758 0,0 -0.636,0.273 -2.03,0.243 -1.395,-0.031 -2.001,-0.213 -2.001,-0.213 0,0 -0.031,0.576 -0.182,1.486 -0.152,0.909 -0.242,1.273 -0.242,1.273 0,0 0.909,0.03 2.243,0.394 1.333,0.363 1.606,0.667 1.606,0.667 0,0 0.168,0.231 0,0.97 -0.151,0.666 -0.394,0.666 -0.394,0.666 0,0 -0.485,0.304 -1.91,0.092 -1.424,-0.213 -2.03,-0.485 -2.03,-0.485 0,0 -0.152,0.818 -0.395,1.606 -0.242,0.788 -0.333,1.091 -0.333,1.091 0,0 0.504,-0.004 2.031,0.606 1.667,0.667 1.637,1.001 1.637,1.001 0,0 0.06,0.303 -0.152,0.849 -0.212,0.545 -0.455,0.697 -0.455,0.697 0,0 -0.878,0.03 -1.94,-0.243 -1.06,-0.272 -1.94,-0.667 -1.94,-0.667 0,0 -0.242,0.637 -0.575,1.455 -0.334,0.819 -0.455,1.152 -0.455,1.152 0,0 0.909,0.243 2,0.849 1.092,0.606 1.425,1.031 1.425,1.031 0,0 0.03,0.454 -0.303,1.03 -0.334,0.576 -0.485,0.546 -0.485,0.546 0,0 -0.758,0 -1.819,-0.425 -1.061,-0.424 -1.879,-0.909 -1.879,-0.909 0,0 -0.273,0.546 -0.727,1.304 -0.455,0.757 -0.667,1.091 -0.667,1.091 0,0 0.909,0.394 2,1.212 1.092,0.819 1.213,1.152 1.213,1.152 0,0 0.03,0.243 -0.395,0.849 -0.424,0.606 -0.606,0.546 -0.606,0.546 0,0 -0.697,-0.031 -1.727,-0.607 -1.031,-0.576 -1.789,-1.182 -1.789,-1.182 0,0 -0.303,0.546 -0.849,1.273 -0.545,0.728 -0.788,1.001 -0.788,1.001 0,0 1.031,0.636 1.789,1.364 0.757,0.727 1.091,1.303 1.091,1.303 0,0 -0.031,0.364 -0.455,0.818 -0.424,0.455 -0.667,0.485 -0.667,0.485 0,0 -0.667,-0.151 -1.727,-0.878 -1.062,-0.728 -1.607,-1.304 -1.607,-1.304 0,0 -0.303,0.364 -1,1.091 -0.698,0.728 -0.88,0.91 -0.88,0.91 0,0 1.274,1.151 1.759,1.788 0.485,0.637 0.727,1.213 0.727,1.213 0,0 0.121,0.272 -0.515,0.788 -0.619,0.5 -0.758,0.454 -0.758,0.454 0,0 -0.636,-0.242 -1.546,-1.06 -0.909,-0.819 -1.455,-1.547 -1.455,-1.547 0,0 -0.212,0.243 -1.091,0.94 -0.879,0.697 -1.061,0.819 -1.061,0.819 0,0 0.576,0.576 1.425,1.849 0.849,1.273 0.727,1.546 0.727,1.546 0,0 -0.03,0.212 -0.545,0.576 -0.516,0.363 -0.849,0.363 -0.849,0.363 0,0 -0.546,-0.151 -1.394,-1.151 -0.849,-1.001 -1.334,-1.789 -1.334,-1.789 0,0 -0.364,0.364 -1.183,0.849 -0.818,0.485 -1.091,0.636 -1.091,0.636 0,0 0.606,0.819 1.183,2.031 0.575,1.213 0.515,1.546 0.515,1.546 0,0 0,0.182 -0.637,0.546 -0.637,0.364 -0.879,0.242 -0.879,0.242 0,0 -0.546,-0.273 -1.243,-1.333 -0.697,-1.061 -1.091,-1.88 -1.091,-1.88 0,0 -0.394,0.212 -1.334,0.637 -0.94,0.424 -1.151,0.485 -1.151,0.485 0,0 0.606,1.182 1,2.273 0.394,1.092 0.303,1.516 0.303,1.516 0,0 -0.122,0.273 -0.758,0.515 -0.637,0.243 -0.879,0.121 -0.879,0.121 0,0 -0.515,-0.424 -1.061,-1.485 -0.545,-1.061 -0.849,-2.031 -0.849,-2.031 0,0 -0.333,0.152 -1.364,0.485 -1.031,0.334 -1.212,0.364 -1.212,0.364 0,0 0.455,1.243 0.697,2.395 0.243,1.152 0.091,1.515 0.091,1.515 0,0 -0.061,0.182 -0.667,0.364 -0.606,0.182 -0.97,0.061 -0.97,0.061 0,0 -0.491,-0.291 -0.91,-1.546 -0.424,-1.274 -0.606,-2.152 -0.606,-2.152 l -1.364,0.272 c -1.061,0.213 -1.364,0.243 -1.364,0.243 0,0 0.334,0.879 0.455,2.273 0.121,1.395 -0.061,1.728 -0.061,1.728 0,0 -0.273,0.212 -0.879,0.303 -0.606,0.091 -0.849,-0.091 -0.849,-0.091 0,0 -0.454,-0.545 -0.697,-1.697 -0.242,-1.152 -0.333,-2.243 -0.333,-2.243 l -2.365,0.272 c 0,0 -0.03,1.819 -0.212,2.698 -0.181,0.879 -0.758,1.364 -1.243,1.485 -0.485,0.122 -0.909,0.182 -1.182,-0.03 -0.273,-0.212 -0.576,-1.485 -0.818,-1.788 -0.243,-0.303 -1.364,-1.122 -1.94,-2.486 l -0.728,-0.121 c 0,0 -0.121,1.273 -0.424,2.395 -0.303,1.121 -0.728,1.606 -0.728,1.606 0,0 -0.212,0.121 -0.878,0 -0.667,-0.121 -0.759,-0.333 -0.759,-0.333 0,0 -0.211,-0.667 -0.06,-1.728 0.152,-1.061 0.455,-2.243 0.455,-2.243 0,0 -0.606,-0.061 -1.395,-0.212 -0.788,-0.152 -1.364,-0.334 -1.364,-0.334 0,0 -0.182,1.152 -0.606,2.183 -0.425,1.03 -0.879,1.576 -0.879,1.576 0,0 -0.303,0.091 -0.909,-0.091 -0.607,-0.182 -0.758,-0.334 -0.758,-0.334 0,0 -0.122,-0.788 0.181,-1.848 0.304,-1.062 0.667,-2.092 0.667,-2.092 0,0 -0.515,-0.121 -1.363,-0.394 -0.849,-0.273 -1.244,-0.485 -1.244,-0.485 0,0 -0.363,0.97 -0.878,2.031 -0.516,1.061 -1.092,1.546 -1.092,1.546 0,0 -0.242,0.121 -0.879,-0.152 -0.636,-0.273 -0.697,-0.515 -0.697,-0.515 0,0 0.03,-0.97 0.364,-1.758 0.333,-0.788 0.97,-2.001 0.97,-2.001 0,0 -0.516,-0.212 -1.334,-0.576 -0.819,-0.364 -1.182,-0.606 -1.182,-0.606 0,0 -0.364,0.909 -1.031,1.849 -0.667,0.94 -1.334,1.425 -1.334,1.425 0,0 -0.454,0 -0.909,-0.273 -0.454,-0.273 -0.576,-0.576 -0.576,-0.576 0,0 0.03,-0.697 0.637,-1.788 0.606,-1.092 1.091,-1.728 1.091,-1.728 0,0 -0.455,-0.273 -1.213,-0.758 -0.757,-0.485 -1.091,-0.758 -1.091,-0.758 0,0 -0.576,0.879 -1.273,1.697 -0.697,0.819 -1.455,1.243 -1.455,1.243 0,0 -0.364,0.031 -0.879,-0.394 -0.515,-0.424 -0.515,-0.636 -0.515,-0.636 0,0 0.091,-0.667 0.818,-1.668 0.728,-1 1.334,-1.636 1.334,-1.636 0,0 -0.394,-0.273 -1.061,-0.819 -0.667,-0.545 -1.091,-0.94 -1.091,-0.94 0,0 -0.667,0.789 -1.607,1.607 -0.94,0.818 -1.455,0.94 -1.455,0.94 0,0 -0.303,0.03 -0.788,-0.455 -0.485,-0.485 -0.424,-0.727 -0.424,-0.727 0,0 0.06,-0.485 1.06,-1.577 1.001,-1.091 1.455,-1.424 1.455,-1.424 0,0 -0.454,-0.425 -1.06,-1.061 -0.606,-0.637 -0.819,-0.94 -0.819,-0.94 0,0 -0.636,0.606 -1.667,1.334 -1.03,0.727 -1.697,0.879 -1.697,0.879 0,0 -0.273,-0.031 -0.698,-0.546 -0.424,-0.515 -0.394,-0.788 -0.394,-0.788 0,0 0.122,-0.485 1.152,-1.394 1.031,-0.91 1.728,-1.304 1.728,-1.304 0,0 -0.303,-0.303 -0.879,-1.091 -0.576,-0.788 -0.758,-1.121 -0.758,-1.121 0,0 -0.667,0.515 -1.819,1.121 -1.152,0.606 -1.758,0.637 -1.758,0.637 0,0 -0.272,-0.061 -0.606,-0.607 -0.333,-0.545 -0.333,-0.848 -0.333,-0.848 0,0 0.393,-0.667 1.545,-1.365 1.152,-0.697 1.607,-0.939 1.607,-0.939 0,0 -0.212,-0.334 -0.697,-1.182 -0.485,-0.849 -0.667,-1.213 -0.667,-1.213 0,0 -0.636,0.455 -1.88,0.879 -1.242,0.425 -1.818,0.425 -1.818,0.425 0,0 -0.273,-0.061 -0.546,-0.576 -0.311,-0.588 -0.272,-0.94 -0.272,-0.94 0,0 0.393,-0.606 1.788,-1.243 1.394,-0.636 1.667,-0.697 1.667,-0.697 0,0 -0.121,-0.212 -0.515,-1.152 -0.394,-0.94 -0.546,-1.425 -0.546,-1.425 0,0 -0.546,0.334 -2.061,0.698 -1.516,0.363 -1.819,0.182 -1.819,0.182 0,0 -0.212,-0.031 -0.424,-0.637 -0.212,-0.606 -0.152,-0.97 -0.152,-0.97 0,0 0.243,-0.485 1.758,-0.97 1.516,-0.485 1.91,-0.546 1.91,-0.546 0,0 -0.121,-0.303 -0.364,-1.212 -0.242,-0.91 -0.364,-1.455 -0.364,-1.455 0,0 -0.697,0.242 -2.03,0.424 -1.334,0.182 -1.971,-0.061 -1.971,-0.061 0,0 -0.271,-0.212 -0.394,-0.909 -0.091,-0.515 0.091,-0.727 0.091,-0.727 0,0 0.212,-0.425 1.849,-0.758 1.637,-0.334 1.97,-0.334 1.97,-0.334 0,0 -0.151,-0.575 -0.272,-1.455 -0.121,-0.879 -0.152,-1.242 -0.152,-1.242 0,0 -0.576,0.151 -2.031,0.151 -1.455,0 -1.97,-0.212 -1.97,-0.212 0,0 -0.243,0.03 -0.273,-0.97 0,0 -0.03,-0.637 0.091,-0.758 0.121,-0.121 0.334,-0.394 2,-0.515 1.668,-0.121 2.001,-0.061 2.001,-0.061 0,0 -0.091,-0.758 -0.091,-1.94 l 0,-1.97 c 0,0 -1,0.06 -2.213,-0.152 -1.212,-0.212 -1.788,-0.545 -1.788,-0.545 0,0 -0.182,-0.243 -0.121,-0.819 0.061,-0.576 0.272,-0.909 0.272,-0.909 0,0 0.455,-0.303 2.032,-0.182 1.576,0.121 1.97,0.273 1.97,0.273 0,0 0.03,-0.334 0.152,-1.364 0.121,-1.031 0.181,-1.425 0.181,-1.425 0,0 -0.848,-0.06 -2,-0.394 -1.152,-0.333 -1.85,-0.818 -1.85,-0.818 0,0 -0.151,-0.364 0,-0.94 0.152,-0.576 0.364,-0.758 0.364,-0.758 0,0 0.455,-0.212 1.94,0.091 1.486,0.303 1.971,0.515 1.971,0.515 0,0 0.121,-0.454 0.333,-1.303 0.212,-0.849 0.364,-1.395 0.364,-1.395 0,0 -0.788,-0.212 -1.97,-0.697 -1.183,-0.485 -1.728,-1.03 -1.728,-1.03 0,0 -0.03,-0.303 0.151,-0.849 0.182,-0.546 0.425,-0.727 0.425,-0.727 0,0 0.515,-0.182 2.03,0.333 1.516,0.515 1.819,0.667 1.819,0.667 0,0 0.152,-0.485 0.455,-1.243 0.303,-0.758 0.515,-1.304 0.515,-1.304 0,0 -0.879,-0.333 -1.909,-0.909 -1.031,-0.576 -1.546,-1.212 -1.546,-1.212 0,0 -0.03,-0.334 0.212,-0.849 0.243,-0.515 0.546,-0.697 0.546,-0.697 0,0 0.393,-0.213 1.909,0.545 1.516,0.758 1.819,1.001 1.819,1.001 0,0 0.091,-0.304 0.576,-1.213 0.485,-0.909 0.728,-1.273 0.728,-1.273 0,0 -0.97,-0.576 -1.729,-1.091 -0.757,-0.515 -1.424,-1.455 -1.424,-1.455 0,0 -0.061,-0.243 0.303,-0.788 0.364,-0.546 0.667,-0.667 0.667,-0.667 0,0 0.636,0.06 1.849,0.848 1.212,0.789 1.637,1.092 1.637,1.092 0,0 0.303,-0.515 0.758,-1.182 0.454,-0.667 0.788,-1.092 0.788,-1.092 0,0 -0.546,-0.273 -1.486,-1.182 -0.939,-0.909 -1.333,-1.637 -1.333,-1.637 0,0 -0.061,-0.242 0.333,-0.727 0.394,-0.485 0.758,-0.667 0.758,-0.667 0,0 0.667,0.121 1.849,1.122 1.182,1 1.364,1.212 1.364,1.212 0,0 0.182,-0.152 0.819,-0.879 0.636,-0.728 1.06,-1.152 1.06,-1.152 0,0 -1.06,-1.031 -1.606,-1.728 -0.546,-0.697 -0.819,-1.394 -0.819,-1.394 0,0 0.031,-0.364 0.455,-0.758 0.425,-0.394 0.788,-0.485 0.788,-0.485 0,0 0.728,0.273 1.667,1.273 0.94,1.001 1.213,1.455 1.213,1.455 0,0 0.242,-0.242 1.03,-0.909 0.789,-0.667 1.092,-0.91 1.092,-0.91 0,0 -0.697,-0.757 -1.213,-1.606 -0.515,-0.849 -0.849,-1.849 -0.849,-1.849 0,0 0,-0.243 0.546,-0.637 0.546,-0.394 0.788,-0.394 0.788,-0.394 0,0 0.593,0.192 1.546,1.486 0.849,1.151 1.092,1.485 1.092,1.485 0,0 0.272,-0.182 1.06,-0.697 0.788,-0.516 1.213,-0.788 1.213,-0.788 0,0 -0.462,-0.709 -0.91,-1.577 -0.515,-1 -0.696,-2.091 -0.696,-2.091 0,0 0,-0.182 0.575,-0.516 0.576,-0.333 0.91,-0.333 0.91,-0.333 0,0 0.606,0.364 1.364,1.758 0.757,1.394 0.849,1.576 0.849,1.576 0,0 0.242,-0.212 1.152,-0.636 0.909,-0.425 1.294,-0.636 1.294,-0.636 m 65.902,38.122 c 0,-26.66 -21.612,-48.272 -48.271,-48.272 -26.66,0 -48.271,21.612 -48.271,48.272 0,26.659 21.611,48.271 48.271,48.271 26.659,0 48.271,-21.612 48.271,-48.271"
       style="fill:#002b54;fill-opacity:1;fill-rule:nonzero;stroke:none"
       id="path3846" /><path
       inkscape:connector-curvature="0"
       d="m 268.0968,533.3169 c 0,0 4.656,-2.488 9.758,-1.637 4.365,0.727 5.584,3.52 5.584,3.52 0,0 -1.223,0.436 -0.916,1.512 0.243,0.848 1.337,0.67 1.337,0.67 0,0 0.058,1.269 -1.034,2.058 -1.091,0.788 -2.121,0.666 -1.818,1.758 0.362,1.305 3.334,0.606 6.305,0.606 2.97,0 6.376,0.632 6.79,-0.606 0.363,-1.092 -1.174,-1.183 -1.94,-1.758 -0.728,-0.546 -1.031,-2.001 -1.031,-2.001 0,0 1.213,-0.121 1.334,-0.606 0.314,-1.258 -0.91,-1.576 -0.91,-1.576 0,0 1.194,-2.827 4.972,-3.517 6.305,-1.152 10.367,1.637 10.367,1.637 0,0 -3.82,0.364 -4.608,3.516 -0.788,3.153 1.999,6.667 4.789,6.609 2.91,-0.061 6.79,-1.94 8.791,-6.972 0.892,-2.246 1.86,-5.344 2.243,-9.458 0.383,-4.115 0.182,-9.245 -0.909,-14.611 -2.294,-11.278 -7.275,-18.308 -7.275,-18.308 0,0 -2.486,0.182 -4.608,0.485 -2.122,0.303 -4.365,0.667 -4.365,0.667 0,0 6.184,8.123 8.063,18.793 1.29,7.322 0.182,11.398 0.182,11.398 0,0 -8.002,-2.756 -21.764,-2.756 -13.762,0 -21.583,2.756 -21.583,2.756 0,0 -1.132,-5.526 0.061,-11.276 2.364,-11.398 8.124,-18.915 8.124,-18.915 0,0 -2.789,-0.243 -4.668,-0.425 -1.88,-0.182 -4.487,-0.545 -4.487,-0.545 0,0 -5.801,9.189 -7.153,18.49 -0.97,6.669 -1.092,10.064 -0.788,14.187 0.303,4.122 1.091,7.274 2.546,10.366 1.455,3.092 4.789,6.002 8.245,6.124 3.455,0.121 6.038,-4.239 4.971,-6.79 -1.394,-3.335 -4.729,-3.335 -4.729,-3.335"
       style="fill:#002b54;fill-opacity:1;fill-rule:nonzero;stroke:none"
       id="path3848" /><path
       inkscape:connector-curvature="0"
       d="m 280.4039,456.9154 0.923,-0.093 0.702,6.635 -0.581,0.071 c -0.298,-0.258 -0.472,-0.36 -0.881,-0.548 l -0.072,-0.663 0.471,-0.051 -0.562,-5.351 z"
       style="fill:#bc9b6a;fill-opacity:1;fill-rule:nonzero;stroke:none"
       id="path3850" /><path
       inkscape:connector-curvature="0"
       d="m 284.2941,459.015 c 0.029,0.45 0.127,0.584 0.396,0.571 0.26,-0.023 0.349,-0.177 0.33,-0.608 l -0.056,-1.123 c -0.029,-0.429 -0.135,-0.588 -0.393,-0.575 -0.277,0.014 -0.356,0.16 -0.331,0.613 l 0.054,1.122 z m 0.19,2.96 c 0.02,0.388 0.117,0.539 0.36,0.519 0.228,-0.004 0.305,-0.168 0.293,-0.555 l -0.048,-0.885 c -0.021,-0.388 -0.12,-0.528 -0.351,-0.519 -0.237,0.015 -0.322,0.164 -0.301,0.557 l 0.047,0.883 z m 0.941,-1.935 c 0.45,0.299 0.507,0.453 0.562,1.572 0.035,0.621 -0.02,0.929 -0.204,1.215 -0.186,0.284 -0.513,0.454 -0.899,0.472 -0.388,0.018 -0.726,-0.112 -0.943,-0.365 -0.226,-0.28 -0.312,-0.571 -0.347,-1.206 -0.056,-1.113 -0.014,-1.262 0.411,-1.619 -0.534,-0.176 -0.577,-0.322 -0.663,-1.912 -0.034,-0.64 0.029,-0.991 0.23,-1.29 0.2,-0.29 0.548,-0.463 0.95,-0.487 0.865,-0.046 1.302,0.51 1.366,1.674 0.079,1.534 0.039,1.707 -0.463,1.946"
       style="fill:#bc9b6a;fill-opacity:1;fill-rule:evenodd;stroke:none"
       id="path3852" /><path
       inkscape:connector-curvature="0"
       d="m 288.4722,458.9274 c -0.014,0.453 0.074,0.594 0.344,0.603 0.262,0.009 0.363,-0.146 0.384,-0.571 l 0.037,-1.128 c 0.014,-0.424 -0.079,-0.584 -0.339,-0.593 -0.269,-0.019 -0.366,0.127 -0.381,0.575 l -0.045,1.114 z m -0.069,2.974 c -0.016,0.388 0.069,0.537 0.31,0.551 0.234,0.009 0.328,-0.14 0.342,-0.534 l 0.028,-0.883 c 0.014,-0.387 -0.071,-0.542 -0.295,-0.552 -0.242,-0.009 -0.345,0.145 -0.353,0.529 l -0.032,0.889 z m 1.105,-1.847 c 0.423,0.34 0.464,0.495 0.426,1.604 -0.017,0.631 -0.098,0.935 -0.309,1.201 -0.211,0.267 -0.547,0.407 -0.935,0.393 -0.395,-0.014 -0.719,-0.173 -0.91,-0.454 -0.205,-0.284 -0.257,-0.594 -0.238,-1.22 0.039,-1.118 0.094,-1.259 0.546,-1.581 -0.516,-0.229 -0.551,-0.365 -0.495,-1.964 0.027,-0.636 0.118,-0.981 0.347,-1.263 0.223,-0.271 0.586,-0.416 0.984,-0.402 0.865,0.033 1.255,0.618 1.211,1.787 -0.051,1.538 -0.108,1.706 -0.627,1.899"
       style="fill:#bc9b6a;fill-opacity:1;fill-rule:evenodd;stroke:none"
       id="path3854" /><path
       inkscape:connector-curvature="0"
       d="m 292.0292,458.5617 c 0,-0.173 0.01,-0.257 0.028,-0.426 0.131,-1.005 0.643,-1.5 1.426,-1.407 0.407,0.051 0.767,0.267 0.952,0.571 0.194,0.308 0.217,0.585 0.138,1.262 l -0.185,1.538 c -0.119,0.969 -0.519,1.493 -1.092,1.418 -0.268,-0.029 -0.456,-0.187 -0.685,-0.562 l -0.121,1.614 1.372,0.159 -0.08,0.879 -2.158,-0.267 0.316,-3.418 0.785,0.094 c 0.05,0.364 0.174,0.57 0.365,0.594 0.189,0.023 0.309,-0.122 0.346,-0.44 l 0.249,-1.997 c 0.042,-0.342 -0.052,-0.548 -0.267,-0.57 -0.281,-0.028 -0.421,0.21 -0.496,0.813 l -0.028,0.253 -0.865,-0.108 z"
       style="fill:#bc9b6a;fill-opacity:1;fill-rule:nonzero;stroke:none"
       id="path3856" /><path
       inkscape:connector-curvature="0"
       d="m 276.3238,565.6191 c 0,0.364 0.297,0.663 0.658,0.663 0.366,0 0.663,-0.299 0.663,-0.663 0,-0.374 -0.297,-0.658 -0.663,-0.658 -0.361,0 -0.658,0.284 -0.658,0.658"
       style="fill:#bc9b6a;fill-opacity:1;fill-rule:nonzero;stroke:none"
       id="path3858" /><path
       inkscape:connector-curvature="0"
       d="m 299.6306,460.9754 c 0.026,0.373 0.348,0.645 0.713,0.613 0.365,-0.034 0.629,-0.356 0.604,-0.726 -0.038,-0.364 -0.356,-0.626 -0.72,-0.593 -0.365,0.032 -0.632,0.346 -0.597,0.706"
       style="fill:#bc9b6a;fill-opacity:1;fill-rule:nonzero;stroke:none"
       id="path3860" /><path
       inkscape:connector-curvature="0"
       d="m 274.2751,460.8484 c 0,0.365 0.298,0.655 0.662,0.655 0.363,0 0.661,-0.29 0.661,-0.655 0,-0.365 -0.298,-0.659 -0.661,-0.659 -0.364,0 -0.662,0.294 -0.662,0.659"
       style="fill:#bc9b6a;fill-opacity:1;fill-rule:nonzero;stroke:none"
       id="path3862" /><path
       inkscape:connector-curvature="0"
       d="m 270.284,463.9024 c 0.068,0.13 0.089,0.192 0.138,0.308 0.208,0.515 0.244,0.787 0.16,1.127 -0.107,0.408 -0.359,0.669 -0.803,0.846 -0.761,0.314 -1.371,0.039 -1.688,-0.747 -0.202,-0.492 -0.233,-1.175 -0.077,-1.889 l 0.171,-0.767 c 0.214,-1.034 0.22,-1.127 0.071,-1.492 -0.138,-0.356 -0.342,-0.496 -0.561,-0.402 -0.185,0.069 -0.266,0.252 -0.199,0.505 0.035,0.131 0.069,0.238 0.189,0.538 l -0.832,0.247 c -0.193,-0.486 -0.204,-0.509 -0.255,-0.753 -0.102,-0.579 0.18,-1.066 0.734,-1.29 0.729,-0.29 1.406,0.009 1.715,0.78 0.213,0.519 0.216,0.992 0.013,1.955 l -0.164,0.767 c -0.185,0.697 -0.187,0.968 -0.034,1.356 0.152,0.374 0.357,0.534 0.601,0.435 0.328,-0.131 0.344,-0.369 0.094,-0.986 l -0.097,-0.239 0.824,-0.299 z"
       style="fill:#bc9b6a;fill-opacity:1;fill-rule:nonzero;stroke:none"
       id="path3864" /><path
       inkscape:connector-curvature="0"
       d="m 262.2455,462.4616 2.88,5.645 -1.978,0.996 -0.372,-0.73 1.184,-0.608 -0.946,-1.851 -0.775,0.406 -0.377,-0.748 0.776,-0.393 -0.806,-1.58 -1.114,0.565 -0.378,-0.734 1.906,-0.968 z"
       style="fill:#bc9b6a;fill-opacity:1;fill-rule:nonzero;stroke:none"
       id="path3866" /><path
       inkscape:connector-curvature="0"
       d="m 257.2755,470.1586 0.497,-0.346 -1.933,-2.23 1.436,2.576 z m 1.052,0.277 -0.655,0.459 0.683,1.261 -0.706,0.492 -2.954,-5.664 0.929,-0.655 4.345,4.696 -0.701,0.491 -0.941,-1.08 z"
       style="fill:#bc9b6a;fill-opacity:1;fill-rule:evenodd;stroke:none"
       id="path3868" /><path
       inkscape:connector-curvature="0"
       d="m 254.68,475.065 -1.613,1.398 -0.54,-0.622 0.942,-0.824 -3.615,-4.161 0.668,-0.579 4.158,4.788 z"
       style="fill:#bc9b6a;fill-opacity:1;fill-rule:nonzero;stroke:none"
       id="path3870" /><path
       inkscape:connector-curvature="0"
       d="m 242.7098,487.6864 c 0.311,0.178 0.501,0.154 0.629,-0.066 0.133,-0.234 0.054,-0.402 -0.259,-0.584 l -3.331,-1.922 c -0.313,-0.178 -0.505,-0.154 -0.632,0.066 -0.132,0.228 -0.055,0.402 0.258,0.584 l 3.335,1.922 z m -3.461,-0.977 c -0.65,-0.38 -0.777,-0.487 -0.927,-0.768 -0.17,-0.336 -0.143,-0.78 0.081,-1.178 0.226,-0.379 0.594,-0.626 0.972,-0.65 0.322,-0.014 0.476,0.052 1.128,0.421 l 2.695,1.557 c 0.654,0.374 0.778,0.477 0.928,0.772 0.181,0.337 0.152,0.781 -0.071,1.164 -0.224,0.393 -0.596,0.637 -0.983,0.65 -0.32,0.019 -0.468,-0.037 -1.124,-0.42 l -2.699,-1.548 z"
       style="fill:#bc9b6a;fill-opacity:1;fill-rule:evenodd;stroke:none"
       id="path3872" /><path
       inkscape:connector-curvature="0"
       d="m 235.8275,490.0242 5.788,2.577 -0.357,0.804 -2.656,-1.183 -0.355,0.805 -0.755,-0.342 0.354,-0.795 -1.623,-0.725 -0.509,1.146 -0.756,-0.332 0.869,-1.955 z"
       style="fill:#bc9b6a;fill-opacity:1;fill-rule:nonzero;stroke:none"
       id="path3874" /><path
       inkscape:connector-curvature="0"
       d="m 237.485,508.1222 -0.059,0.877 -5.501,-0.381 -0.055,0.86 -0.827,-0.054 0.179,-2.562 0.826,0.053 -0.06,0.823 5.497,0.384 z"
       style="fill:#bc9b6a;fill-opacity:1;fill-rule:nonzero;stroke:none"
       id="path3876" /><path
       inkscape:connector-curvature="0"
       d="m 234.43,515.2826 2.903,-0.145 0.046,0.88 -6.326,0.332 -0.045,-0.888 2.598,-0.131 -0.038,-0.724 -2.599,0.143 -0.051,-0.892 6.331,-0.328 0.046,0.882 -2.903,0.151 0.038,0.72 z"
       style="fill:#bc9b6a;fill-opacity:1;fill-rule:nonzero;stroke:none"
       id="path3878" /><path
       inkscape:connector-curvature="0"
       d="m 231.489,520.9342 6.259,-0.99 0.344,2.183 -0.818,0.13 -0.205,-1.311 -2.055,0.329 0.133,0.859 -0.814,0.123 -0.137,-0.854 -1.755,0.273 0.2,1.232 -0.818,0.14 -0.334,-2.114 z"
       style="fill:#bc9b6a;fill-opacity:1;fill-rule:nonzero;stroke:none"
       id="path3880" /><path
       inkscape:connector-curvature="0"
       d="m 240.4324,538.5382 -0.556,-1.138 0.67,-0.331 0.17,0.349 0.825,-0.403 c 0.313,-0.154 0.366,-0.183 0.466,-0.255 0.144,-0.117 0.19,-0.298 0.115,-0.462 -0.069,-0.135 -0.227,-0.203 -0.399,-0.164 -0.124,0.029 -0.134,0.036 -0.507,0.219 l -3.014,1.465 c -0.498,0.239 -0.591,0.371 -0.466,0.626 0.137,0.287 0.346,0.28 0.987,-0.037 0.118,-0.055 0.204,-0.095 0.376,-0.2 l 0.387,0.797 c -0.215,0.119 -0.324,0.177 -0.444,0.24 -0.992,0.476 -1.672,0.334 -2.051,-0.427 -0.361,-0.749 -0.08,-1.347 0.82,-1.792 l 3.019,-1.468 c 0.508,-0.248 0.756,-0.328 1.06,-0.314 0.376,0.015 0.738,0.229 0.894,0.557 0.138,0.276 0.101,0.589 -0.12,0.975 l 0.456,-0.074 0.204,0.427 -2.892,1.41 z"
       style="fill:#bc9b6a;fill-opacity:1;fill-rule:nonzero;stroke:none"
       id="path3882" /><path
       inkscape:connector-curvature="0"
       d="m 240.3438,544.5015 5.059,-3.815 1.331,1.772 -0.658,0.503 -0.803,-1.071 -1.657,1.248 0.523,0.701 -0.66,0.495 -0.527,-0.694 -1.422,1.073 0.76,0.996 -0.659,0.494 -1.287,-1.702 z"
       style="fill:#bc9b6a;fill-opacity:1;fill-rule:nonzero;stroke:none"
       id="path3884" /><path
       inkscape:connector-curvature="0"
       d="m 249.1456,547.4617 c 0.272,-0.24 0.307,-0.425 0.134,-0.617 -0.181,-0.201 -0.36,-0.179 -0.625,0.066 l -2.862,2.577 c -0.266,0.24 -0.302,0.426 -0.132,0.618 0.179,0.197 0.358,0.175 0.63,-0.07 l 2.855,-2.574 z m -1.995,2.986 c -0.56,0.506 -0.697,0.592 -1.018,0.652 -0.375,0.054 -0.786,-0.11 -1.086,-0.442 -0.3,-0.337 -0.42,-0.767 -0.326,-1.133 0.09,-0.305 0.195,-0.436 0.75,-0.94 l 2.315,-2.082 c 0.561,-0.502 0.696,-0.586 1.018,-0.65 0.375,-0.056 0.791,0.104 1.093,0.435 0.298,0.335 0.416,0.759 0.315,1.131 -0.089,0.312 -0.185,0.436 -0.746,0.946 l -2.315,2.083 z"
       style="fill:#bc9b6a;fill-opacity:1;fill-rule:evenodd;stroke:none"
       id="path3886" /><path
       inkscape:connector-curvature="0"
       d="m 251.7179,553.2994 -1.293,1.432 0.095,0.084 c 0.35,0.317 0.569,0.287 0.973,-0.16 0.393,-0.441 0.467,-0.536 0.535,-0.681 0.08,-0.192 0.022,-0.375 -0.219,-0.589 l -0.091,-0.086 z m -2.502,1.457 4.243,-4.709 0.655,0.593 -1.8,1.997 c 0.092,0.091 0.113,0.112 0.213,0.24 l 2.2,-1.684 0.707,0.633 -2.486,1.836 c -0.037,0.6 -0.164,0.858 -0.696,1.447 -0.358,0.4 -0.65,0.604 -0.983,0.72 -0.473,0.157 -0.824,0.033 -1.411,-0.502 l -0.642,-0.571 z"
       style="fill:#bc9b6a;fill-opacity:1;fill-rule:evenodd;stroke:none"
       id="path3888" /><path
       inkscape:connector-curvature="0"
       d="m 259.0151,558.3469 -1.088,-0.659 0.385,-0.636 0.335,0.196 0.47,-0.782 c 0.18,-0.298 0.211,-0.349 0.246,-0.466 0.065,-0.177 0.004,-0.364 -0.151,-0.45 -0.124,-0.078 -0.301,-0.054 -0.421,0.076 -0.089,0.098 -0.095,0.102 -0.309,0.458 l -1.73,2.876 c -0.282,0.473 -0.292,0.637 -0.044,0.783 0.266,0.156 0.435,0.042 0.805,-0.571 0.072,-0.118 0.121,-0.197 0.206,-0.378 l 0.753,0.461 c -0.111,0.222 -0.174,0.32 -0.241,0.44 -0.569,0.939 -1.219,1.192 -1.949,0.753 -0.708,-0.422 -0.805,-1.08 -0.283,-1.945 l 1.725,-2.871 c 0.291,-0.487 0.46,-0.689 0.718,-0.842 0.322,-0.197 0.743,-0.207 1.056,-0.022 0.265,0.161 0.405,0.444 0.43,0.876 l 0.343,-0.301 0.409,0.243 -1.665,2.761 z"
       style="fill:#bc9b6a;fill-opacity:1;fill-rule:nonzero;stroke:none"
       id="path3890" /><path
       inkscape:connector-curvature="0"
       d="m 262.0596,563.67 -0.789,-0.389 2.775,-5.688 0.793,0.386 -2.779,5.691 z"
       style="fill:#bc9b6a;fill-opacity:1;fill-rule:nonzero;stroke:none"
       id="path3892" /><path
       inkscape:connector-curvature="0"
       d="m 269.1416,562.2966 -0.572,-0.209 -0.718,2.862 1.29,-2.653 z m -0.375,-1.016 0.742,0.272 0.643,-1.287 0.815,0.298 -2.944,5.674 -1.073,-0.393 1.35,-6.248 0.807,0.291 -0.34,1.393 z"
       style="fill:#bc9b6a;fill-opacity:1;fill-rule:evenodd;stroke:none"
       id="path3894" /><path
       inkscape:connector-curvature="0"
       d="m 284.5622,569.6699 -0.881,-0.065 0.443,-6.321 0.886,0.059 -0.448,6.327 z"
       style="fill:#bc9b6a;fill-opacity:1;fill-rule:nonzero;stroke:none"
       id="path3896" /><path
       inkscape:connector-curvature="0"
       d="m 292.1301,569.5216 -0.891,0.043 -0.19,-3.728 -0.968,3.794 -0.762,0.039 -0.336,-6.331 0.886,-0.039 0.175,3.315 0.867,-3.377 0.888,-0.044 0.331,6.328 z"
       style="fill:#bc9b6a;fill-opacity:1;fill-rule:nonzero;stroke:none"
       id="path3898" /><path
       inkscape:connector-curvature="0"
       d="m 295.859,564.5195 c -0.028,-0.148 -0.043,-0.206 -0.058,-0.338 -0.088,-0.541 -0.064,-0.814 0.103,-1.13 0.184,-0.367 0.495,-0.567 0.97,-0.648 0.809,-0.124 1.347,0.277 1.475,1.103 0.087,0.534 -0.045,1.211 -0.348,1.866 l -0.344,0.712 c -0.442,0.963 -0.466,1.047 -0.407,1.436 0.063,0.376 0.225,0.561 0.461,0.525 0.201,-0.03 0.313,-0.194 0.306,-0.455 -0.002,-0.135 -0.012,-0.245 -0.063,-0.572 l 0.869,-0.04 c 0.08,0.51 0.085,0.542 0.077,0.783 -0.034,0.592 -0.413,0.995 -1.005,1.09 -0.778,0.124 -1.363,-0.32 -1.496,-1.146 -0.091,-0.553 0.012,-1.01 0.428,-1.904 l 0.327,-0.71 c 0.339,-0.639 0.407,-0.895 0.339,-1.313 -0.058,-0.4 -0.226,-0.601 -0.486,-0.556 -0.348,0.054 -0.418,0.279 -0.313,0.942 l 0.035,0.255 -0.87,0.1 z"
       style="fill:#bc9b6a;fill-opacity:1;fill-rule:nonzero;stroke:none"
       id="path3900" /><path
       inkscape:connector-curvature="0"
       d="m 302.6258,561.0956 0.832,-0.298 1.883,5.181 0.813,-0.301 0.287,0.778 -2.419,0.88 -0.287,-0.779 0.781,-0.275 -1.89,-5.186 z"
       style="fill:#bc9b6a;fill-opacity:1;fill-rule:nonzero;stroke:none"
       id="path3902" /><path
       inkscape:connector-curvature="0"
       d="m 311.235,564.4921 -0.802,0.389 -2.778,-5.693 0.798,-0.384 2.782,5.688 z"
       style="fill:#bc9b6a;fill-opacity:1;fill-rule:nonzero;stroke:none"
       id="path3904" /><path
       inkscape:connector-curvature="0"
       d="m 312.404,556.7936 0.753,-0.456 2.838,4.724 0.744,-0.45 0.421,0.712 -2.207,1.323 -0.424,-0.704 0.714,-0.425 -2.839,-4.724 z"
       style="fill:#bc9b6a;fill-opacity:1;fill-rule:nonzero;stroke:none"
       id="path3906" /><path
       inkscape:connector-curvature="0"
       d="m 321.4286,558.3926 -0.703,0.536 -2.845,-3.779 c -0.452,-0.596 -0.534,-0.742 -0.559,-1.07 -0.022,-0.374 0.18,-0.774 0.534,-1.039 0.361,-0.277 0.795,-0.357 1.151,-0.229 0.3,0.116 0.421,0.229 0.875,0.83 l 2.852,3.778 -0.71,0.53 -3.064,-4.068 c -0.219,-0.288 -0.392,-0.35 -0.602,-0.183 -0.211,0.157 -0.211,0.342 0.009,0.632 l 3.062,4.062 z"
       style="fill:#bc9b6a;fill-opacity:1;fill-rule:nonzero;stroke:none"
       id="path3908" /><path
       inkscape:connector-curvature="0"
       d="m 322.2455,549.4445 0.657,-0.593 3.687,4.098 0.643,-0.582 0.555,0.619 -1.913,1.72 -0.557,-0.612 0.615,-0.559 -3.687,-4.091 z"
       style="fill:#bc9b6a;fill-opacity:1;fill-rule:nonzero;stroke:none"
       id="path3910" /><path
       inkscape:connector-curvature="0"
       d="m 331.1423,549.2515 -5.062,-3.816 1.333,-1.767 0.661,0.499 -0.8,1.061 1.66,1.255 0.531,-0.702 0.66,0.503 -0.531,0.691 1.421,1.069 0.754,-1.005 0.656,0.503 -1.283,1.709 z"
       style="fill:#bc9b6a;fill-opacity:1;fill-rule:nonzero;stroke:none"
       id="path3912" /><path
       inkscape:connector-curvature="0"
       d="m 335.8142,530.938 c -0.341,-0.115 -0.52,-0.065 -0.608,0.178 -0.089,0.255 0.019,0.404 0.355,0.521 l 3.617,1.319 c 0.339,0.123 0.522,0.068 0.611,-0.171 0.083,-0.251 -0.019,-0.403 -0.354,-0.531 l -3.621,-1.316 z m 3.577,0.372 c 0.711,0.25 0.852,0.338 1.052,0.588 0.22,0.306 0.272,0.742 0.122,1.168 -0.155,0.417 -0.48,0.723 -0.844,0.818 -0.318,0.065 -0.477,0.036 -1.186,-0.218 l -2.925,-1.069 c -0.704,-0.259 -0.848,-0.343 -1.05,-0.594 -0.233,-0.311 -0.281,-0.752 -0.131,-1.17 0.153,-0.426 0.482,-0.731 0.854,-0.811 0.315,-0.066 0.467,-0.044 1.185,0.214 l 2.923,1.074 z"
       style="fill:#bc9b6a;fill-opacity:1;fill-rule:evenodd;stroke:none"
       id="path3914" /><path
       inkscape:connector-curvature="0"
       d="m 342.3418,527.338 -6.177,-1.426 0.198,-0.861 2.829,0.661 0.2,-0.857 0.803,0.192 -0.191,0.847 1.73,0.397 0.278,-1.222 0.806,0.189 -0.476,2.08 z"
       style="fill:#bc9b6a;fill-opacity:1;fill-rule:nonzero;stroke:none"
       id="path3916" /><path
       inkscape:connector-curvature="0"
       d="m 337.6443,510.0466 -0.049,-0.884 5.509,-0.279 -0.047,-0.864 0.826,-0.047 0.131,2.572 -0.826,0.046 -0.042,-0.822 -5.502,0.278 z"
       style="fill:#bc9b6a;fill-opacity:1;fill-rule:nonzero;stroke:none"
       id="path3918" /><path
       inkscape:connector-curvature="0"
       d="m 343.2985,503.7169 -6.257,0.998 -0.353,-2.191 0.822,-0.131 0.211,1.314 2.053,-0.323 -0.143,-0.864 0.823,-0.127 0.133,0.861 1.757,-0.276 -0.199,-1.239 0.818,-0.131 0.335,2.109 z"
       style="fill:#bc9b6a;fill-opacity:1;fill-rule:nonzero;stroke:none"
       id="path3920" /><path
       inkscape:connector-curvature="0"
       d="m 337.2981,496.4168 c -0.296,0.094 -0.442,0.146 -0.638,0.211 -0.618,0.224 -0.76,0.383 -0.661,0.664 0.098,0.266 0.259,0.294 0.773,0.107 l 3.279,-1.188 c 0.516,-0.201 0.628,-0.317 0.523,-0.585 -0.1,-0.293 -0.309,-0.312 -0.971,-0.074 -0.14,0.057 -0.212,0.089 -0.401,0.178 l -0.302,-0.833 c 0.223,-0.107 0.319,-0.14 0.463,-0.192 1.038,-0.373 1.7,-0.167 1.997,0.636 0.276,0.782 -0.06,1.348 -1.005,1.693 l -3.281,1.193 c -0.942,0.346 -1.567,0.126 -1.849,-0.655 -0.295,-0.809 0.08,-1.388 1.138,-1.781 0.163,-0.051 0.311,-0.099 0.634,-0.206 l 0.301,0.832 z"
       style="fill:#bc9b6a;fill-opacity:1;fill-rule:nonzero;stroke:none"
       id="path3922" /><path
       inkscape:connector-curvature="0"
       d="m 335.3434,489.9868 -2.607,1.272 -0.388,-0.79 5.693,-2.778 0.386,0.786 -2.342,1.145 0.321,0.65 2.34,-1.136 0.387,0.79 -5.695,2.774 -0.384,-0.791 2.609,-1.272 -0.32,-0.65 z"
       style="fill:#bc9b6a;fill-opacity:1;fill-rule:nonzero;stroke:none"
       id="path3924" /><path
       inkscape:connector-curvature="0"
       d="m 334.4345,481.3733 0.454,0.748 -3.204,1.927 3.804,-0.917 0.393,0.645 -5.432,3.269 -0.455,-0.753 2.854,-1.716 -3.39,0.814 -0.451,-0.749 5.427,-3.268 z"
       style="fill:#bc9b6a;fill-opacity:1;fill-rule:nonzero;stroke:none"
       id="path3926" /><path
       inkscape:connector-curvature="0"
       d="m 326.3534,479.3206 c -0.266,0.243 -0.301,0.425 -0.124,0.617 0.176,0.196 0.353,0.173 0.624,-0.07 l 2.863,-2.572 c 0.261,-0.243 0.302,-0.426 0.125,-0.623 -0.177,-0.195 -0.353,-0.172 -0.628,0.076 l -2.86,2.572 z m 2.002,-2.993 c 0.555,-0.505 0.701,-0.589 1.02,-0.641 0.369,-0.055 0.785,0.108 1.088,0.44 0.298,0.327 0.412,0.757 0.319,1.122 -0.094,0.309 -0.188,0.444 -0.748,0.945 l -2.316,2.086 c -0.553,0.499 -0.694,0.588 -1.014,0.645 -0.383,0.061 -0.798,-0.103 -1.094,-0.425 -0.3,-0.342 -0.417,-0.767 -0.318,-1.137 0.094,-0.323 0.182,-0.439 0.757,-0.955 l 2.306,-2.08 z"
       style="fill:#bc9b6a;fill-opacity:1;fill-rule:evenodd;stroke:none"
       id="path3928" /><path
       inkscape:connector-curvature="0"
       d="m 322.0964,476.6777 -1.584,-1.425 0.545,-0.609 0.935,0.837 3.687,-4.101 0.661,0.589 -4.244,4.709 z"
       style="fill:#bc9b6a;fill-opacity:1;fill-rule:nonzero;stroke:none"
       id="path3930" /><path
       inkscape:connector-curvature="0"
       d="m 317.0356,470.9217 c -0.217,0.286 -0.217,0.476 -0.011,0.631 0.21,0.159 0.387,0.103 0.601,-0.187 l 2.321,-3.073 c 0.215,-0.29 0.215,-0.481 0.01,-0.636 -0.21,-0.163 -0.386,-0.093 -0.604,0.188 l -2.317,3.077 z m 1.391,-3.321 c 0.454,-0.593 0.576,-0.715 0.88,-0.827 0.355,-0.126 0.79,-0.038 1.15,0.219 0.356,0.281 0.552,0.674 0.529,1.043 -0.024,0.333 -0.105,0.473 -0.552,1.067 l -1.875,2.501 c -0.455,0.599 -0.576,0.698 -0.875,0.823 -0.362,0.131 -0.799,0.051 -1.155,-0.224 -0.355,-0.262 -0.556,-0.664 -0.528,-1.048 0.027,-0.317 0.096,-0.453 0.554,-1.065 l 1.872,-2.489 z"
       style="fill:#bc9b6a;fill-opacity:1;fill-rule:evenodd;stroke:none"
       id="path3932" /><path
       inkscape:connector-curvature="0"
       d="m 311.2654,465.212 1.143,0.561 -0.327,0.678 -0.348,-0.173 -0.403,0.818 c -0.149,0.319 -0.176,0.374 -0.203,0.492 -0.042,0.177 0.027,0.35 0.187,0.429 0.145,0.07 0.308,0.019 0.419,-0.107 0.077,-0.098 0.082,-0.112 0.269,-0.486 l 1.465,-3.012 c 0.246,-0.5 0.239,-0.66 -0.02,-0.786 -0.276,-0.136 -0.44,0 -0.751,0.641 -0.058,0.117 -0.105,0.206 -0.171,0.393 l -0.795,-0.393 c 0.093,-0.235 0.145,-0.346 0.204,-0.462 0.481,-0.983 1.11,-1.296 1.877,-0.918 0.739,0.366 0.894,1.001 0.449,1.913 l -1.469,3.012 c -0.245,0.514 -0.392,0.72 -0.638,0.903 -0.31,0.218 -0.727,0.271 -1.047,0.111 -0.285,-0.131 -0.449,-0.411 -0.51,-0.841 l -0.315,0.341 -0.421,-0.21 1.405,-2.904 z"
       style="fill:#bc9b6a;fill-opacity:1;fill-rule:nonzero;stroke:none"
       id="path3934" /><path
       inkscape:connector-curvature="0"
       d="m 306.4836,463.7717 -0.895,2.469 -0.831,-0.3 0.899,-2.473 0.336,-3.816 0.875,0.322 -0.342,2.353 1.253,-2.025 0.903,0.327 -2.198,3.143 z"
       style="fill:#bc9b6a;fill-opacity:1;fill-rule:nonzero;stroke:none"
       id="path3936" /><path
       inkscape:connector-curvature="0"
       d="m 245.3345,479.3954 c 0,0.369 0.295,0.659 0.66,0.659 0.367,0 0.66,-0.29 0.66,-0.659 0,-0.37 -0.293,-0.66 -0.66,-0.66 -0.365,0 -0.66,0.29 -0.66,0.66"
       style="fill:#bc9b6a;fill-opacity:1;fill-rule:nonzero;stroke:none"
       id="path3938" /><path
       inkscape:connector-curvature="0"
       d="m 340.1532,517.5883 c 0.024,0.368 0.342,0.632 0.704,0.612 0.364,-0.021 0.638,-0.343 0.612,-0.706 -0.025,-0.359 -0.338,-0.641 -0.702,-0.608 -0.363,0.022 -0.638,0.343 -0.614,0.702"
       style="fill:#bc9b6a;fill-opacity:1;fill-rule:nonzero;stroke:none"
       id="path3940" /><path
       inkscape:connector-curvature="0"
       d="m 333.1534,539.9354 c 0.039,0.363 0.36,0.626 0.724,0.588 0.364,-0.037 0.626,-0.364 0.585,-0.731 -0.035,-0.358 -0.357,-0.622 -0.723,-0.585 -0.362,0.037 -0.629,0.367 -0.586,0.728"
       style="fill:#bc9b6a;fill-opacity:1;fill-rule:nonzero;stroke:none"
       id="path3942" /><path
       inkscape:connector-curvature="0"
       d="m 236.0065,529.7639 c 0,0.364 0.293,0.657 0.659,0.657 0.365,0 0.658,-0.293 0.658,-0.657 0,-0.364 -0.293,-0.665 -0.658,-0.665 -0.366,0 -0.659,0.301 -0.659,0.665"
       style="fill:#bc9b6a;fill-opacity:1;fill-rule:nonzero;stroke:none"
       id="path3944" /><path
       inkscape:connector-curvature="0"
       d="m 234.9297,500.1671 c 0,0.365 0.296,0.66 0.664,0.66 0.362,0 0.661,-0.295 0.661,-0.66 0,-0.359 -0.299,-0.655 -0.661,-0.655 -0.368,0 -0.664,0.296 -0.664,0.655"
       style="fill:#bc9b6a;fill-opacity:1;fill-rule:nonzero;stroke:none"
       id="path3946" /><path
       inkscape:connector-curvature="0"
       d="m 284.7912,541.8224 0,0.89 c -1.253,1.353 -4.435,5.477 -1.618,9.339 0.473,3.498 2.138,4.706 2.61,5.323 0.467,0.626 0.625,2.353 1.615,2.084 0.997,-0.254 1.148,-0.515 1.517,-0.773 0.364,-0.263 0.364,-1.623 0.416,-2.564 0.053,-0.942 0.154,-2.658 1.197,-3.758 1.047,-1.094 2.455,-4.488 0.682,-6.675 -1.608,-1.997 -1.5,-3.292 -1.232,-3.866 l -5.187,0 z"
       style="fill:#bc9b6a;fill-opacity:1;fill-rule:nonzero;stroke:none"
       id="path3948" /></g></g><g
   transform="matrix(3.936911,0,0,-3.936911,-897.63498,2254.8124)"
   id="g3950"><g
     id="g3952"
     clip-path="url(#clipPath3954)"><g
       id="g3958"
       clip-path="url(#clipPath3960)"><g
         id="g3964"
         transform="translate(290.8503,545.2114)"><path
           inkscape:connector-curvature="0"
           d="m 0,0 c -1.365,-1.501 -2.353,-2.29 -2.353,-3.021 l 0,-1.569 m 0.154,18.219 C -2.455,13.262 -2.965,9.163 -2.146,4.497 -1.781,2.407 -2.77,1.988 -3.71,0.109 -4.652,-1.768 -5.067,-2.767 -4.861,-3.91 M -7.629,7.422 C -7.731,5.695 -8.146,1.466 -4.39,-1.349 m 0.837,15.654 C -3.239,13.833 -3.659,6.895 -3.71,5.798 -3.764,4.706 -5.748,2.927 -6.006,0.109"
           style="fill:#bc9b6a;fill-opacity:1;fill-rule:nonzero;stroke:#002b54;stroke-width:0.461;stroke-linecap:butt;stroke-linejoin:miter;stroke-miterlimit:3.86400008;stroke-opacity:1;stroke-dasharray:none"
           id="path3966" /></g></g></g></g><g
   transform="matrix(3.936911,0,0,-3.936911,-897.63498,2254.8124)"
   id="g3968"><g
     id="g3970"
     clip-path="url(#clipPath3972)"><g
       id="g3976"
       transform="translate(284.7912,541.8224)"><path
         inkscape:connector-curvature="0"
         d="m 0,0 0,0.89 c -1.253,1.353 -4.435,5.477 -1.618,9.339 0.473,3.498 2.138,4.706 2.61,5.323 0.467,0.626 0.625,2.353 1.615,2.084 C 3.604,17.382 3.755,17.121 4.124,16.863 4.488,16.6 4.488,15.24 4.54,14.299 4.593,13.357 4.694,11.641 5.737,10.541 6.784,9.447 8.192,6.053 6.419,3.866 4.811,1.869 4.919,0.574 5.187,0 L 0,0 z"
         style="fill:none;stroke:#002b54;stroke-width:0.461;stroke-linecap:butt;stroke-linejoin:miter;stroke-miterlimit:3.86400008;stroke-opacity:1;stroke-dasharray:none"
         id="path3978" /></g><g
       id="g3980"
       transform="translate(322.2489,507.2299)"><path
         inkscape:connector-curvature="0"
         d="m 0,0 c 0.677,-1.258 1.51,-3.76 -2.298,-4.489 m -65.813,3.914 c -0.838,-1.193 -1.361,-1.881 -1.361,-3.185"
         style="fill:none;stroke:#002b54;stroke-width:0.461;stroke-linecap:butt;stroke-linejoin:round;stroke-miterlimit:3.86400008;stroke-opacity:1;stroke-dasharray:none"
         id="path3982" /></g><path
       inkscape:connector-curvature="0"
       d="m 249.4086,502.2671 c -2.09,0.78 -1.569,2.091 -1.361,2.815 0.209,0.728 1.149,2.612 1.878,3.657 1.777,0.725 3.028,-0.528 4.178,-2.095 1.775,0.94 5.948,0.636 6.156,-5.425 -2.189,-2.716 -5.634,-3.811 -4.906,-6.682 5.952,-1.983 24.427,2.717 26.202,0.112 -0.105,-2.721 0.309,-4.395 0.209,-5.752 2.085,0 7.404,0.479 10.117,0.162 -0.103,2.814 -0.198,5.59 -0.198,5.59 2.814,4.064 20.135,-4.54 29.639,2.353 -1.464,1.675 -1.238,1.084 -2.505,1.192 -1.246,0.103 -6.264,2.922 -2.607,8.342 2.235,3.321 5.429,1.885 6.061,0.636 1.875,2.086 3.02,2.395 4.377,1.354 0.416,-1.46 0.313,-2.087 0.523,-3.341 0.207,-1.253 -0.311,-2.502 -3.133,-3.858 0.838,1.455 0.94,2.132 1.046,3.334 -2.61,-2.188 -5.638,-3.965 -6.267,-2.296 -0.624,1.674 3.034,1.993 1.256,3.765 -1.773,1.767 -4.903,-3.971 -0.209,-7.52 1.803,-1.361 1.672,-1.776 1.564,-3.662 -0.102,-1.87 0,-2.815 0,-4.063 0,-1.254 -1.411,-1.576 -3.857,-1.988 -6.266,-1.043 -15.662,0.108 -21.194,1.053 0.941,-2.615 2.297,-4.387 2.091,-5.644 -0.21,-1.249 -0.94,-1.465 -6.477,-0.622 -5.531,0.832 -11.058,-0.422 -13.884,-1.259 -2.816,-0.828 -3.547,0.632 -2.607,1.67 0.937,1.047 2.089,3.549 2.193,5.643 -5.324,0.212 -17.655,-3.521 -24.74,-0.214 -0.782,0.369 -0.523,1.669 -0.627,2.927 -0.105,1.258 -0.414,3.76 0.737,4.588 1.146,0.841 2.815,1.884 4.689,2.193 0.421,1.567 0.109,1.884 -0.103,2.619 -1.456,-0.94 -4.907,-0.735 -4.907,1.557 -1.04,1.146 -1.563,1.356 -2.921,1.459 -0.358,-0.799 -0.522,-1.459 -0.413,-2.6"
       style="fill:#ffffff;fill-opacity:1;fill-rule:nonzero;stroke:none"
       id="path3984" /><g
       id="g3986"
       transform="translate(249.4086,502.2671)"><path
         inkscape:connector-curvature="0"
         d="m 0,0 c -2.09,0.78 -1.569,2.091 -1.361,2.815 0.209,0.728 1.149,2.612 1.878,3.657 1.777,0.725 3.028,-0.528 4.178,-2.095 1.775,0.94 5.948,0.636 6.156,-5.425 -2.189,-2.716 -5.634,-3.811 -4.906,-6.682 5.952,-1.983 24.427,2.717 26.202,0.112 -0.105,-2.721 0.309,-4.395 0.209,-5.752 2.085,0 7.404,0.479 10.117,0.162 -0.103,2.814 -0.198,5.59 -0.198,5.59 2.814,4.064 20.135,-4.54 29.639,2.353 -1.464,1.675 -1.238,1.084 -2.505,1.192 -1.246,0.103 -6.264,2.922 -2.607,8.342 2.235,3.321 5.429,1.885 6.061,0.636 1.875,2.086 3.02,2.395 4.377,1.354 0.416,-1.46 0.313,-2.087 0.523,-3.341 0.207,-1.253 -0.311,-2.502 -3.133,-3.858 0.838,1.455 0.94,2.132 1.046,3.334 -2.61,-2.188 -5.638,-3.965 -6.267,-2.296 -0.624,1.674 3.034,1.993 1.256,3.765 -1.773,1.767 -4.903,-3.971 -0.209,-7.52 1.803,-1.361 1.672,-1.776 1.564,-3.662 -0.102,-1.87 0,-2.815 0,-4.063 0,-1.254 -1.411,-1.576 -3.857,-1.988 -6.266,-1.043 -15.662,0.108 -21.194,1.053 0.941,-2.615 2.297,-4.387 2.091,-5.644 -0.21,-1.249 -0.94,-1.465 -6.477,-0.622 -5.531,0.832 -11.058,-0.422 -13.884,-1.259 -2.816,-0.828 -3.547,0.632 -2.607,1.67 0.937,1.047 2.089,3.549 2.193,5.643 -5.324,0.212 -17.655,-3.521 -24.74,-0.214 -0.782,0.369 -0.523,1.669 -0.627,2.927 -0.105,1.258 -0.414,3.76 0.737,4.588 1.146,0.841 2.815,1.884 4.689,2.193 0.421,1.567 0.109,1.884 -0.103,2.619 C 6.785,-1.356 3.334,-1.151 3.334,1.141 2.294,2.287 1.771,2.497 0.413,2.6 0.055,1.801 -0.109,1.141 0,0 z"
         style="fill:none;stroke:#002b54;stroke-width:0.461;stroke-linecap:butt;stroke-linejoin:round;stroke-miterlimit:3.86400008;stroke-opacity:1;stroke-dasharray:none"
         id="path3988" /></g><path
       inkscape:connector-curvature="0"
       d="m 247.7682,503.7321 c 0.107,1.229 1.714,1.517 2.339,1.266 0.246,-0.098 -1.012,-0.906 -0.61,-2.834 0,0 -1.768,1.125 -1.729,1.568"
       style="fill:#002b54;fill-opacity:1;fill-rule:nonzero;stroke:none"
       id="path3990" /><path
       inkscape:connector-curvature="0"
       d="m 253.9811,501.8006 c -0.312,0.131 -1.535,1.078 -0.31,2.01 1.853,1.41 3.711,-0.867 4.126,-1.751 0,0 0.457,-0.538 -1.954,-0.699 -1.451,-0.096 -1.862,0.44 -1.862,0.44"
       style="fill:#002b54;fill-opacity:1;fill-rule:nonzero;stroke:none"
       id="path3992" /><path
       inkscape:connector-curvature="0"
       d="m 324.8122,504.7116 c 0.873,0.779 1.439,1.034 2.371,0.826 0.402,-0.089 -0.161,-2.008 -0.804,-2.731 -0.906,-1.019 -2.249,-1.365 -2.088,-1.044 1.35,2.701 0.521,2.949 0.521,2.949"
       style="fill:#002b54;fill-opacity:1;fill-rule:nonzero;stroke:none"
       id="path3994" /><path
       inkscape:connector-curvature="0"
       d="m 255.2476,495.8068 c -0.369,-1.023 0.803,-1.607 0.803,-1.607 0,0 -1.044,0.081 -2.652,0.531 -0.925,0.259 -1.152,0.664 -0.883,1.398 0.697,1.901 5.624,3.133 5.624,3.133 0,0 -2.169,-1.447 -2.892,-3.455"
       style="fill:#002b54;fill-opacity:1;fill-rule:nonzero;stroke:none"
       id="path3996" /><g
       id="g3998"
       transform="translate(296.4274,489.9499)"><path
         inkscape:connector-curvature="0"
         d="m 0,0 0,0 c -1.775,0.576 -3.412,0.682 -4.225,-0.109 -1.88,-1.827 5.635,-2.3 6.21,-5.484 m -20.719,5.433 0,0 c 1.254,0.104 3.878,0.408 4.018,-0.523 0.207,-1.361 -4.489,-3.704 -5.954,-4.751"
         style="fill:#ffffff;fill-opacity:1;fill-rule:nonzero;stroke:#002b54;stroke-width:0.461;stroke-linecap:butt;stroke-linejoin:round;stroke-miterlimit:3.86400008;stroke-opacity:1;stroke-dasharray:none"
         id="path4000" /></g><path
       inkscape:connector-curvature="0"
       d="m 256.4452,492.1754 c 0.263,-0.037 0.538,-0.07 0.492,-0.439 -0.023,-0.15 -0.104,-0.262 -0.241,-0.3 -0.086,-0.022 -0.186,-0.009 -0.344,0.01 l -0.268,0.042 0.106,0.724 0.255,-0.037 z m -0.065,-1.314 c 0.389,-0.047 0.628,-0.056 0.879,0.102 0.081,0.062 0.303,0.216 0.364,0.674 0.015,0.099 0.071,0.51 -0.247,0.796 -0.217,0.195 -0.489,0.238 -0.744,0.266 l -1.04,0.15 -0.369,-2.624 0.673,-0.098 0.109,0.786 0.375,-0.052 z"
       style="fill:#002b54;fill-opacity:1;fill-rule:evenodd;stroke:none"
       id="path4002" /><path
       inkscape:connector-curvature="0"
       d="m 259.3588,491.8951 c 0.169,-0.01 0.361,-0.019 0.467,-0.093 0.039,-0.034 0.119,-0.122 0.114,-0.272 -0.006,-0.103 -0.055,-0.234 -0.195,-0.281 -0.093,-0.047 -0.205,-0.037 -0.456,-0.028 l -0.23,0.02 0.037,0.668 0.263,-0.014 z m -0.907,0.594 -0.143,-2.642 0.676,-0.038 0.048,0.893 0.344,-0.018 0.436,-0.917 0.736,-0.037 -0.491,1.033 c 0.367,0.089 0.558,0.398 0.581,0.73 0.012,0.294 -0.095,0.528 -0.248,0.674 -0.254,0.243 -0.61,0.261 -0.899,0.276 l -1.04,0.046 z"
       style="fill:#002b54;fill-opacity:1;fill-rule:evenodd;stroke:none"
       id="path4004" /><path
       inkscape:connector-curvature="0"
       d="m 262.5529,491.9789 c 0.429,0.042 0.636,-0.308 0.668,-0.743 0.011,-0.225 -0.012,-0.459 -0.151,-0.631 -0.06,-0.075 -0.194,-0.192 -0.4,-0.206 -0.414,-0.024 -0.639,0.308 -0.674,0.766 -0.026,0.435 0.153,0.782 0.557,0.814 m -0.035,0.58 c -0.24,-0.014 -0.56,-0.088 -0.846,-0.36 -0.387,-0.374 -0.401,-0.841 -0.387,-1.09 0.024,-0.369 0.169,-0.715 0.436,-0.963 0.363,-0.332 0.77,-0.336 0.983,-0.322 0.245,0.018 0.564,0.084 0.845,0.365 0.391,0.378 0.4,0.85 0.382,1.089 -0.051,0.743 -0.579,1.337 -1.413,1.281"
       style="fill:#002b54;fill-opacity:1;fill-rule:evenodd;stroke:none"
       id="path4006" /><path
       inkscape:connector-curvature="0"
       d="m 266.0988,491.6 0.051,-0.528 0.488,0.06 c -0.008,-0.27 -0.285,-0.396 -0.505,-0.425 -0.525,-0.047 -0.668,0.436 -0.696,0.73 -0.022,0.229 0.002,0.458 0.155,0.631 0.097,0.117 0.265,0.202 0.433,0.224 0.392,0.033 0.595,-0.252 0.655,-0.336 l 0.438,0.406 c -0.147,0.156 -0.498,0.566 -1.218,0.487 -0.853,-0.089 -1.241,-0.772 -1.167,-1.52 0.084,-0.799 0.65,-1.299 1.431,-1.211 0.433,0.042 0.577,0.257 0.63,0.346 l 0.025,-0.238 0.513,0.065 -0.146,1.426 -1.087,-0.117 z"
       style="fill:#002b54;fill-opacity:1;fill-rule:nonzero;stroke:none"
       id="path4008" /><path
       inkscape:connector-curvature="0"
       d="m 269.1535,492.6287 c 0.166,0.024 0.359,0.043 0.476,-0.018 0.042,-0.019 0.137,-0.079 0.154,-0.239 0.013,-0.112 -0.012,-0.243 -0.141,-0.318 -0.085,-0.051 -0.197,-0.065 -0.442,-0.098 l -0.228,-0.023 -0.083,0.664 0.264,0.032 z m -1.002,0.431 0.322,-2.633 0.672,0.079 -0.106,0.894 0.34,0.042 0.584,-0.837 0.731,0.098 -0.656,0.93 c 0.343,0.155 0.481,0.491 0.441,0.828 -0.034,0.281 -0.182,0.496 -0.355,0.618 -0.294,0.191 -0.647,0.153 -0.939,0.112 l -1.034,-0.131 z"
       style="fill:#002b54;fill-opacity:1;fill-rule:evenodd;stroke:none"
       id="path4010" /><path
       inkscape:connector-curvature="0"
       d="m 272.3159,491.465 -0.076,0.613 1.046,0.135 -0.064,0.505 -1.045,-0.127 -0.053,0.426 1.319,0.159 -0.061,0.534 -1.986,-0.244 0.323,-2.633 2.096,0.258 -0.065,0.551 -1.434,-0.177 z"
       style="fill:#002b54;fill-opacity:1;fill-rule:nonzero;stroke:none"
       id="path4012" /><path
       inkscape:connector-curvature="0"
       d="m 275.6129,492.3441 c 0.294,-0.015 0.379,-0.019 0.457,-0.098 0.018,-0.029 0.034,-0.071 0.04,-0.108 0.007,-0.07 -0.024,-0.135 -0.08,-0.187 -0.094,-0.08 -0.263,-0.112 -0.343,-0.117 -0.431,-0.046 -0.638,0.169 -0.758,0.295 l -0.459,-0.449 c 0.331,-0.384 0.88,-0.439 1.248,-0.393 0.558,0.051 1.127,0.35 1.053,1.01 -0.059,0.562 -0.471,0.641 -0.594,0.669 -0.113,0.018 -0.147,0.032 -0.554,0.046 -0.272,0.015 -0.396,0.019 -0.463,0.071 -0.039,0.027 -0.07,0.084 -0.081,0.126 -0.016,0.164 0.157,0.248 0.349,0.276 0.36,0.032 0.576,-0.173 0.689,-0.276 l 0.424,0.411 c -0.311,0.341 -0.769,0.426 -1.17,0.385 -0.551,-0.061 -1.014,-0.352 -0.955,-0.946 0.022,-0.21 0.125,-0.407 0.302,-0.528 0.211,-0.145 0.477,-0.164 0.713,-0.182 l 0.182,-0.005 z"
       style="fill:#002b54;fill-opacity:1;fill-rule:nonzero;stroke:none"
       id="path4014" /><path
       inkscape:connector-curvature="0"
       d="m 278.7983,492.5913 c 0.292,-0.037 0.383,-0.046 0.449,-0.14 0.02,-0.023 0.032,-0.065 0.032,-0.102 0,-0.075 -0.033,-0.136 -0.098,-0.178 -0.101,-0.075 -0.267,-0.094 -0.35,-0.094 -0.432,-0.004 -0.621,0.22 -0.725,0.365 l -0.501,-0.412 c 0.299,-0.411 0.834,-0.509 1.209,-0.5 0.561,0.01 1.152,0.257 1.137,0.916 -0.009,0.566 -0.413,0.683 -0.536,0.721 -0.109,0.033 -0.148,0.033 -0.543,0.094 -0.272,0.032 -0.393,0.051 -0.457,0.111 -0.042,0.033 -0.068,0.076 -0.068,0.131 0,0.154 0.178,0.23 0.37,0.239 0.359,0.005 0.562,-0.225 0.662,-0.328 l 0.452,0.37 c -0.277,0.37 -0.721,0.491 -1.123,0.486 -0.557,-0.014 -1.046,-0.261 -1.039,-0.856 0.006,-0.214 0.094,-0.416 0.256,-0.556 0.198,-0.159 0.466,-0.206 0.7,-0.248 l 0.173,-0.019 z"
       style="fill:#002b54;fill-opacity:1;fill-rule:nonzero;stroke:none"
       id="path4016" /><path
       inkscape:connector-curvature="0"
       d="m 283.6364,486.7604 0.447,-0.884 -0.635,-0.098 0.188,0.982 z m -0.447,0.814 -0.576,-2.759 0.661,0.088 0.074,0.374 0.975,0.131 0.172,-0.322 0.711,0.093 -1.361,2.484 -0.656,-0.089 z"
       style="fill:#002b54;fill-opacity:1;fill-rule:evenodd;stroke:none"
       id="path4018" /><path
       inkscape:connector-curvature="0"
       d="m 287.6159,487.8545 0.027,-1.58 -0.994,1.562 -0.652,-0.015 0.051,-2.651 0.63,0.014 -0.024,1.589 0.983,-1.566 0.661,0.005 -0.044,2.656 -0.638,-0.014 z"
       style="fill:#002b54;fill-opacity:1;fill-rule:nonzero;stroke:none"
       id="path4020" /><path
       inkscape:connector-curvature="0"
       d="m 290.6566,487.1673 c 0.208,-0.029 0.542,-0.061 0.638,-0.477 0.028,-0.122 0.028,-0.248 0.019,-0.37 -0.01,-0.097 -0.024,-0.172 -0.049,-0.257 -0.14,-0.397 -0.447,-0.388 -0.741,-0.369 l -0.276,0.028 0.131,1.469 0.278,-0.024 z m -0.889,0.674 -0.229,-2.652 0.706,-0.056 c 0.457,-0.042 0.732,-0.066 0.978,0.009 0.467,0.126 0.629,0.5 0.692,0.664 0.058,0.159 0.091,0.323 0.109,0.486 0.043,0.468 -0.1,0.828 -0.275,1.025 -0.309,0.365 -0.776,0.406 -1.431,0.467 l -0.55,0.057 z"
       style="fill:#002b54;fill-opacity:1;fill-rule:evenodd;stroke:none"
       id="path4022" /><path
       inkscape:connector-curvature="0"
       d="m 298.8377,492.1428 c 0.285,-0.079 0.365,-0.103 0.416,-0.206 0.015,-0.028 0.019,-0.061 0.015,-0.112 -0.008,-0.066 -0.057,-0.117 -0.125,-0.159 -0.11,-0.06 -0.277,-0.046 -0.357,-0.028 -0.428,0.061 -0.576,0.313 -0.66,0.468 l -0.556,-0.318 c 0.229,-0.459 0.744,-0.646 1.113,-0.697 0.554,-0.07 1.174,0.074 1.269,0.734 0.08,0.561 -0.296,0.739 -0.414,0.786 -0.103,0.061 -0.142,0.07 -0.528,0.182 -0.259,0.075 -0.374,0.122 -0.431,0.177 -0.032,0.043 -0.053,0.095 -0.051,0.151 0.029,0.149 0.218,0.205 0.407,0.177 0.356,-0.047 0.515,-0.299 0.603,-0.435 l 0.508,0.304 c -0.218,0.398 -0.638,0.59 -1.043,0.655 -0.544,0.069 -1.069,-0.098 -1.15,-0.683 -0.026,-0.21 0.023,-0.44 0.164,-0.593 0.166,-0.193 0.423,-0.276 0.643,-0.351 l 0.177,-0.052 z"
       style="fill:#002b54;fill-opacity:1;fill-rule:nonzero;stroke:none"
       id="path4024" /><path
       inkscape:connector-curvature="0"
       d="m 301.6013,491.2869 0.084,0.603 1.043,-0.14 0.075,0.51 -1.041,0.154 0.054,0.417 1.321,-0.179 0.071,0.525 -1.972,0.271 -0.374,-2.633 2.096,-0.286 0.074,0.557 -1.431,0.201 z"
       style="fill:#002b54;fill-opacity:1;fill-rule:nonzero;stroke:none"
       id="path4026" /><path
       inkscape:connector-curvature="0"
       d="m 305.146,492.4653 c 0.169,-0.014 0.361,-0.037 0.464,-0.116 0.041,-0.034 0.121,-0.117 0.102,-0.272 -0.007,-0.103 -0.061,-0.229 -0.201,-0.275 -0.098,-0.034 -0.211,-0.034 -0.458,-0.015 l -0.224,0.038 0.053,0.659 0.264,-0.019 z m -0.885,0.627 -0.23,-2.642 0.671,-0.056 0.075,0.892 0.341,-0.027 0.407,-0.935 0.734,-0.075 -0.451,1.052 c 0.37,0.084 0.573,0.378 0.601,0.72 0.028,0.285 -0.073,0.524 -0.22,0.678 -0.248,0.253 -0.601,0.271 -0.898,0.299 l -1.03,0.094 z"
       style="fill:#002b54;fill-opacity:1;fill-rule:evenodd;stroke:none"
       id="path4028" /><path
       inkscape:connector-curvature="0"
       d="m 308.6348,492.732 -0.51,-1.758 -0.508,1.758 -0.663,0 0.802,-2.652 0.743,0 0.805,2.652 -0.669,0 z"
       style="fill:#002b54;fill-opacity:1;fill-rule:nonzero;stroke:none"
       id="path4030" /><path
       inkscape:connector-curvature="0"
       d="m 310.8448,492.7183 -0.69,0 -0.014,-2.651 0.687,0 0.017,2.651 z"
       style="fill:#002b54;fill-opacity:1;fill-rule:nonzero;stroke:none"
       id="path4032" /><path
       inkscape:connector-curvature="0"
       d="m 314.218,492.2598 c -0.075,0.089 -0.198,0.258 -0.472,0.393 -0.154,0.065 -0.344,0.107 -0.57,0.107 -0.22,0 -0.623,-0.042 -0.948,-0.392 -0.32,-0.347 -0.347,-0.748 -0.347,-0.94 0,-0.725 0.458,-1.418 1.332,-1.418 0.358,0 0.706,0.136 0.954,0.389 0.019,0.028 0.045,0.051 0.07,0.084 l -0.472,0.421 c -0.075,-0.103 -0.225,-0.309 -0.529,-0.309 -0.336,0 -0.645,0.258 -0.645,0.824 0,0.476 0.274,0.757 0.589,0.757 0.295,0 0.456,-0.201 0.547,-0.318 l 0.491,0.402 z"
       style="fill:#002b54;fill-opacity:1;fill-rule:nonzero;stroke:none"
       id="path4034" /><path
       inkscape:connector-curvature="0"
       d="m 315.7431,490.8521 -0.114,0.599 1.03,0.201 -0.097,0.519 -1.036,-0.206 -0.083,0.421 1.305,0.253 -0.1,0.527 -1.962,-0.383 0.501,-2.605 2.081,0.399 -0.113,0.547 -1.412,-0.272 z"
       style="fill:#002b54;fill-opacity:1;fill-rule:nonzero;stroke:none"
       id="path4036" /><g
       id="g4038"
       transform="translate(291.773,492.246)"><path
         inkscape:connector-curvature="0"
         d="M 0,0 -10.234,0"
         style="fill:none;stroke:#002b54;stroke-width:0.461;stroke-linecap:butt;stroke-linejoin:miter;stroke-miterlimit:3.86400008;stroke-opacity:1;stroke-dasharray:none"
         id="path4040" /></g><g
       id="g4042"
       transform="translate(276.3366,495.5804)"><path
         inkscape:connector-curvature="0"
         d="m 0,0 c 0,0.229 -0.119,0.694 0.42,0.944 l 21.605,0 c 0.469,-0.068 0.415,-0.82 0.415,-1.049"
         style="fill:none;stroke:#002b54;stroke-width:0.461;stroke-linecap:butt;stroke-linejoin:miter;stroke-miterlimit:3.86400008;stroke-opacity:1;stroke-dasharray:none"
         id="path4044" /></g><g
       id="g4046"
       transform="translate(278.8781,496.719)"><path
         inkscape:connector-curvature="0"
         d="m 0,0 0,1.761 c 0,0.228 0.188,0.415 0.418,0.415 l 2.071,0 c 0.229,0 0.416,-0.187 0.416,-0.415 L 2.905,0"
         style="fill:none;stroke:#002b54;stroke-width:0.31299999;stroke-linecap:butt;stroke-linejoin:miter;stroke-miterlimit:3.86400008;stroke-opacity:1;stroke-dasharray:none"
         id="path4048" /></g><g
       id="g4050"
       transform="translate(279.1725,499.8909)"><path
         inkscape:connector-curvature="0"
         d="M 0,0 2.341,0"
         style="fill:none;stroke:#002b54;stroke-width:0.31299999;stroke-linecap:butt;stroke-linejoin:miter;stroke-miterlimit:3.86400008;stroke-opacity:1;stroke-dasharray:none"
         id="path4052" /></g><g
       id="g4054"
       transform="translate(286.4821,499.8753)"><path
         inkscape:connector-curvature="0"
         d="M 0,0 2.342,0"
         style="fill:#ffffff;fill-opacity:1;fill-rule:nonzero;stroke:#002b54;stroke-width:0.31299999;stroke-linecap:butt;stroke-linejoin:miter;stroke-miterlimit:3.86400008;stroke-opacity:1;stroke-dasharray:none"
         id="path4056" /></g><g
       id="g4058"
       transform="translate(286.1377,496.5225)"><path
         inkscape:connector-curvature="0"
         d="m 0,0 0,1.953 c 0,0.229 0.188,0.416 0.418,0.416 l 2.071,0 c 0.229,0 0.416,-0.187 0.416,-0.416 L 2.905,0"
         style="fill:#ffffff;fill-opacity:1;fill-rule:nonzero;stroke:#002b54;stroke-width:0.31299999;stroke-linecap:butt;stroke-linejoin:miter;stroke-miterlimit:3.86400008;stroke-opacity:1;stroke-dasharray:none"
         id="path4060" /></g><g
       id="g4062"
       transform="translate(293.2772,496.6314)"><path
         inkscape:connector-curvature="0"
         d="m 0,0 0,1.848 c 0,0.229 0.188,0.416 0.419,0.416 l 2.07,0 c 0.229,0 0.416,-0.187 0.416,-0.416 L 2.905,0"
         style="fill:none;stroke:#002b54;stroke-width:0.31299999;stroke-linecap:butt;stroke-linejoin:miter;stroke-miterlimit:3.86400008;stroke-opacity:1;stroke-dasharray:none"
         id="path4064" /></g><g
       id="g4066"
       transform="translate(293.5979,499.8791)"><path
         inkscape:connector-curvature="0"
         d="M 0,0 2.342,0"
         style="fill:none;stroke:#002b54;stroke-width:0.31299999;stroke-linecap:butt;stroke-linejoin:miter;stroke-miterlimit:3.86400008;stroke-opacity:1;stroke-dasharray:none"
         id="path4068" /></g><g
       id="g4070"
       transform="translate(279.9367,502.0886)"><path
         inkscape:connector-curvature="0"
         d="M 0,0 C 0.275,0.013 0.724,0.113 1.074,0.237 1.302,0.318 1.499,0.525 1.499,0.525 L 1.48,-2.244 c 0,0 -0.038,-0.621 0.374,-1.034 l 0,-2.269 -2.922,0 0,2.269 c 0.41,0.413 0.371,1.034 0.371,1.034 l 0.013,2.144 c 0,0 0.122,0.074 0.684,0.1 z"
         style="fill:none;stroke:#002b54;stroke-width:0.461;stroke-linecap:butt;stroke-linejoin:round;stroke-miterlimit:3.86400008;stroke-opacity:1;stroke-dasharray:none"
         id="path4072" /></g><g
       id="g4074"
       transform="translate(280.4612,503.9125)"><path
         inkscape:connector-curvature="0"
         d="m 0,0 c -0.924,-0.345 -1.207,-0.325 -1.207,-0.325 l 0,2.324 c 0,0 0.445,0.486 1.02,0.823 0.632,0.371 1.136,0.638 1.136,0.638 l 0,-2.587 C 0.949,0.873 0.837,0.312 0,0 z"
         style="fill:none;stroke:#002b54;stroke-width:0.461;stroke-linecap:butt;stroke-linejoin:miter;stroke-miterlimit:3.86400008;stroke-opacity:1;stroke-dasharray:none"
         id="path4076" /></g><g
       id="g4078"
       transform="translate(280.3769,508.2979)"><path
         inkscape:connector-curvature="0"
         d="m 0,0 c 0.396,0.223 0.895,0.523 1.02,0.798 0,0 0.02,0.425 0.02,0.889 0,0.36 0.011,0.676 0.142,1.06 0.172,0.089 0.258,0.313 0.293,0.57 0.091,0.133 0.21,0.279 0.346,0.439 l -3.443,0 C -1.54,3.666 -1.761,3.57 -1.697,3.495 -1.668,3.13 -1.579,2.789 -1.311,2.718 c 10e-4,-0.205 0.059,-0.36 0.136,-0.471 0.028,-0.185 0.028,-0.371 0.038,-0.56 0.009,-0.153 0.015,-2.294 0.015,-2.294 0,0 0.73,0.386 1.122,0.607 z"
         style="fill:none;stroke:#002b54;stroke-width:0.461;stroke-linecap:butt;stroke-linejoin:round;stroke-miterlimit:3.86400008;stroke-opacity:1;stroke-dasharray:none"
         id="path4080" /></g><g
       id="g4082"
       transform="translate(288.6882,508.1213)"><path
         inkscape:connector-curvature="0"
         d="m 0,0 0.017,-8.232 c 0,0 -0.038,-0.622 0.373,-1.033 l 0,-2.315 -2.922,0 0,2.315 c 0.411,0.411 0.372,1.033 0.372,1.033 l 0.012,8.257 c 0,0 0.203,-0.037 1.015,-0.037 1.037,0 1.137,0.025 1.137,0.025"
         style="fill:none;stroke:#002b54;stroke-width:0.461;stroke-linecap:butt;stroke-linejoin:round;stroke-miterlimit:3.86400008;stroke-opacity:1;stroke-dasharray:none"
         id="path4084" /></g><g
       id="g4086"
       transform="translate(288.6295,509.8074)"><path
         inkscape:connector-curvature="0"
         d="m 0,0 c 0.021,0.348 0,0.854 0.133,1.238 0.171,0.088 0.255,0.313 0.294,0.57 0.091,0.133 0.206,0.279 0.349,0.439 l -3.747,0 c 0.084,-0.091 0.159,-0.187 0.222,-0.261 0.029,-0.365 0.122,-0.707 0.384,-0.777 0.005,-0.206 0.062,-0.36 0.144,-0.472 0.02,-0.185 0.019,-0.535 0.035,-0.724 0,0 0.297,-0.091 1.137,-0.075 C -0.211,-0.046 0,0 0,0 z"
         style="fill:none;stroke:#002b54;stroke-width:0.461;stroke-linecap:butt;stroke-linejoin:round;stroke-miterlimit:3.86400008;stroke-opacity:1;stroke-dasharray:none"
         id="path4088" /></g><g
       id="g4090"
       transform="translate(293.6685,508.9331)"><path
         inkscape:connector-curvature="0"
         d="m 0,0 c 0,0 -0.005,0.875 -0.017,1.069 -0.025,0.348 -0.011,0.676 -0.142,1.06 -0.171,0.088 -0.258,0.312 -0.294,0.57 -0.09,0.133 -0.209,0.279 -0.345,0.438 l 3.653,0 C 2.772,3.047 2.784,2.951 2.719,2.877 2.692,2.512 2.602,2.17 2.334,2.1 2.333,1.894 2.275,1.74 2.198,1.628 2.17,1.443 2.17,1.258 2.16,1.069 2.151,0.915 2.146,-1.249 2.146,-1.249 c 0,0 -0.191,0.238 -0.603,0.375 -0.412,0.137 -0.774,0.225 -1.187,0.512 -0.188,0.131 -0.361,0.45 -0.361,0.45"
         style="fill:none;stroke:#002b54;stroke-width:0.461;stroke-linecap:butt;stroke-linejoin:round;stroke-miterlimit:3.86400008;stroke-opacity:1;stroke-dasharray:none"
         id="path4092" /></g><g
       id="g4094"
       transform="translate(294.7919,506.8912)"><path
         inkscape:connector-curvature="0"
         d="m 0,0 c -0.91,0.38 -1.145,0.546 -1.145,0.546 l 0,-2.324 c 0,0 -0.273,-0.641 0.67,-1.172 0.639,-0.359 1.486,-0.478 1.486,-0.478 l 0,2.427 c 0,0 -0.139,0.637 -1.011,1.001 z"
         style="fill:none;stroke:#002b54;stroke-width:0.461;stroke-linecap:butt;stroke-linejoin:miter;stroke-miterlimit:3.86400008;stroke-opacity:1;stroke-dasharray:none"
         id="path4096" /></g><g
       id="g4098"
       transform="translate(293.6623,502.5916)"><path
         inkscape:connector-curvature="0"
         d="m 0,0 c -0.005,-2.458 -0.016,-2.747 -0.016,-2.747 0,0 0.043,-0.621 -0.368,-1.034 l 0,-2.27 2.918,0 0,2.27 c -0.416,0.413 -0.365,1.034 -0.365,1.034 0,0 -0.013,-0.444 -0.019,2.014 0,0 -0.202,-0.007 -1.164,0.327 C 0.101,-0.1 0,0 0,0 z"
         style="fill:none;stroke:#002b54;stroke-width:0.461;stroke-linecap:butt;stroke-linejoin:miter;stroke-miterlimit:3.86400008;stroke-opacity:1;stroke-dasharray:none"
         id="path4100" /></g><g
       id="g4102"
       transform="translate(278.6711,512.0467)"><path
         inkscape:connector-curvature="0"
         d="m 0,0 c 0,-0.481 0.079,-1.044 0.496,-1.044 0.233,0 0.358,0.03 0.485,0.248 0,0 0.219,-0.51 0.626,-0.51 0.406,0 0.623,0.51 0.623,0.51 0.129,-0.218 0.248,-0.248 0.481,-0.248 0.421,0 0.498,0.563 0.498,1.044 M 0.394,-1.001 c 0,-1.02 1.224,-0.829 1.224,-0.291 M 0,0 c 0,-0.481 0.079,-1.044 0.496,-1.044 0.233,0 0.358,0.03 0.485,0.248"
         style="fill:none;stroke:#002b54;stroke-width:0.31299999;stroke-linecap:round;stroke-linejoin:round;stroke-miterlimit:3.86400008;stroke-opacity:1;stroke-dasharray:none"
         id="path4104" /></g><g
       id="g4106"
       transform="translate(279.2023,512.0642)"><path
         inkscape:connector-curvature="0"
         d="m 0,0 c 0,-0.407 0.037,-0.814 0.461,-0.814 0.455,0 0.406,0.498 0.406,0.797 C 0.644,-0.017 0.266,0 0,0 z"
         style="fill:none;stroke:#002b54;stroke-width:0.31299999;stroke-linecap:butt;stroke-linejoin:miter;stroke-miterlimit:3.86400008;stroke-opacity:1;stroke-dasharray:none"
         id="path4108" /></g><g
       id="g4110"
       transform="translate(281.4897,511.045)"><path
         inkscape:connector-curvature="0"
         d="M 0,0 C 0,-1.02 -1.226,-0.828 -1.226,-0.29"
         style="fill:none;stroke:#002b54;stroke-width:0.31299999;stroke-linecap:butt;stroke-linejoin:miter;stroke-miterlimit:3.86400008;stroke-opacity:1;stroke-dasharray:none"
         id="path4112" /></g><g
       id="g4114"
       transform="translate(281.3472,512.0642)"><path
         inkscape:connector-curvature="0"
         d="m 0,0 c 0,-0.407 -0.031,-0.814 -0.456,-0.814 -0.459,0 -0.408,0.498 -0.408,0.797 C -0.64,-0.017 -0.262,0 0,0 z"
         style="fill:none;stroke:#002b54;stroke-width:0.31299999;stroke-linecap:butt;stroke-linejoin:miter;stroke-miterlimit:3.86400008;stroke-opacity:1;stroke-dasharray:none"
         id="path4116" /></g><g
       id="g4118"
       transform="translate(285.8985,511.9894)"><path
         inkscape:connector-curvature="0"
         d="m 0,0 c 0,-0.481 0.08,-1.044 0.498,-1.044 0.236,0 0.351,0.03 0.479,0.248 0,0 0.225,-0.51 0.623,-0.51 0.406,0 0.633,0.51 0.633,0.51 0.133,-0.218 0.248,-0.248 0.479,-0.248 0.417,0 0.494,0.563 0.494,1.044"
         style="fill:none;stroke:#002b54;stroke-width:0.31299999;stroke-linecap:butt;stroke-linejoin:round;stroke-miterlimit:3.86400008;stroke-opacity:1;stroke-dasharray:none"
         id="path4120" /></g><g
       id="g4122"
       transform="translate(286.2911,510.9877)"><path
         inkscape:connector-curvature="0"
         d="M 0,0 C 0,-1.02 1.223,-0.828 1.223,-0.291"
         style="fill:none;stroke:#002b54;stroke-width:0.31299999;stroke-linecap:butt;stroke-linejoin:round;stroke-miterlimit:3.86400008;stroke-opacity:1;stroke-dasharray:none"
         id="path4124" /></g><g
       id="g4126"
       transform="translate(286.4314,512.007)"><path
         inkscape:connector-curvature="0"
         d="m 0,0 c 0,-0.407 0.029,-0.814 0.458,-0.814 0.459,0 0.407,0.498 0.407,0.797 C 0.641,-0.017 0.259,0 0,0 z"
         style="fill:none;stroke:#002b54;stroke-width:0.31299999;stroke-linecap:butt;stroke-linejoin:miter;stroke-miterlimit:3.86400008;stroke-opacity:1;stroke-dasharray:none"
         id="path4128" /></g><g
       id="g4130"
       transform="translate(288.7185,510.9877)"><path
         inkscape:connector-curvature="0"
         d="M 0,0 C 0,-1.02 -1.23,-0.828 -1.23,-0.291"
         style="fill:none;stroke:#002b54;stroke-width:0.31299999;stroke-linecap:butt;stroke-linejoin:miter;stroke-miterlimit:3.86400008;stroke-opacity:1;stroke-dasharray:none"
         id="path4132" /></g><g
       id="g4134"
       transform="translate(288.5731,512.007)"><path
         inkscape:connector-curvature="0"
         d="m 0,0 c 0,-0.407 -0.025,-0.814 -0.458,-0.814 -0.456,0 -0.402,0.498 -0.402,0.797 C -0.641,-0.017 -0.261,0 0,0 z"
         style="fill:none;stroke:#002b54;stroke-width:0.31299999;stroke-linecap:butt;stroke-linejoin:miter;stroke-miterlimit:3.86400008;stroke-opacity:1;stroke-dasharray:none"
         id="path4136" /></g><g
       id="g4138"
       transform="translate(294.745,510.7679)"><path
         inkscape:connector-curvature="0"
         d="M 0,0 C 0,-0.538 1.224,-0.729 1.224,0.291"
         style="fill:none;stroke:#002b54;stroke-width:0.31299999;stroke-linecap:round;stroke-linejoin:round;stroke-miterlimit:3.86400008;stroke-opacity:1;stroke-dasharray:none"
         id="path4140" /></g><g
       id="g4142"
       transform="translate(293.1546,512.06)"><path
         inkscape:connector-curvature="0"
         d="m 0,0 c 0,-0.481 0.077,-1.044 0.497,-1.044 0.233,0 0.353,0.03 0.482,0.248 0,0 0.217,-0.51 0.622,-0.51 0.407,0 0.627,0.51 0.627,0.51 0.127,-0.218 0.251,-0.248 0.485,-0.248 0.417,0 0.495,0.563 0.495,1.044"
         style="fill:none;stroke:#002b54;stroke-width:0.31299999;stroke-linecap:round;stroke-linejoin:round;stroke-miterlimit:3.86400008;stroke-opacity:1;stroke-dasharray:none"
         id="path4144" /></g><g
       id="g4146"
       transform="translate(295.832,512.0775)"><path
         inkscape:connector-curvature="0"
         d="m 0,0 c 0,-0.407 -0.037,-0.814 -0.461,-0.814 -0.455,0 -0.406,0.498 -0.406,0.797 C -0.644,-0.017 -0.266,0 0,0 z"
         style="fill:none;stroke:#002b54;stroke-width:0.31299999;stroke-linecap:butt;stroke-linejoin:miter;stroke-miterlimit:3.86400008;stroke-opacity:1;stroke-dasharray:none"
         id="path4148" /></g><g
       id="g4150"
       transform="translate(293.5449,511.0583)"><path
         inkscape:connector-curvature="0"
         d="M 0,0 C 0,-1.02 1.226,-0.828 1.226,-0.291"
         style="fill:none;stroke:#002b54;stroke-width:0.31299999;stroke-linecap:butt;stroke-linejoin:miter;stroke-miterlimit:3.86400008;stroke-opacity:1;stroke-dasharray:none"
         id="path4152" /></g><g
       id="g4154"
       transform="translate(293.687,512.0775)"><path
         inkscape:connector-curvature="0"
         d="m 0,0 c 0,-0.407 0.031,-0.814 0.456,-0.814 0.46,0 0.408,0.498 0.408,0.797 C 0.64,-0.017 0.262,0 0,0 z"
         style="fill:none;stroke:#002b54;stroke-width:0.31299999;stroke-linecap:butt;stroke-linejoin:miter;stroke-miterlimit:3.86400008;stroke-opacity:1;stroke-dasharray:none"
         id="path4156" /></g><path
       inkscape:connector-curvature="0"
       d="m 281.9726,512.0217 c 1.302,-2.535 2.009,-3.919 5.662,-3.919 4.123,0 4.722,2.114 5.484,3.791 -2.268,-1.644 -3.68,-2.14 -5.591,-2.14 -1.899,0 -3.233,0.338 -5.555,2.268"
       style="fill:#ffffff;fill-opacity:1;fill-rule:nonzero;stroke:none"
       id="path4158" /><g
       id="g4160"
       transform="translate(281.9726,512.0217)"><path
         inkscape:connector-curvature="0"
         d="m 0,0 c 1.302,-2.535 2.009,-3.919 5.662,-3.919 4.123,0 4.722,2.114 5.484,3.791 C 8.878,-1.772 7.466,-2.268 5.555,-2.268 3.656,-2.268 2.322,-1.93 0,0 z"
         style="fill:none;stroke:#002b54;stroke-width:0.461;stroke-linecap:butt;stroke-linejoin:miter;stroke-miterlimit:3.86400008;stroke-opacity:1;stroke-dasharray:none"
         id="path4162" /></g><path
       inkscape:connector-curvature="0"
       d="m 293.6377,509.7724 c -0.701,-0.804 -1.103,-1.739 0.042,-2.352 0.921,-0.495 1.983,-0.706 2.1,-1.543 0.528,0.526 0.697,1.534 -0.381,2.095 -0.463,0.246 -2.205,0.505 -1.761,1.8"
       style="fill:#ffffff;fill-opacity:1;fill-rule:nonzero;stroke:none"
       id="path4164" /><g
       id="g4166"
       transform="translate(293.6377,509.7724)"><path
         inkscape:connector-curvature="0"
         d="M 0,0 C -0.701,-0.804 -1.103,-1.739 0.042,-2.352 0.963,-2.847 2.025,-3.058 2.142,-3.895 2.67,-3.369 2.839,-2.361 1.761,-1.8 1.298,-1.554 -0.444,-1.295 0,0 z"
         style="fill:none;stroke:#002b54;stroke-width:0.461;stroke-linecap:butt;stroke-linejoin:miter;stroke-miterlimit:3.86400008;stroke-opacity:1;stroke-dasharray:none"
         id="path4168" /></g><path
       inkscape:connector-curvature="0"
       d="m 293.6173,505.1255 c -0.528,-0.463 -0.58,-1.254 -0.508,-1.717 0.071,-0.454 1.473,-2.348 7.665,-1.263 -0.88,0.141 -0.912,0.182 -1.16,0.426 0.462,0.485 0.982,0.556 1.125,1.015 -1.999,-0.599 -7.738,-0.389 -7.069,1.552 l -0.053,-0.013 z"
       style="fill:#ffffff;fill-opacity:1;fill-rule:nonzero;stroke:none"
       id="path4170" /><g
       id="g4172"
       transform="translate(293.6173,505.1255)"><path
         inkscape:connector-curvature="0"
         d="m 0,0 c -0.528,-0.463 -0.58,-1.254 -0.508,-1.717 0.071,-0.454 1.473,-2.348 7.665,-1.263 -0.88,0.141 -0.912,0.182 -1.16,0.426 0.462,0.485 0.982,0.556 1.125,1.015 C 5.123,-2.138 -0.616,-1.928 0.053,0.013 L 0,0 z"
         style="fill:none;stroke:#002b54;stroke-width:0.461;stroke-linecap:round;stroke-linejoin:round;stroke-miterlimit:3.86400008;stroke-opacity:1;stroke-dasharray:none"
         id="path4174" /></g><path
       inkscape:connector-curvature="0"
       d="m 281.4507,510.119 c 0.314,-0.968 -0.079,-1.441 -1.643,-2.086 -1.566,-0.654 -1.044,-1.964 -0.703,-2.381 0.31,0.866 2.15,1.387 2.734,2.142 0.526,0.683 0.293,1.773 -0.388,2.325"
       style="fill:#ffffff;fill-opacity:1;fill-rule:nonzero;stroke:none"
       id="path4176" /><g
       id="g4178"
       transform="translate(281.4507,510.119)"><path
         inkscape:connector-curvature="0"
         d="m 0,0 c 0.314,-0.968 -0.079,-1.441 -1.643,-2.086 -1.566,-0.654 -1.044,-1.964 -0.703,-2.381 0.31,0.866 2.15,1.387 2.734,2.142 C 0.914,-1.642 0.681,-0.552 0,0 z"
         style="fill:none;stroke:#002b54;stroke-width:0.461;stroke-linecap:butt;stroke-linejoin:round;stroke-miterlimit:3.86400008;stroke-opacity:1;stroke-dasharray:none"
         id="path4180" /></g><path
       inkscape:connector-curvature="0"
       d="m 281.4507,505.396 c 0.548,-0.735 0.728,-2.6 -0.446,-3.049 -2.087,-0.795 -3.224,0.565 -6.282,-1.819 1.13,2.16 2.897,2.717 3.737,2.89 0.989,0.206 3.279,0.388 2.991,1.978"
       style="fill:#ffffff;fill-opacity:1;fill-rule:nonzero;stroke:none"
       id="path4182" /><g
       id="g4184"
       transform="translate(281.4507,505.396)"><path
         inkscape:connector-curvature="0"
         d="m 0,0 c 0.548,-0.735 0.728,-2.6 -0.446,-3.049 -2.087,-0.795 -3.224,0.565 -6.282,-1.819 1.13,2.16 2.897,2.717 3.737,2.89 C -2.002,-1.772 0.288,-1.59 0,0 z"
         style="fill:none;stroke:#002b54;stroke-width:0.461;stroke-linecap:butt;stroke-linejoin:round;stroke-miterlimit:3.86400008;stroke-opacity:1;stroke-dasharray:none"
         id="path4186" /></g></g></g><g
   transform="matrix(3.936911,0,0,-3.936911,-897.63498,2254.8124)"
   id="g4188"><g
     id="g4190"
     clip-path="url(#clipPath4192)"><g
       id="g4196"
       clip-path="url(#clipPath4198)"><g
         id="g4202"
         transform="translate(278.5797,512.6733)"><path
           inkscape:connector-curvature="0"
           d="m 0,0 18.058,0 c 0.12,0 0.21,-0.096 0.21,-0.216 l 0,-0.175 c 0,-0.112 -0.09,-0.204 -0.21,-0.204 L 0,-0.595 c -0.11,0 -0.21,0.092 -0.21,0.204 l 0,0.175 C -0.21,-0.096 -0.11,0 0,0 z"
           style="fill:none;stroke:#002b54;stroke-width:0.31299999;stroke-linecap:butt;stroke-linejoin:miter;stroke-miterlimit:3.86400008;stroke-opacity:1;stroke-dasharray:none"
           id="path4204" /></g><g
         id="g4206"
         transform="translate(277.9041,514.6281)"><path
           inkscape:connector-curvature="0"
           d="m 0,0 19.154,0 c 0.122,0 0.211,-0.097 0.211,-0.211 l 0,-0.163 c 0,-0.113 -0.089,-0.207 -0.211,-0.207 L 0,-0.581 c -0.115,0 -0.209,0.094 -0.209,0.207 l 0,0.163 C -0.209,-0.097 -0.115,0 0,0 z"
           style="fill:none;stroke:#002b54;stroke-width:0.31299999;stroke-linecap:butt;stroke-linejoin:miter;stroke-miterlimit:3.86400008;stroke-opacity:1;stroke-dasharray:none"
           id="path4208" /></g></g></g></g><g
   transform="matrix(3.936911,0,0,-3.936911,-897.63498,2254.8124)"
   id="g4210"><g
     id="g4212"
     clip-path="url(#clipPath4214)"><g
       id="g4218"
       transform="translate(296.848,512.4569)"><path
         inkscape:connector-curvature="0"
         d="m 0,0 0,-0.174 c 0,-0.113 -0.091,-0.204 -0.211,-0.204 l -18.057,0 c -0.11,0 -0.211,0.091 -0.211,0.204 l 0,0.174 0,0.037 c -0.202,0.026 -0.365,0.201 -0.365,0.418 l 0,0.971 c 0,0.037 -0.255,0.079 -0.259,0.295 l 0,0.239 c 0,0.114 0.093,0.211 0.207,0.211 l 19.119,0 c 0.111,0 0.205,-0.097 0.205,-0.211 l 0,-0.239 c 0,-0.114 -0.089,-0.236 -0.198,-0.236 0,0 -0.031,-0.022 -0.031,-0.059 l 0,-0.971 C 0.199,0.298 0.134,0.161 0.005,0.087 0.005,0.087 0,0.037 0,0 z"
         style="fill:none;stroke:#002b54;stroke-width:0.461;stroke-linecap:butt;stroke-linejoin:miter;stroke-miterlimit:3.86400008;stroke-opacity:1;stroke-dasharray:none"
         id="path4220" /></g><path
       inkscape:connector-curvature="0"
       d="m 281.6592,514.7135 c 0,3.242 2.628,5.661 5.868,5.661 3.244,0 5.879,-2.419 5.879,-5.661 0,-0.082 2.556,-0.026 2.556,-0.026 -0.024,4.648 -3.795,8.007 -8.452,8.007 -4.658,0 -8.43,-3.359 -8.43,-8.007 l 2.579,0.026 z"
       style="fill:#ffffff;fill-opacity:1;fill-rule:nonzero;stroke:none"
       id="path4222" /><g
       id="g4224"
       transform="translate(281.6592,514.7135)"><path
         inkscape:connector-curvature="0"
         d="m 0,0 c 0,3.242 2.628,5.661 5.868,5.661 3.244,0 5.879,-2.419 5.879,-5.661 0,-0.082 2.556,-0.026 2.556,-0.026 -0.024,4.648 -3.795,8.007 -8.452,8.007 -4.658,0 -8.43,-3.359 -8.43,-8.007 L 0,0 z"
         style="fill:none;stroke:#002b54;stroke-width:0.461;stroke-linecap:butt;stroke-linejoin:miter;stroke-miterlimit:3.86400008;stroke-opacity:1;stroke-dasharray:none"
         id="path4226" /></g><path
       inkscape:connector-curvature="0"
       d="m 320.2914,457.7234 0.191,0 c 0.091,0 0.153,0.013 0.186,0.041 0.033,0.026 0.05,0.062 0.05,0.107 0,0.029 -0.008,0.055 -0.024,0.078 -0.016,0.023 -0.038,0.04 -0.067,0.05 -0.028,0.012 -0.08,0.017 -0.158,0.017 l -0.178,0 0,-0.293 z m -0.157,-0.549 0,0.974 0.334,0 c 0.115,0 0.197,-0.008 0.248,-0.026 0.051,-0.019 0.092,-0.05 0.123,-0.095 0.031,-0.045 0.046,-0.092 0.046,-0.143 0,-0.07 -0.026,-0.132 -0.077,-0.185 -0.05,-0.053 -0.118,-0.082 -0.202,-0.089 0.035,-0.015 0.062,-0.032 0.083,-0.051 0.039,-0.039 0.087,-0.104 0.144,-0.193 l 0.118,-0.192 -0.191,0 -0.086,0.154 c -0.069,0.121 -0.124,0.196 -0.165,0.226 -0.028,0.023 -0.071,0.034 -0.126,0.034 l -0.092,0 0,-0.414 -0.157,0 z m 0.397,1.257 c -0.127,0 -0.251,-0.033 -0.371,-0.098 -0.121,-0.065 -0.215,-0.158 -0.283,-0.28 -0.068,-0.12 -0.102,-0.247 -0.102,-0.378 0,-0.13 0.033,-0.256 0.1,-0.375 0.067,-0.12 0.16,-0.213 0.28,-0.28 0.12,-0.066 0.246,-0.1 0.376,-0.1 0.13,0 0.255,0.034 0.375,0.1 0.12,0.067 0.213,0.16 0.28,0.28 0.066,0.119 0.099,0.245 0.099,0.375 0,0.131 -0.034,0.258 -0.101,0.378 -0.068,0.122 -0.163,0.215 -0.283,0.28 -0.12,0.065 -0.244,0.098 -0.37,0.098 m 0,0.149 c 0.152,0 0.3,-0.038 0.445,-0.116 0.144,-0.078 0.257,-0.19 0.338,-0.336 0.08,-0.145 0.121,-0.296 0.121,-0.453 0,-0.156 -0.04,-0.306 -0.12,-0.45 -0.079,-0.144 -0.19,-0.256 -0.334,-0.336 -0.143,-0.079 -0.294,-0.119 -0.45,-0.119 -0.157,0 -0.307,0.04 -0.451,0.119 -0.143,0.08 -0.255,0.192 -0.335,0.336 -0.08,0.144 -0.12,0.294 -0.12,0.45 0,0.157 0.04,0.308 0.121,0.453 0.082,0.146 0.195,0.258 0.339,0.336 0.146,0.078 0.294,0.116 0.446,0.116"
       style="fill:#002b54;fill-opacity:1;fill-rule:nonzero;stroke:none"
       id="path4228" /><g
       id="g4230"
       transform="translate(254.1376,506.6549)"><path
         inkscape:connector-curvature="0"
         d="M 0,0 C -0.838,-1.193 -1.361,-1.88 -1.361,-3.185"
         style="fill:none;stroke:#002b54;stroke-width:0.461;stroke-linecap:butt;stroke-linejoin:round;stroke-miterlimit:3.86400008;stroke-opacity:1;stroke-dasharray:none"
         id="path4232" /></g><g
       id="g4234"
       transform="translate(322.2489,507.2299)"><path
         inkscape:connector-curvature="0"
         d="M 0,0 C 0.677,-1.258 1.51,-3.76 -2.298,-4.489"
         style="fill:none;stroke:#002b54;stroke-width:0.461;stroke-linecap:butt;stroke-linejoin:round;stroke-miterlimit:3.86400008;stroke-opacity:1;stroke-dasharray:none"
         id="path4236" /></g></g></g></svg>